{
.appVersion = "3151";
classes = (
{
automatic = 1;
code = "iMatra-deva iMatra-deva.0 iMatra-deva.05 iMatra-deva.10";
name = DevaIMatras;
},
{
automatic = 1;
code = "iMatra_reph-deva iMatra_reph-deva.0 iMatra_reph-deva.05 iMatra_reph-deva.10";
name = DevaIMatraRephs;
},
{
automatic = 1;
code = "iMatra_reph_anusvara-deva iMatra_reph_anusvara-deva.0 iMatra_reph_anusvara-deva.05 iMatra_reph_anusvara-deva.10";
name = DevaIMatraRephAnusvaras;
},
{
automatic = 1;
code = "ka-deva kha-deva ga-deva gha-deva nga-deva ca-deva cha-deva ja-deva jha-deva nya-deva tta-deva ttha-deva dda-deva ddha-deva nna-deva ta-deva tha-deva da-deva dha-deva na-deva nnna-deva pa-deva pha-deva ba-deva bha-deva ma-deva ya-deva ra-deva rra-deva la-deva lla-deva llla-deva va-deva sha-deva ssa-deva sa-deva ha-deva qa-deva khha-deva ghha-deva za-deva dddha-deva rha-deva fa-deva yya-deva zha-deva jjya-deva gga-deva jja-deva ddda-deva bba-deva la-deva.loclMAR sha-deva.loclMAR jha-deva.loclNEP zha-deva.loclNEP na-deva.post ya-deva.post ra-deva.post va-deva.post";
name = DevaFullforms;
},
{
automatic = 1;
code = "k-deva k_r-deva k_ss-deva kh-deva kh_r-deva g-deva g_r-deva gh-deva gh_r-deva ng-deva ng_k-deva c-deva ch-deva j-deva j_j-deva j_ny-deva jh-deva ny-deva tt-deva tth-deva tth_r-deva dd-deva dd_r-deva ddh-deva ddh_r-deva nn-deva t-deva t_t-deva t_r-deva th-deva d-deva dh-deva n-deva nnn-deva p-deva p_r-deva ph-deva b-deva bh-deva m-deva y-deva rr-deva l-deva ll-deva lll-deva v-deva sh-deva sh_r-deva ss-deva s-deva h-deva q-deva khh-deva ghh-deva z-deva f-deva l-deva.loclMAR sh-deva.loclMAR jh-deva.loclNEP";
name = DevaHalfforms;
},
{
automatic = 1;

glyphs = (
{
color = 6;
glyphname = A;
lastChange = "2015-05-11 15:45:47 +0000";
layers = (
{
anchors = (
{
name = ogonek;
position = "{683, 5}";
},
{
name = top;
position = "{397, 742}";
}
);
hints = (
{
place = "{40, 0}";
type = Stem;
},
{
place = "{40, 0}";
type = Stem;
},
{
horizontal = 1;
place = "{-13, 0}";
type = Stem;
}
);
layerId = "E777F328-EA17-4AE7-9EBA-8002E537BA4F";
name = Light;
paths = (
{
closed = 1;
nodes = (
"257 697 OFFCURVE",
"40 475 OFFCURVE",
"40 223 CURVE SMOOTH",
"40 74 OFFCURVE",
"122 -11 OFFCURVE",
"237 -11 CURVE SMOOTH",
"351 -11 OFFCURVE",
"434 96 OFFCURVE",
"487 328 CURVE",
"492 328 LINE",
"492 115 LINE SMOOTH",
"492 36 OFFCURVE",
"537 -4 OFFCURVE",
"591 -4 CURVE SMOOTH",
"640 -4 OFFCURVE",
"680 33 OFFCURVE",
"692 68 CURVE",
"681 79 LINE",
"670 59 OFFCURVE",
"643 42 OFFCURVE",
"621 42 CURVE SMOOTH",
"591 42 OFFCURVE",
"573 69 OFFCURVE",
"573 109 CURVE SMOOTH",
"573 630 LINE",
"492 594 LINE",
"492 317 OFFCURVE",
"377 50 OFFCURVE",
"257 50 CURVE SMOOTH",
"181 50 OFFCURVE",
"125 125 OFFCURVE",
"125 249 CURVE SMOOTH",
"125 472 OFFCURVE",
"289 654 OFFCURVE",
"517 685 CURVE",
"517 711 LINE"
);
}
);
width = 690;
},
{
anchors = (
{
name = ogonek;
position = "{665, 5}";
},
{
name = top;
position = "{392, 742}";
}
);
hints = (
{
origin = "{0, 2}";
target = "{0, 2}";
type = Stem;
},
{
horizontal = 1;
place = "{24, 0}";
type = Stem;
},
{
horizontal = 1;
origin = "{0, 5}";
target = "{0, 5}";
type = Stem;
},
{
origin = "{0, 31}";
target = "{0, 5}";
type = Stem;
}
);
layerId = "39185045-6A8C-415A-8312-7B8F11386A4C";
name = Regular;
paths = (
{
closed = 1;
nodes = (
"260 711 OFFCURVE",
"19 489 OFFCURVE",
"19 223 CURVE SMOOTH",
"19 77 OFFCURVE",
"92 -9 OFFCURVE",
"217 -9 CURVE SMOOTH",
"325 -9 OFFCURVE",
"401 69 OFFCURVE",
"430 214 CURVE",
"439 214 LINE",
"439 134 LINE SMOOTH",
"439 37 OFFCURVE",
"478 -9 OFFCURVE",
"559 -9 CURVE SMOOTH",
"625 -9 OFFCURVE",
"668 13 OFFCURVE",
"707 66 CURVE",
"680 92 LINE",
"662 71 OFFCURVE",
"643 60 OFFCURVE",
"625 60 CURVE SMOOTH",
"608 60 OFFCURVE",
"597 75 OFFCURVE",
"597 96 CURVE SMOOTH",
"597 637 LINE",
"439 592 LINE",
"439 317 OFFCURVE",
"363 59 OFFCURVE",
"280 59 CURVE SMOOTH",
"217 59 OFFCURVE",
"181 125 OFFCURVE",
"181 251 CURVE SMOOTH",
"181 458 OFFCURVE",
"347 644 OFFCURVE",
"558 671 CURVE",
"558 719 LINE"
);
}
);
width = 683;
}
);
leftKerningGroup = A;
leftMetricsKey = "2-3.6";
rightKerningGroup = A;
unicode = 0041;
},
{
color = 6;
glyphname = AE;
lastChange = "2015-05-11 15:45:47 +0000";
layers = (
{
anchors = (
{
name = top;
position = "{498, 742}";
}
);
layerId = "E777F328-EA17-4AE7-9EBA-8002E537BA4F";
name = Light;
paths = (
{
closed = 1;
nodes = (
"427 203 LINE",
"389 101 OFFCURVE",
"332 -11 OFFCURVE",
"222 -11 CURVE SMOOTH",
"110 -11 OFFCURVE",
"44 97 OFFCURVE",
"44 223 CURVE SMOOTH",
"44 455 OFFCURVE",
"221 698 OFFCURVE",
"634 692 CURVE",
"634 670 LINE",
"248 653 OFFCURVE",
"131 437 OFFCURVE",
"131 249 CURVE SMOOTH",
"131 169 OFFCURVE",
"154 50 OFFCURVE",
"242 50 CURVE SMOOTH",
"319 50 OFFCURVE",
"368 122 OFFCURVE",
"401 214 CURVE"
);
},
{
closed = 1;
nodes = (
"891 177 LINE",
"830 76 OFFCURVE",
"717 -11 OFFCURVE",
"585 -11 CURVE SMOOTH",
"478 -11 OFFCURVE",
"394 59 OFFCURVE",
"394 168 CURVE SMOOTH",
"394 273 OFFCURVE",
"491 353 OFFCURVE",
"585 394 CURVE",
"517 409 OFFCURVE",
"472 458 OFFCURVE",
"472 522 CURVE SMOOTH",
"472 658 OFFCURVE",
"628 714 OFFCURVE",
"723 714 CURVE SMOOTH",
"771 714 OFFCURVE",
"808 694 OFFCURVE",
"842 657 CURVE",
"791 609 LINE",
"760 635 OFFCURVE",
"722 670 OFFCURVE",
"665 670 CURVE SMOOTH",
"595 670 OFFCURVE",
"522 625 OFFCURVE",
"522 558 CURVE SMOOTH",
"522 494 OFFCURVE",
"598 441 OFFCURVE",
"665 441 CURVE SMOOTH",
"681 441 OFFCURVE",
"697 441 OFFCURVE",
"707 447 CURVE",
"716 421 LINE",
"626 394 OFFCURVE",
"491 320 OFFCURVE",
"491 203 CURVE SMOOTH",
"491 125 OFFCURVE",
"540 64 OFFCURVE",
"628 64 CURVE SMOOTH",
"736 64 OFFCURVE",
"834 132 OFFCURVE",
"871 194 CURVE"
);
}
);
width = 896;
},
{
anchors = (
{
name = top;
position = "{504, 742}";
}
);
layerId = "39185045-6A8C-415A-8312-7B8F11386A4C";
name = Regular;
paths = (
{
closed = 1;
nodes = (
"430 214 LINE",
"406 95 OFFCURVE",
"345 -9 OFFCURVE",
"217 -9 CURVE SMOOTH",
"97 -9 OFFCURVE",
"19 71 OFFCURVE",
"19 223 CURVE SMOOTH",
"19 460 OFFCURVE",
"234 711 OFFCURVE",
"572 720 CURVE",
"572 673 LINE",
"340 644 OFFCURVE",
"181 446 OFFCURVE",
"181 251 CURVE SMOOTH",
"181 150 OFFCURVE",
"203 59 OFFCURVE",
"280 59 CURVE SMOOTH",
"330 59 OFFCURVE",
"368 125 OFFCURVE",
"392 213 CURVE"
);
},
{
closed = 1;
nodes = (
"917 196 LINE",
"857 88 OFFCURVE",
"740 -11 OFFCURVE",
"600 -11 CURVE SMOOTH",
"458 -11 OFFCURVE",
"385 64 OFFCURVE",
"385 169 CURVE SMOOTH",
"385 273 OFFCURVE",
"460 349 OFFCURVE",
"535 394 CURVE",
"485 427 OFFCURVE",
"464 467 OFFCURVE",
"464 520 CURVE SMOOTH",
"464 643 OFFCURVE",
"584 730 OFFCURVE",
"725 730 CURVE SMOOTH",
"792 730 OFFCURVE",
"857 702 OFFCURVE",
"896 652 CURVE",
"780 590 LINE",
"756 653 OFFCURVE",
"719 678 OFFCURVE",
"681 678 CURVE SMOOTH",
"635 678 OFFCURVE",
"591 634 OFFCURVE",
"591 570 CURVE SMOOTH",
"591 492 OFFCURVE",
"635 451 OFFCURVE",
"698 451 CURVE SMOOTH",
"719 451 OFFCURVE",
"743 455 OFFCURVE",
"768 464 CURVE",
"777 427 LINE",
"628 380 OFFCURVE",
"545 322 OFFCURVE",
"545 197 CURVE SMOOTH",
"545 131 OFFCURVE",
"588 77 OFFCURVE",
"658 77 CURVE SMOOTH",
"756 77 OFFCURVE",
"839 154 OFFCURVE",
"879 229 CURVE"
);
}
);
width = 907;
}
);
leftKerningGroup = A;
rightKerningGroup = E;
unicode = 00C6;
},
{
color = 6;
glyphname = B;
lastChange = "2015-05-11 15:45:47 +0000";
layers = (
{
hints = (
{
horizontal = 1;
place = "{611, 0}";
type = Stem;
},
{
horizontal = 1;
place = "{224, 0}";
type = Stem;
},
{
place = "{79, 0}";
type = Stem;
},
{
origin = "{0, 32}";
target = "{0, 22}";
type = Stem;
}
);
layerId = "E777F328-EA17-4AE7-9EBA-8002E537BA4F";
name = Light;
paths = (
{
closed = 1;
nodes = (
"306 381 LINE",
"391 426 OFFCURVE",
"520 525 OFFCURVE",
"520 625 CURVE SMOOTH",
"520 689 OFFCURVE",
"467 720 OFFCURVE",
"410 720 CURVE SMOOTH",
"217 720 OFFCURVE",
"80 574 OFFCURVE",
"80 354 CURVE SMOOTH",
"80 -5 LINE",
"160 25 LINE",
"160 409 LINE SMOOTH",
"160 498 OFFCURVE",
"196 670 OFFCURVE",
"332 670 CURVE SMOOTH",
"392 670 OFFCURVE",
"427 635 OFFCURVE",
"427 585 CURVE SMOOTH",
"427 477 OFFCURVE",
"293 394 OFFCURVE",
"200 356 CURVE",
"208 329 LINE",
"249 345 OFFCURVE",
"296 354 OFFCURVE",
"345 354 CURVE SMOOTH",
"427 354 OFFCURVE",
"513 299 OFFCURVE",
"513 218 CURVE SMOOTH",
"513 59 OFFCURVE",
"319 -21 OFFCURVE",
"183 -49 CURVE",
"187 -69 LINE",
"351 -66 OFFCURVE",
"608 25 OFFCURVE",
"608 225 CURVE SMOOTH",
"608 341 OFFCURVE",
"508 389 OFFCURVE",
"406 389 CURVE SMOOTH",
"372 389 OFFCURVE",
"340 384 OFFCURVE",
"308 377 CURVE"
);
}
);
width = 644;
},
{
hints = (
{
origin = "{0, 10}";
target = "{0, 10}";
type = Stem;
},
{
origin = "{0, 21}";
target = "{0, 11}";
type = Stem;
},
{
horizontal = 1;
origin = "{0, 35}";
target = "{0, 35}";
type = Stem;
}
);
layerId = "39185045-6A8C-415A-8312-7B8F11386A4C";
name = Regular;
paths = (
{
closed = 1;
nodes = (
"340 386 LINE",
"425 437 OFFCURVE",
"548 532 OFFCURVE",
"548 621 CURVE SMOOTH",
"548 689 OFFCURVE",
"486 720 OFFCURVE",
"418 720 CURVE SMOOTH",
"205 720 OFFCURVE",
"59 547 OFFCURVE",
"59 354 CURVE SMOOTH",
"59 -21 LINE",
"217 29 LINE",
"217 409 LINE SMOOTH",
"217 498 OFFCURVE",
"239 663 OFFCURVE",
"326 663 CURVE SMOOTH",
"360 663 OFFCURVE",
"381 630 OFFCURVE",
"381 584 CURVE SMOOTH",
"381 474 OFFCURVE",
"264 391 OFFCURVE",
"176 347 CURVE",
"186 320 LINE",
"236 339 OFFCURVE",
"275 349 OFFCURVE",
"319 349 CURVE SMOOTH",
"389 349 OFFCURVE",
"464 299 OFFCURVE",
"464 218 CURVE SMOOTH",
"464 59 OFFCURVE",
"273 -9 OFFCURVE",
"141 -36 CURVE",
"154 -83 LINE",
"324 -76 OFFCURVE",
"634 25 OFFCURVE",
"634 226 CURVE SMOOTH",
"634 343 OFFCURVE",
"527 391 OFFCURVE",
"420 391 CURVE SMOOTH",
"398 391 OFFCURVE",
"368 386 OFFCURVE",
"343 381 CURVE"
);
}
);
width = 653;
}
);
leftKerningGroup = H;
rightKerningGroup = B;
unicode = 0042;
},
{
color = 6;
glyphname = C;
lastChange = "2015-05-11 15:45:47 +0000";
layers = (
{
anchors = (
{
name = bottom;
position = "{308, 0}";
},
{
name = top;
position = "{381, 742}";
}
);
hints = (
{
place = "{43, 0}";
type = Stem;
},
{
place = "{125, 0}";
type = Stem;
},
{
horizontal = 1;
place = "{291, 0}";
type = Stem;
},
{
horizontal = 1;
place = "{-4, 0}";
type = Stem;
}
);
layerId = "E777F328-EA17-4AE7-9EBA-8002E537BA4F";
name = Light;
paths = (
{
closed = 1;
nodes = (
"226 730 OFFCURVE",
"42 542 OFFCURVE",
"42 291 CURVE SMOOTH",
"42 126 OFFCURVE",
"135 -11 OFFCURVE",
"300 -11 CURVE SMOOTH",
"427 -11 OFFCURVE",
"501 62 OFFCURVE",
"547 120 CURVE",
"528 140 LINE",
"478 89 OFFCURVE",
"413 62 OFFCURVE",
"347 62 CURVE SMOOTH",
"213 62 OFFCURVE",
"125 177 OFFCURVE",
"125 361 CURVE SMOOTH",
"125 527 OFFCURVE",
"238 671 OFFCURVE",
"366 671 CURVE SMOOTH",
"451 671 OFFCURVE",
"506 617 OFFCURVE",
"506 535 CURVE SMOOTH",
"506 472 OFFCURVE",
"467 411 OFFCURVE",
"410 385 CURVE",
"419 370 LINE",
"498 394 OFFCURVE",
"580 506 OFFCURVE",
"580 600 CURVE SMOOTH",
"580 678 OFFCURVE",
"525 730 OFFCURVE",
"441 730 CURVE SMOOTH"
);
}
);
width = 613;
},
{
anchors = (
{
name = bottom;
position = "{310, 0}";
},
{
name = top;
position = "{360, 742}";
}
);
hints = (
{
origin = "{0, 2}";
target = "{0, 2}";
type = Stem;
},
{
origin = "{0, 15}";
target = "{0, 15}";
type = Stem;
},
{
horizontal = 1;
origin = "{0, 5}";
target = "{0, 5}";
type = Stem;
},
{
horizontal = 1;
origin = "{0, 2}";
target = "{0, 2}";
type = Stem;
}
);
layerId = "39185045-6A8C-415A-8312-7B8F11386A4C";
name = Regular;
paths = (
{
closed = 1;
nodes = (
"214 730 OFFCURVE",
"28 533 OFFCURVE",
"28 285 CURVE SMOOTH",
"28 106 OFFCURVE",
"138 -9 OFFCURVE",
"309 -9 CURVE SMOOTH",
"402 -9 OFFCURVE",
"515 51 OFFCURVE",
"581 140 CURVE",
"548 169 LINE",
"492 113 OFFCURVE",
"436 81 OFFCURVE",
"384 81 CURVE SMOOTH",
"271 81 OFFCURVE",
"191 198 OFFCURVE",
"191 355 CURVE SMOOTH",
"191 522 OFFCURVE",
"269 666 OFFCURVE",
"364 666 CURVE SMOOTH",
"419 666 OFFCURVE",
"457 619 OFFCURVE",
"457 547 CURVE SMOOTH",
"457 483 OFFCURVE",
"418 421 OFFCURVE",
"361 395 CURVE",
"379 361 LINE",
"513 398 OFFCURVE",
"608 498 OFFCURVE",
"608 599 CURVE SMOOTH",
"608 678 OFFCURVE",
"545 730 OFFCURVE",
"451 730 CURVE SMOOTH"
);
}
);
width = 620;
}
);
leftKerningGroup = O;
rightKerningGroup = C;
unicode = 0043;
},
{
color = 6;
glyphname = D;
lastChange = "2015-05-11 15:45:47 +0000";
layers = (
{
anchors = (
{
name = center;
position = "{335, 370}";
},
{
name = top;
position = "{335, 742}";
}
);
layerId = "E777F328-EA17-4AE7-9EBA-8002E537BA4F";
name = Light;
paths = (
{
closed = 1;
nodes = (
"283 707 OFFCURVE",
"120 643 OFFCURVE",
"33 556 CURVE",
"50 538 LINE",
"131 605 OFFCURVE",
"239 652 OFFCURVE",
"353 652 CURVE SMOOTH",
"489 652 OFFCURVE",
"532 536 OFFCURVE",
"532 446 CURVE SMOOTH",
"532 248 OFFCURVE",
"384 89 OFFCURVE",
"177 37 CURVE",
"177 570 LINE",
"97 538 LINE",
"97 -13 LINE",
"358 2 OFFCURVE",
"630 203 OFFCURVE",
"630 463 CURVE SMOOTH",
"630 609 OFFCURVE",
"549 707 OFFCURVE",
"391 707 CURVE SMOOTH"
);
}
);
width = 673;
},
{
anchors = (
{
name = center;
position = "{341, 370}";
},
{
name = top;
position = "{341, 742}";
}
);
layerId = "39185045-6A8C-415A-8312-7B8F11386A4C";
name = Regular;
paths = (
{
closed = 1;
nodes = (
"221 742 OFFCURVE",
"92 663 OFFCURVE",
"17 591 CURVE",
"49 554 LINE",
"120 617 OFFCURVE",
"225 671 OFFCURVE",
"308 671 CURVE SMOOTH",
"414 671 OFFCURVE",
"500 606 OFFCURVE",
"500 446 CURVE SMOOTH",
"500 260 OFFCURVE",
"391 115 OFFCURVE",
"236 60 CURVE",
"236 600 LINE",
"80 554 LINE",
"80 -13 LINE",
"329 2 OFFCURVE",
"657 169 OFFCURVE",
"657 462 CURVE SMOOTH",
"657 630 OFFCURVE",
"566 742 OFFCURVE",
"377 742 CURVE SMOOTH"
);
}
);
width = 683;
}
);
leftKerningGroup = H;
rightKerningGroup = O;
unicode = 0044;
},
{
color = 6;
glyphname = Eth;
lastChange = "2015-05-11 15:45:47 +0000";
layers = (
{
components = (
{
name = D;
}
);
layerId = "E777F328-EA17-4AE7-9EBA-8002E537BA4F";
name = Light;
paths = (
{
closed = 1;
nodes = (
"13 374 LINE",
"-8 324 LINE",
"330 324 LINE",
"351 374 LINE"
);
}
);
width = 673;
},
{
components = (
{
name = D;
}
);
layerId = "39185045-6A8C-415A-8312-7B8F11386A4C";
name = Regular;
paths = (
{
closed = 1;
nodes = (
"3 375 LINE",
"-21 322 LINE",
"340 322 LINE",
"363 375 LINE"
);
}
);
width = 683;
}
);
leftKerningGroup = H;
rightKerningGroup = O;
unicode = 00D0;
},
{
color = 6;
glyphname = Dcroat;
lastChange = "2015-05-11 15:45:47 +0000";
layers = (
{
components = (
{
name = D;
}
);
layerId = "E777F328-EA17-4AE7-9EBA-8002E537BA4F";
name = Light;
paths = (
{
closed = 1;
nodes = (
"13 374 LINE",
"-8 324 LINE",
"330 324 LINE",
"351 374 LINE"
);
}
);
width = 673;
},
{
components = (
{
name = D;
}
);
layerId = "39185045-6A8C-415A-8312-7B8F11386A4C";
name = Regular;
paths = (
{
closed = 1;
nodes = (
"3 375 LINE",
"-21 322 LINE",
"340 322 LINE",
"363 375 LINE"
);
}
);
width = 683;
}
);
leftKerningGroup = D;
rightKerningGroup = D;
unicode = 0110;
},
{
color = 6;
glyphname = E;
lastChange = "2015-05-11 15:45:47 +0000";
layers = (
{
anchors = (
{
name = bottom;
position = "{271, 0}";
},
{
name = ogonek;
position = "{341, 5}";
},
{
name = top;
position = "{324, 742}";
}
);
layerId = "E777F328-EA17-4AE7-9EBA-8002E537BA4F";
name = Light;
paths = (
{
closed = 1;
nodes = (
"268 714 OFFCURVE",
"113 658 OFFCURVE",
"113 522 CURVE SMOOTH",
"113 458 OFFCURVE",
"157 409 OFFCURVE",
"226 394 CURVE",
"132 353 OFFCURVE",
"34 273 OFFCURVE",
"34 168 CURVE SMOOTH",
"34 59 OFFCURVE",
"119 -11 OFFCURVE",
"226 -11 CURVE SMOOTH",
"358 -11 OFFCURVE",
"471 76 OFFCURVE",
"532 177 CURVE",
"513 194 LINE",
"475 132 OFFCURVE",
"375 64 OFFCURVE",
"268 64 CURVE SMOOTH",
"181 64 OFFCURVE",
"131 125 OFFCURVE",
"131 203 CURVE SMOOTH",
"131 320 OFFCURVE",
"267 394 OFFCURVE",
"356 421 CURVE",
"348 447 LINE",
"338 441 OFFCURVE",
"322 441 OFFCURVE",
"306 441 CURVE SMOOTH",
"238 441 OFFCURVE",
"163 494 OFFCURVE",
"163 558 CURVE SMOOTH",
"163 625 OFFCURVE",
"236 670 OFFCURVE",
"306 670 CURVE SMOOTH",
"363 670 OFFCURVE",
"401 635 OFFCURVE",
"431 609 CURVE",
"482 657 LINE",
"449 694 OFFCURVE",
"411 714 OFFCURVE",
"364 714 CURVE SMOOTH"
);
}
);
width = 541;
},
{
anchors = (
{
name = bottom;
position = "{266, 0}";
},
{
name = ogonek;
position = "{379, 5}";
},
{
name = top;
position = "{315, 742}";
}
);
layerId = "39185045-6A8C-415A-8312-7B8F11386A4C";
name = Regular;
paths = (
{
closed = 1;
nodes = (
"208 730 OFFCURVE",
"86 643 OFFCURVE",
"86 520 CURVE SMOOTH",
"86 463 OFFCURVE",
"125 402 OFFCURVE",
"181 383 CURVE",
"96 341 OFFCURVE",
"9 267 OFFCURVE",
"9 169 CURVE SMOOTH",
"9 64 OFFCURVE",
"83 -11 OFFCURVE",
"225 -11 CURVE SMOOTH",
"364 -11 OFFCURVE",
"481 88 OFFCURVE",
"542 196 CURVE",
"501 229 LINE",
"463 154 OFFCURVE",
"379 77 OFFCURVE",
"281 77 CURVE SMOOTH",
"218 77 OFFCURVE",
"181 132 OFFCURVE",
"181 203 CURVE SMOOTH",
"181 325 OFFCURVE",
"293 394 OFFCURVE",
"401 427 CURVE",
"391 464 LINE",
"366 455 OFFCURVE",
"343 451 OFFCURVE",
"322 451 CURVE SMOOTH",
"258 451 OFFCURVE",
"214 492 OFFCURVE",
"214 570 CURVE SMOOTH",
"214 634 OFFCURVE",
"260 678 OFFCURVE",
"306 678 CURVE SMOOTH",
"343 678 OFFCURVE",
"379 653 OFFCURVE",
"405 590 CURVE",
"520 652 LINE",
"481 702 OFFCURVE",
"414 730 OFFCURVE",
"348 730 CURVE SMOOTH"
);
}
);
width = 532;
}
);
leftKerningGroup = H;
rightKerningGroup = E;
unicode = 0045;
},
{
color = 6;
glyphname = F;
lastChange = "2015-05-11 15:45:47 +0000";
layers = (
{
layerId = "E777F328-EA17-4AE7-9EBA-8002E537BA4F";
name = Light;
paths = (
{
closed = 1;
nodes = (
"559 696 OFFCURVE",
"421 697 OFFCURVE",
"358 697 CURVE SMOOTH",
"214 697 LINE SMOOTH",
"141 697 OFFCURVE",
"62 655 OFFCURVE",
"-7 572 CURVE",
"9 559 LINE",
"41 595 OFFCURVE",
"74 614 OFFCURVE",
"131 614 CURVE",
"269 613 LINE",
"231 577 OFFCURVE",
"186 520 OFFCURVE",
"186 455 CURVE SMOOTH",
"186 25 LINE SMOOTH",
"186 -5 OFFCURVE",
"177 -48 OFFCURVE",
"156 -71 CURVE",
"176 -91 LINE",
"234 -42 OFFCURVE",
"266 2 OFFCURVE",
"266 115 CURVE",
"266 513 LINE SMOOTH",
"266 554 OFFCURVE",
"278 580 OFFCURVE",
"306 613 CURVE",
"426 613 LINE SMOOTH",
"483 613 OFFCURVE",
"570 665 OFFCURVE",
"613 728 CURVE",
"605 737 LINE"
);
},
{
closed = 1;
nodes = (
"469 391 OFFCURVE",
"436 366 OFFCURVE",
"351 366 CURVE SMOOTH",
"122 366 LINE",
"80 311 LINE",
"332 311 LINE SMOOTH",
"409 311 OFFCURVE",
"468 336 OFFCURVE",
"509 397 CURVE",
"496 410 LINE"
);
}
);
width = 590;
},
{
layerId = "39185045-6A8C-415A-8312-7B8F11386A4C";
name = Regular;
paths = (
{
closed = 1;
nodes = (
"570 720 OFFCURVE",
"518 711 OFFCURVE",
"486 711 CURVE SMOOTH",
"179 711 LINE SMOOTH",
"71 711 OFFCURVE",
"18 630 OFFCURVE",
"-21 570 CURVE",
"4 544 LINE",
"39 586 OFFCURVE",
"79 608 OFFCURVE",
"115 608 CURVE SMOOTH",
"251 608 LINE",
"205 569 OFFCURVE",
"150 513 OFFCURVE",
"150 455 CURVE SMOOTH",
"150 29 LINE SMOOTH",
"150 -5 OFFCURVE",
"149 -46 OFFCURVE",
"128 -69 CURVE",
"151 -96 LINE",
"253 -41 OFFCURVE",
"306 31 OFFCURVE",
"306 117 CURVE SMOOTH",
"306 513 LINE SMOOTH",
"306 553 OFFCURVE",
"319 579 OFFCURVE",
"341 608 CURVE",
"397 608 LINE SMOOTH",
"519 608 OFFCURVE",
"588 665 OFFCURVE",
"625 725 CURVE",
"605 749 LINE"
);
},
{
closed = 1;
nodes = (
"460 384 OFFCURVE",
"406 375 OFFCURVE",
"360 375 CURVE SMOOTH",
"125 375 LINE",
"69 303 LINE",
"329 303 LINE SMOOTH",
"410 303 OFFCURVE",
"477 328 OFFCURVE",
"518 391 CURVE",
"498 414 LINE"
);
}
);
width = 590;
}
);
leftKerningGroup = H;
rightKerningGroup = F;
unicode = 0046;
},
{
color = 6;
glyphname = G;
lastChange = "2015-05-11 15:45:47 +0000";
layers = (
{
anchors = (
{
name = bottom;
position = "{320, 0}";
},
{
name = top;
position = "{370, 742}";
}
);
background = {
paths = (
{
closed = 0;
nodes = (
"347 467 LINE",
"355 451 LINE"
);
}
);
};
layerId = "E777F328-EA17-4AE7-9EBA-8002E537BA4F";
name = Light;
paths = (
{
closed = 1;
nodes = (
"213 725 OFFCURVE",
"44 525 OFFCURVE",
"44 257 CURVE SMOOTH",
"44 94 OFFCURVE",
"131 -8 OFFCURVE",
"271 -8 CURVE SMOOTH",
"370 -8 OFFCURVE",
"472 74 OFFCURVE",
"500 208 CURVE",
"506 208 LINE",
"506 -106 LINE",
"581 -71 LINE",
"581 330 LINE",
"498 299 LINE",
"494 183 OFFCURVE",
"401 69 OFFCURVE",
"304 69 CURVE SMOOTH",
"186 69 OFFCURVE",
"135 171 OFFCURVE",
"135 328 CURVE SMOOTH",
"135 525 OFFCURVE",
"239 671 OFFCURVE",
"385 671 CURVE SMOOTH",
"439 671 OFFCURVE",
"474 643 OFFCURVE",
"474 599 CURVE SMOOTH",
"474 544 OFFCURVE",
"418 485 OFFCURVE",
"347 467 CURVE",
"355 451 LINE",
"460 460 OFFCURVE",
"569 551 OFFCURVE",
"569 632 CURVE SMOOTH",
"569 689 OFFCURVE",
"513 725 OFFCURVE",
"436 725 CURVE SMOOTH"
);
}
);
width = 658;
},
{
anchors = (
{
name = bottom;
position = "{335, 0}";
},
{
name = top;
position = "{384, 742}";
}
);
layerId = "39185045-6A8C-415A-8312-7B8F11386A4C";
name = Regular;
paths = (
{
closed = 1;
nodes = (
"212 730 OFFCURVE",
"28 517 OFFCURVE",
"28 257 CURVE SMOOTH",
"28 103 OFFCURVE",
"117 -9 OFFCURVE",
"241 -9 CURVE SMOOTH",
"343 -9 OFFCURVE",
"419 48 OFFCURVE",
"457 154 CURVE",
"463 154 LINE",
"463 -112 LINE",
"619 -68 LINE",
"619 343 LINE",
"463 299 LINE",
"463 192 OFFCURVE",
"392 88 OFFCURVE",
"317 88 CURVE SMOOTH",
"246 88 OFFCURVE",
"198 183 OFFCURVE",
"198 329 CURVE SMOOTH",
"198 525 OFFCURVE",
"271 670 OFFCURVE",
"370 670 CURVE SMOOTH",
"406 670 OFFCURVE",
"430 641 OFFCURVE",
"430 600 CURVE SMOOTH",
"430 545 OFFCURVE",
"375 489 OFFCURVE",
"306 471 CURVE",
"324 437 LINE",
"457 441 OFFCURVE",
"588 540 OFFCURVE",
"588 634 CURVE SMOOTH",
"588 690 OFFCURVE",
"526 730 OFFCURVE",
"437 730 CURVE SMOOTH"
);
}
);
width = 668;
}
);
leftKerningGroup = O;
rightKerningGroup = G;
unicode = 0047;
},
{
color = 6;
glyphname = H;
lastChange = "2015-05-11 15:45:47 +0000";
layers = (
{
anchors = (
{
name = center;
position = "{332, 370}";
},
{
name = top;
position = "{351, 742}";
}
);
layerId = "E777F328-EA17-4AE7-9EBA-8002E537BA4F";
name = Light;
paths = (
{
closed = 1;
nodes = (
"563 19 LINE",
"482 -13 LINE",
"482 280 LINE",
"185 280 LINE",
"185 19 LINE",
"104 -13 LINE",
"104 280 LINE",
"23 280 LINE",
"50 335 LINE",
"104 335 LINE",
"104 694 LINE",
"185 728 LINE",
"185 335 LINE",
"482 335 LINE",
"482 694 LINE",
"563 728 LINE"
);
}
);
width = 657;
},
{
anchors = (
{
name = center;
position = "{332, 370}";
},
{
name = top;
position = "{351, 742}";
}
);
layerId = "39185045-6A8C-415A-8312-7B8F11386A4C";
name = Regular;
paths = (
{
closed = 1;
nodes = (
"594 25 LINE",
"437 -21 LINE",
"437 264 LINE",
"236 264 LINE",
"236 25 LINE",
"80 -21 LINE",
"80 264 LINE",
"0 264 LINE",
"39 340 LINE",
"80 340 LINE",
"80 692 LINE",
"236 737 LINE",
"236 340 LINE",
"437 340 LINE",
"437 692 LINE",
"594 737 LINE"
);
}
);
width = 662;
}
);
leftKerningGroup = H;
rightKerningGroup = H;
unicode = 0048;
},
{
color = 6;
glyphname = Hbar;
lastChange = "2015-05-11 15:45:47 +0000";
layers = (
{
components = (
{
name = H;
}
);
layerId = "E777F328-EA17-4AE7-9EBA-8002E537BA4F";
name = Light;
paths = (
{
closed = 1;
nodes = (
"29 416 LINE",
"54 471 LINE",
"615 471 LINE",
"591 416 LINE"
);
}
);
width = 657;
},
{
components = (
{
name = H;
}
);
layerId = "39185045-6A8C-415A-8312-7B8F11386A4C";
name = Regular;
paths = (
{
closed = 1;
nodes = (
"0 414 LINE",
"26 471 LINE",
"662 471 LINE",
"635 414 LINE"
);
}
);
width = 662;
}
);
leftKerningGroup = H;
rightKerningGroup = H;
unicode = 0126;
},
{
color = 6;
glyphname = I;
lastChange = "2015-05-11 15:45:47 +0000";
layers = (
{
anchors = (
{
name = ogonek;
position = "{246, 32}";
},
{
name = top;
position = "{138, 742}";
}
);
guideLines = (
{
position = "{-99, 394}";
}
);
layerId = "E777F328-EA17-4AE7-9EBA-8002E537BA4F";
name = Light;
paths = (
{
closed = 1;
nodes = (
"95 696 LINE",
"95 -13 LINE",
"176 18 LINE",
"176 728 LINE"
);
}
);
width = 289;
},
{
anchors = (
{
name = ogonek;
position = "{260, 19}";
},
{
name = top;
position = "{147, 742}";
}
);
layerId = "39185045-6A8C-415A-8312-7B8F11386A4C";
name = Regular;
paths = (
{
closed = 1;
nodes = (
"69 692 LINE",
"69 -21 LINE",
"226 25 LINE",
"226 737 LINE"
);
}
);
width = 294;
}
);
leftKerningGroup = H;
rightKerningGroup = H;
unicode = 0049;
},
{
color = 6;
glyphname = J;
lastChange = "2015-05-11 15:45:47 +0000";
layers = (
{
anchors = (
{
name = top;
position = "{226, 742}";
}
);
layerId = "E777F328-EA17-4AE7-9EBA-8002E537BA4F";
name = Light;
paths = (
{
closed = 1;
nodes = (
"231 697 LINE SMOOTH",
"158 697 OFFCURVE",
"79 655 OFFCURVE",
"9 572 CURVE",
"26 559 LINE",
"59 595 OFFCURVE",
"89 614 OFFCURVE",
"146 614 CURVE SMOOTH",
"264 613 LINE",
"208 573 OFFCURVE",
"166 506 OFFCURVE",
"166 443 CURVE SMOOTH",
"166 31 LINE SMOOTH",
"166 -19 OFFCURVE",
"146 -91 OFFCURVE",
"59 -91 CURVE SMOOTH",
"-13 -91 OFFCURVE",
"-57 -48 OFFCURVE",
"-81 -17 CURVE",
"-160 -79 LINE",
"-112 -110 OFFCURVE",
"-50 -131 OFFCURVE",
"-2 -131 CURVE SMOOTH",
"185 -131 OFFCURVE",
"246 -9 OFFCURVE",
"246 115 CURVE",
"246 500 LINE",
"246 545 OFFCURVE",
"262 579 OFFCURVE",
"299 621 CURVE",
"370 697 LINE"
);
}
);
width = 423;
},
{
anchors = (
{
name = top;
position = "{222, 742}";
}
);
layerId = "39185045-6A8C-415A-8312-7B8F11386A4C";
name = Regular;
paths = (
{
closed = 1;
nodes = (
"221 711 LINE",
"91 711 OFFCURVE",
"28 634 OFFCURVE",
"-18 572 CURVE",
"7 543 LINE",
"44 585 OFFCURVE",
"86 608 OFFCURVE",
"131 608 CURVE",
"234 608 LINE",
"168 564 OFFCURVE",
"110 513 OFFCURVE",
"110 436 CURVE",
"110 -7 LINE",
"110 -77 OFFCURVE",
"81 -104 OFFCURVE",
"37 -104 CURVE SMOOTH",
"-7 -104 OFFCURVE",
"-46 -51 OFFCURVE",
"-64 -7 CURVE",
"-174 -104 LINE",
"-128 -141 OFFCURVE",
"-77 -161 OFFCURVE",
"7 -161 CURVE SMOOTH",
"136 -161 OFFCURVE",
"267 -50 OFFCURVE",
"267 89 CURVE",
"267 500 LINE",
"267 558 OFFCURVE",
"289 592 OFFCURVE",
"347 668 CURVE",
"384 711 LINE"
);
}
);
width = 345;
}
);
leftKerningGroup = J;
rightKerningGroup = J;
unicode = 004A;
},
{
color = 6;
glyphname = K;
lastChange = "2015-05-11 15:45:47 +0000";
layers = (
{
anchors = (
{
name = bottom;
position = "{309, 0}";
},
{
name = top;
position = "{309, 742}";
}
);
background = {
paths = (
{
closed = 0;
nodes = (
"617 119 LINE",
"606 131 LINE"
);
}
);
};
layerId = "E777F328-EA17-4AE7-9EBA-8002E537BA4F";
name = Light;
paths = (
{
closed = 1;
nodes = (
"113 223 LINE",
"164 220 LINE",
"584 707 LINE",
"530 712 LINE"
);
},
{
closed = 1;
nodes = (
"94 694 LINE",
"94 -13 LINE",
"174 19 LINE",
"174 728 LINE"
);
},
{
closed = 1;
nodes = (
"217 315 LINE",
"313 141 LINE SMOOTH",
"372 36 OFFCURVE",
"392 -8 OFFCURVE",
"471 -8 CURVE SMOOTH",
"527 -8 OFFCURVE",
"580 41 OFFCURVE",
"617 121 CURVE",
"602 131 LINE",
"577 85 OFFCURVE",
"535 50 OFFCURVE",
"500 49 CURVE SMOOTH",
"463 47 OFFCURVE",
"447 64 OFFCURVE",
"419 115 CURVE SMOOTH",
"269 380 LINE"
);
}
);
width = 624;
},
{
anchors = (
{
name = bottom;
position = "{311, 0}";
},
{
name = top;
position = "{311, 742}";
}
);
layerId = "39185045-6A8C-415A-8312-7B8F11386A4C";
name = Regular;
paths = (
{
closed = 1;
nodes = (
"125 239 LINE",
"218 231 LINE",
"603 706 LINE",
"506 712 LINE"
);
},
{
closed = 1;
nodes = (
"69 692 LINE",
"69 -21 LINE",
"226 25 LINE",
"226 737 LINE"
);
},
{
closed = 1;
nodes = (
"169 273 LINE",
"317 75 LINE",
"364 11 OFFCURVE",
"397 -9 OFFCURVE",
"449 -9 CURVE SMOOTH",
"517 -9 OFFCURVE",
"590 37 OFFCURVE",
"640 113 CURVE",
"611 138 LINE",
"584 108 OFFCURVE",
"551 88 OFFCURVE",
"522 88 CURVE SMOOTH",
"501 88 OFFCURVE",
"483 99 OFFCURVE",
"468 119 CURVE",
"292 349 LINE"
);
}
);
width = 624;
}
);
leftKerningGroup = H;
rightKerningGroup = K;
unicode = 004B;
},
{
color = 6;
glyphname = L;
lastChange = "2015-05-11 15:45:47 +0000";
layers = (
{
anchors = (
{
name = bottom;
position = "{293, 0}";
},
{
name = top;
position = "{328, 742}";
},
{
name = topright;
position = "{548, 742}";
}
);
layerId = "E777F328-EA17-4AE7-9EBA-8002E537BA4F";
name = Light;
paths = (
{
closed = 1;
nodes = (
"211 730 OFFCURVE",
"86 586 OFFCURVE",
"86 401 CURVE SMOOTH",
"86 115 LINE SMOOTH",
"86 66 OFFCURVE",
"66 31 OFFCURVE",
"34 8 CURVE",
"54 -8 LINE",
"89 18 OFFCURVE",
"140 31 OFFCURVE",
"174 31 CURVE SMOOTH",
"284 31 OFFCURVE",
"374 0 OFFCURVE",
"464 -11 CURVE",
"535 136 LINE",
"520 145 LINE",
"494 113 OFFCURVE",
"451 83 OFFCURVE",
"405 83 CURVE SMOOTH",
"330 83 OFFCURVE",
"300 97 OFFCURVE",
"229 97 CURVE SMOOTH",
"187 97 OFFCURVE",
"160 80 OFFCURVE",
"131 57 CURVE",
"126 59 LINE",
"150 89 OFFCURVE",
"167 117 OFFCURVE",
"167 163 CURVE SMOOTH",
"167 477 LINE SMOOTH",
"167 572 OFFCURVE",
"212 675 OFFCURVE",
"338 675 CURVE",
"384 675 OFFCURVE",
"416 652 OFFCURVE",
"416 608 CURVE SMOOTH",
"416 553 OFFCURVE",
"356 489 OFFCURVE",
"285 471 CURVE",
"293 455 LINE",
"398 464 OFFCURVE",
"508 554 OFFCURVE",
"508 635 CURVE SMOOTH",
"508 692 OFFCURVE",
"462 730 OFFCURVE",
"392 730 CURVE SMOOTH"
);
}
);
width = 559;
},
{
anchors = (
{
name = bottom;
position = "{299, 0}";
},
{
name = top;
position = "{335, 742}";
},
{
name = topright;
position = "{559, 742}";
}
);
layerId = "39185045-6A8C-415A-8312-7B8F11386A4C";
name = Regular;
paths = (
{
closed = 1;
nodes = (
"200 730 OFFCURVE",
"71 586 OFFCURVE",
"71 401 CURVE SMOOTH",
"71 141 LINE SMOOTH",
"71 79 OFFCURVE",
"60 54 OFFCURVE",
"32 26 CURVE",
"69 -9 LINE",
"106 15 OFFCURVE",
"140 28 OFFCURVE",
"192 28 CURVE SMOOTH",
"302 28 OFFCURVE",
"356 -2 OFFCURVE",
"486 -9 CURVE",
"574 186 LINE",
"544 209 LINE",
"515 167 OFFCURVE",
"485 138 OFFCURVE",
"431 138 CURVE SMOOTH",
"386 138 OFFCURVE",
"351 153 OFFCURVE",
"296 153 CURVE SMOOTH",
"260 153 OFFCURVE",
"227 145 OFFCURVE",
"203 134 CURVE",
"197 140 LINE",
"218 163 OFFCURVE",
"229 183 OFFCURVE",
"229 221 CURVE SMOOTH",
"229 515 LINE SMOOTH",
"229 582 OFFCURVE",
"268 668 OFFCURVE",
"341 668 CURVE SMOOTH",
"383 668 OFFCURVE",
"401 639 OFFCURVE",
"401 599 CURVE SMOOTH",
"401 537 OFFCURVE",
"372 502 OFFCURVE",
"302 460 CURVE",
"315 425 LINE",
"451 463 OFFCURVE",
"549 527 OFFCURVE",
"549 623 CURVE SMOOTH",
"549 702 OFFCURVE",
"477 730 OFFCURVE",
"405 730 CURVE SMOOTH"
);
}
);
width = 569;
}
);
leftKerningGroup = H;
rightKerningGroup = L;
unicode = 004C;
},
{
color = 6;
glyphname = Lslash;
lastChange = "2015-05-11 15:45:47 +0000";
layers = (
{
components = (
{
name = L;
}
);
layerId = "E777F328-EA17-4AE7-9EBA-8002E537BA4F";
name = Light;
paths = (
{
closed = 1;
nodes = (
"9 273 LINE",
"9 218 LINE",
"268 319 LINE",
"268 372 LINE"
);
}
);
width = 559;
},
{
components = (
{
name = L;
}
);
layerId = "39185045-6A8C-415A-8312-7B8F11386A4C";
name = Regular;
paths = (
{
closed = 1;
nodes = (
"7 278 LINE",
"7 217 LINE",
"292 322 LINE",
"292 384 LINE"
);
}
);
width = 569;
}
);
leftKerningGroup = H;
rightKerningGroup = L;
unicode = 0141;
},
{
color = 6;
glyphname = M;
lastChange = "2015-05-11 15:45:47 +0000";
layers = (
{
layerId = "E777F328-EA17-4AE7-9EBA-8002E537BA4F";
name = Light;
paths = (
{
closed = 1;
nodes = (
"99 -13 LINE",
"179 18 LINE",
"179 263 LINE SMOOTH",
"179 517 OFFCURVE",
"308 652 OFFCURVE",
"365 652 CURVE SMOOTH",
"377 652 OFFCURVE",
"392 644 OFFCURVE",
"392 617 CURVE",
"392 -13 LINE",
"471 18 LINE",
"471 263 LINE SMOOTH",
"471 517 OFFCURVE",
"599 652 OFFCURVE",
"655 652 CURVE SMOOTH",
"670 652 OFFCURVE",
"685 644 OFFCURVE",
"685 617 CURVE",
"685 115 LINE",
"685 36 OFFCURVE",
"728 -4 OFFCURVE",
"782 -4 CURVE SMOOTH",
"832 -4 OFFCURVE",
"871 33 OFFCURVE",
"885 68 CURVE",
"873 79 LINE",
"860 59 OFFCURVE",
"834 42 OFFCURVE",
"813 42 CURVE SMOOTH",
"782 42 OFFCURVE",
"764 69 OFFCURVE",
"764 109 CURVE",
"764 643 LINE",
"764 694 OFFCURVE",
"745 728 OFFCURVE",
"701 728 CURVE SMOOTH",
"630 728 OFFCURVE",
"519 635 OFFCURVE",
"472 449 CURVE",
"472 643 LINE",
"472 692 OFFCURVE",
"453 728 OFFCURVE",
"408 728 CURVE SMOOTH",
"338 728 OFFCURVE",
"226 635 OFFCURVE",
"179 446 CURVE",
"179 728 LINE",
"99 694 LINE"
);
}
);
width = 881;
},
{
layerId = "39185045-6A8C-415A-8312-7B8F11386A4C";
name = Regular;
paths = (
{
closed = 1;
nodes = (
"69 -21 LINE",
"226 26 LINE",
"226 413 LINE SMOOTH",
"226 475 OFFCURVE",
"260 670 OFFCURVE",
"325 670 CURVE SMOOTH",
"370 670 OFFCURVE",
"370 606 OFFCURVE",
"370 559 CURVE SMOOTH",
"370 -21 LINE",
"527 26 LINE",
"527 413 LINE SMOOTH",
"527 475 OFFCURVE",
"561 670 OFFCURVE",
"625 670 CURVE SMOOTH",
"671 670 OFFCURVE",
"671 606 OFFCURVE",
"671 559 CURVE SMOOTH",
"671 134 LINE SMOOTH",
"671 33 OFFCURVE",
"714 -9 OFFCURVE",
"792 -9 CURVE SMOOTH",
"871 -9 OFFCURVE",
"909 23 OFFCURVE",
"941 66 CURVE",
"914 92 LINE",
"897 74 OFFCURVE",
"879 60 OFFCURVE",
"857 60 CURVE SMOOTH",
"837 60 OFFCURVE",
"829 80 OFFCURVE",
"829 96 CURVE SMOOTH",
"829 584 LINE SMOOTH",
"829 662 OFFCURVE",
"785 730 OFFCURVE",
"690 730 CURVE SMOOTH",
"613 730 OFFCURVE",
"554 686 OFFCURVE",
"526 577 CURVE",
"526 585 LINE",
"523 666 OFFCURVE",
"482 730 OFFCURVE",
"391 730 CURVE SMOOTH",
"313 730 OFFCURVE",
"253 686 OFFCURVE",
"226 582 CURVE",
"226 738 LINE",
"69 692 LINE"
);
}
);
width = 913;
}
);
leftKerningGroup = M;
rightKerningGroup = M;
rightMetricsKey = "=N";
unicode = 004D;
},
{
color = 6;
glyphname = N;
lastChange = "2015-05-11 15:45:47 +0000";
layers = (
{
anchors = (
{
name = bottom;
position = "{313, 0}";
},
{
name = top;
position = "{306, 742}";
}
);
layerId = "E777F328-EA17-4AE7-9EBA-8002E537BA4F";
name = Light;
paths = (
{
closed = 1;
nodes = (
"96 -11 LINE",
"176 23 LINE",
"176 346 LINE SMOOTH",
"176 443 OFFCURVE",
"220 678 OFFCURVE",
"353 678 CURVE SMOOTH",
"427 678 OFFCURVE",
"428 594 OFFCURVE",
"428 545 CURVE SMOOTH",
"428 115 LINE",
"428 36 OFFCURVE",
"472 -4 OFFCURVE",
"526 -4 CURVE SMOOTH",
"575 -4 OFFCURVE",
"615 33 OFFCURVE",
"628 68 CURVE",
"617 79 LINE",
"605 59 OFFCURVE",
"579 42 OFFCURVE",
"556 42 CURVE SMOOTH",
"526 42 OFFCURVE",
"508 69 OFFCURVE",
"508 109 CURVE",
"508 588 LINE SMOOTH",
"508 662 OFFCURVE",
"471 730 OFFCURVE",
"389 730 CURVE SMOOTH",
"260 730 OFFCURVE",
"198 625 OFFCURVE",
"176 528 CURVE",
"176 730 LINE",
"96 697 LINE"
);
}
);
width = 626;
},
{
anchors = (
{
name = bottom;
position = "{319, 0}";
},
{
name = top;
position = "{334, 742}";
}
);
layerId = "39185045-6A8C-415A-8312-7B8F11386A4C";
name = Regular;
paths = (
{
closed = 1;
nodes = (
"69 -21 LINE",
"226 26 LINE",
"226 413 LINE SMOOTH",
"226 475 OFFCURVE",
"268 670 OFFCURVE",
"351 670 CURVE SMOOTH",
"394 670 OFFCURVE",
"395 606 OFFCURVE",
"395 559 CURVE SMOOTH",
"395 134 LINE SMOOTH",
"395 33 OFFCURVE",
"437 -9 OFFCURVE",
"517 -9 CURVE SMOOTH",
"597 -9 OFFCURVE",
"632 23 OFFCURVE",
"665 66 CURVE",
"635 92 LINE",
"621 74 OFFCURVE",
"602 60 OFFCURVE",
"580 60 CURVE SMOOTH",
"559 60 OFFCURVE",
"553 80 OFFCURVE",
"553 96 CURVE SMOOTH",
"553 584 LINE SMOOTH",
"553 662 OFFCURVE",
"511 730 OFFCURVE",
"416 730 CURVE SMOOTH",
"326 730 OFFCURVE",
"268 686 OFFCURVE",
"226 582 CURVE",
"226 738 LINE",
"69 692 LINE"
);
}
);
width = 636;
}
);
leftKerningGroup = H;
rightKerningGroup = H;
unicode = 004E;
},
{
color = 6;
glyphname = Eng;
lastChange = "2015-05-11 15:45:47 +0000";
layers = (
{
layerId = "E777F328-EA17-4AE7-9EBA-8002E537BA4F";
name = Light;
paths = (
{
closed = 1;
nodes = (
"106 697 LINE",
"106 -11 LINE",
"186 23 LINE",
"186 347 LINE SMOOTH",
"186 443 OFFCURVE",
"226 678 OFFCURVE",
"353 678 CURVE SMOOTH",
"421 678 OFFCURVE",
"423 595 OFFCURVE",
"423 545 CURVE SMOOTH",
"423 -18 LINE",
"423 -60 OFFCURVE",
"411 -149 OFFCURVE",
"336 -149 CURVE SMOOTH",
"288 -149 OFFCURVE",
"236 -109 OFFCURVE",
"214 -74 CURVE",
"141 -140 LINE",
"185 -172 OFFCURVE",
"243 -192 OFFCURVE",
"285 -192 CURVE SMOOTH",
"437 -192 OFFCURVE",
"502 -71 OFFCURVE",
"502 55 CURVE",
"502 588 LINE SMOOTH",
"502 662 OFFCURVE",
"468 730 OFFCURVE",
"389 730 CURVE SMOOTH",
"267 730 OFFCURVE",
"207 625 OFFCURVE",
"186 530 CURVE",
"186 730 LINE"
);
}
);
width = 559;
},
{
layerId = "39185045-6A8C-415A-8312-7B8F11386A4C";
name = Regular;
paths = (
{
closed = 1;
nodes = (
"69 692 LINE",
"69 -21 LINE",
"226 26 LINE",
"226 413 LINE SMOOTH",
"226 475 OFFCURVE",
"268 670 OFFCURVE",
"351 670 CURVE SMOOTH",
"395 670 OFFCURVE",
"397 606 OFFCURVE",
"397 559 CURVE SMOOTH",
"397 -89 LINE",
"397 -160 OFFCURVE",
"368 -186 OFFCURVE",
"324 -186 CURVE SMOOTH",
"280 -186 OFFCURVE",
"241 -134 OFFCURVE",
"222 -91 CURVE",
"113 -186 LINE",
"158 -225 OFFCURVE",
"209 -243 OFFCURVE",
"293 -243 CURVE SMOOTH",
"421 -243 OFFCURVE",
"554 -132 OFFCURVE",
"554 7 CURVE",
"554 584 LINE SMOOTH",
"554 662 OFFCURVE",
"511 730 OFFCURVE",
"416 730 CURVE SMOOTH",
"326 730 OFFCURVE",
"268 686 OFFCURVE",
"226 582 CURVE",
"226 738 LINE"
);
}
);
width = 620;
}
);
leftKerningGroup = Eng;
rightKerningGroup = Eng;
unicode = 014A;
},
{
color = 6;
glyphname = O;
lastChange = "2015-05-11 15:45:47 +0000";
layers = (
{
anchors = (
{
name = top;
position = "{370, 742}";
}
);
layerId = "E777F328-EA17-4AE7-9EBA-8002E537BA4F";
name = Light;
paths = (
{
closed = 1;
nodes = (
"141 722 OFFCURVE",
"48 527 OFFCURVE",
"48 349 CURVE SMOOTH",
"48 169 OFFCURVE",
"169 -19 OFFCURVE",
"368 -19 CURVE SMOOTH",
"590 -19 OFFCURVE",
"683 176 OFFCURVE",
"683 349 CURVE SMOOTH",
"683 535 OFFCURVE",
"563 722 OFFCURVE",
"368 722 CURVE SMOOTH"
);
},
{
closed = 1;
nodes = (
"528 666 OFFCURVE",
"603 437 OFFCURVE",
"603 284 CURVE SMOOTH",
"603 185 OFFCURVE",
"553 41 OFFCURVE",
"411 41 CURVE SMOOTH",
"203 41 OFFCURVE",
"126 267 OFFCURVE",
"126 425 CURVE SMOOTH",
"126 525 OFFCURVE",
"177 666 OFFCURVE",
"319 666 CURVE SMOOTH"
);
}
);
width = 726;
},
{
anchors = (
{
name = top;
position = "{368, 742}";
}
);
layerId = "39185045-6A8C-415A-8312-7B8F11386A4C";
name = Regular;
paths = (
{
closed = 1;
nodes = (
"158 730 OFFCURVE",
"28 558 OFFCURVE",
"28 361 CURVE SMOOTH",
"28 177 OFFCURVE",
"158 -9 OFFCURVE",
"368 -9 CURVE SMOOTH",
"579 -9 OFFCURVE",
"707 163 OFFCURVE",
"707 361 CURVE SMOOTH",
"707 543 OFFCURVE",
"579 730 OFFCURVE",
"368 730 CURVE SMOOTH"
);
},
{
closed = 1;
nodes = (
"491 675 OFFCURVE",
"551 460 OFFCURVE",
"551 306 CURVE SMOOTH",
"551 193 OFFCURVE",
"513 50 OFFCURVE",
"398 50 CURVE SMOOTH",
"243 50 OFFCURVE",
"185 264 OFFCURVE",
"185 419 CURVE SMOOTH",
"185 533 OFFCURVE",
"222 675 OFFCURVE",
"339 675 CURVE SMOOTH"
);
}
);
width = 735;
}
);
leftKerningGroup = O;
rightKerningGroup = O;
unicode = 004F;
},
{
color = 6;
glyphname = OE;
lastChange = "2015-05-11 15:45:47 +0000";
layers = (
{
anchors = (
{
name = top;
position = "{501, 742}";
}
);
background = {
paths = (
{
closed = 1;
nodes = (
"699 719 OFFCURVE",
"559 632 OFFCURVE",
"559 513 CURVE SMOOTH",
"559 453 OFFCURVE",
"595 394 OFFCURVE",
"655 384 CURVE",
"572 345 OFFCURVE",
"482 268 OFFCURVE",
"482 168 CURVE SMOOTH",
"482 64 OFFCURVE",
"579 -5 OFFCURVE",
"678 -5 CURVE SMOOTH",
"806 -5 OFFCURVE",
"914 88 OFFCURVE",
"974 194 CURVE",
"956 211 LINE",
"919 141 OFFCURVE",
"793 74 OFFCURVE",
"716 74 CURVE SMOOTH",
"641 74 OFFCURVE",
"598 131 OFFCURVE",
"598 202 CURVE SMOOTH",
"598 326 OFFCURVE",
"714 398 OFFCURVE",
"821 432 CURVE",
"814 453 LINE",
"797 446 OFFCURVE",
"780 443 OFFCURVE",
"762 443 CURVE SMOOTH",
"697 443 OFFCURVE",
"634 494 OFFCURVE",
"634 563 CURVE SMOOTH",
"634 626 OFFCURVE",
"696 671 OFFCURVE",
"758 671 CURVE SMOOTH",
"806 671 OFFCURVE",
"842 641 OFFCURVE",
"869 603 CURVE",
"941 655 LINE",
"908 697 OFFCURVE",
"862 719 OFFCURVE",
"808 719 CURVE SMOOTH"
);
}
);
};
layerId = "E777F328-EA17-4AE7-9EBA-8002E537BA4F";
name = Light;
paths = (
{
closed = 1;
nodes = (
"141 722 OFFCURVE",
"48 527 OFFCURVE",
"48 349 CURVE SMOOTH",
"48 169 OFFCURVE",
"169 -19 OFFCURVE",
"368 -19 CURVE SMOOTH",
"438 -19 OFFCURVE",
"496 0 OFFCURVE",
"542 33 CURVE",
"574 5 OFFCURVE",
"620 -11 OFFCURVE",
"671 -11 CURVE SMOOTH",
"804 -11 OFFCURVE",
"917 76 OFFCURVE",
"977 177 CURVE",
"958 194 LINE",
"921 132 OFFCURVE",
"823 64 OFFCURVE",
"715 64 CURVE SMOOTH",
"626 64 OFFCURVE",
"577 125 OFFCURVE",
"577 203 CURVE SMOOTH",
"577 320 OFFCURVE",
"714 394 OFFCURVE",
"803 421 CURVE",
"795 447 LINE",
"783 441 OFFCURVE",
"769 441 OFFCURVE",
"752 441 CURVE SMOOTH",
"685 441 OFFCURVE",
"608 494 OFFCURVE",
"608 558 CURVE SMOOTH",
"608 625 OFFCURVE",
"681 670 OFFCURVE",
"752 670 CURVE SMOOTH",
"808 670 OFFCURVE",
"847 635 OFFCURVE",
"878 609 CURVE",
"928 657 LINE",
"896 694 OFFCURVE",
"858 714 OFFCURVE",
"809 714 CURVE SMOOTH",
"741 714 OFFCURVE",
"639 684 OFFCURVE",
"590 615 CURVE",
"538 680 OFFCURVE",
"462 722 OFFCURVE",
"368 722 CURVE SMOOTH"
);
},
{
closed = 1;
nodes = (
"453 666 OFFCURVE",
"530 577 OFFCURVE",
"568 478 CURVE",
"583 437 OFFCURVE",
"620 406 OFFCURVE",
"671 394 CURVE",
"579 353 OFFCURVE",
"481 273 OFFCURVE",
"481 168 CURVE SMOOTH",
"481 131 OFFCURVE",
"491 97 OFFCURVE",
"508 69 CURVE",
"482 52 OFFCURVE",
"450 41 OFFCURVE",
"411 41 CURVE SMOOTH",
"203 41 OFFCURVE",
"126 267 OFFCURVE",
"126 425 CURVE",
"126 525 OFFCURVE",
"177 666 OFFCURVE",
"319 666 CURVE SMOOTH"
);
}
);
width = 987;
},
{
anchors = (
{
name = top;
position = "{483, 742}";
}
);
layerId = "39185045-6A8C-415A-8312-7B8F11386A4C";
name = Regular;
paths = (
{
closed = 1;
nodes = (
"158 730 OFFCURVE",
"28 558 OFFCURVE",
"28 361 CURVE SMOOTH",
"28 177 OFFCURVE",
"158 -9 OFFCURVE",
"368 -9 CURVE SMOOTH",
"424 -9 OFFCURVE",
"474 3 OFFCURVE",
"518 24 CURVE",
"553 3 OFFCURVE",
"599 -11 OFFCURVE",
"658 -11 CURVE SMOOTH",
"798 -11 OFFCURVE",
"914 88 OFFCURVE",
"975 196 CURVE",
"936 229 LINE",
"896 154 OFFCURVE",
"814 77 OFFCURVE",
"716 77 CURVE SMOOTH",
"652 77 OFFCURVE",
"614 132 OFFCURVE",
"614 203 CURVE SMOOTH",
"614 325 OFFCURVE",
"728 394 OFFCURVE",
"834 427 CURVE",
"824 464 LINE",
"800 455 OFFCURVE",
"777 451 OFFCURVE",
"756 451 CURVE SMOOTH",
"692 451 OFFCURVE",
"651 492 OFFCURVE",
"651 570 CURVE SMOOTH",
"651 634 OFFCURVE",
"694 678 OFFCURVE",
"740 678 CURVE SMOOTH",
"777 678 OFFCURVE",
"814 653 OFFCURVE",
"839 590 CURVE",
"954 652 LINE",
"915 702 OFFCURVE",
"850 730 OFFCURVE",
"782 730 CURVE SMOOTH",
"701 730 OFFCURVE",
"626 701 OFFCURVE",
"579 653 CURVE",
"523 700 OFFCURVE",
"452 730 OFFCURVE",
"368 730 CURVE SMOOTH"
);
},
{
closed = 1;
nodes = (
"437 675 OFFCURVE",
"498 585 OFFCURVE",
"527 481 CURVE SMOOTH",
"540 437 OFFCURVE",
"572 397 OFFCURVE",
"617 383 CURVE",
"530 341 OFFCURVE",
"446 267 OFFCURVE",
"446 169 CURVE SMOOTH",
"446 133 OFFCURVE",
"453 100 OFFCURVE",
"470 74 CURVE",
"451 59 OFFCURVE",
"427 50 OFFCURVE",
"398 50 CURVE SMOOTH",
"243 50 OFFCURVE",
"185 264 OFFCURVE",
"185 419 CURVE",
"185 533 OFFCURVE",
"222 675 OFFCURVE",
"339 675 CURVE SMOOTH"
);
}
);
width = 966;
}
);
leftKerningGroup = O;
leftMetricsKey = "=O";
rightKerningGroup = E;
rightMetricsKey = "=E";
unicode = 0152;
},
{
color = 6;
glyphname = P;
lastChange = "2015-05-11 15:45:47 +0000";
layers = (
{
background = {
paths = (
{
closed = 0;
nodes = (
"49 535 LINE",
"32 553 LINE"
);
}
);
};
layerId = "E777F328-EA17-4AE7-9EBA-8002E537BA4F";
name = Light;
paths = (
{
closed = 1;
nodes = (
"268 709 OFFCURVE",
"126 641 OFFCURVE",
"32 553 CURVE",
"49 535 LINE",
"124 605 OFFCURVE",
"238 652 OFFCURVE",
"329 652 CURVE SMOOTH",
"456 652 OFFCURVE",
"513 580 OFFCURVE",
"513 485 CURVE SMOOTH",
"513 339 OFFCURVE",
"368 238 OFFCURVE",
"237 225 CURVE",
"231 198 LINE",
"231 197 OFFCURVE",
"236 197 OFFCURVE",
"239 197 CURVE SMOOTH",
"405 197 OFFCURVE",
"599 334 OFFCURVE",
"599 504 CURVE SMOOTH",
"599 652 OFFCURVE",
"498 709 OFFCURVE",
"385 709 CURVE"
);
},
{
closed = 1;
nodes = (
"96 528 LINE",
"96 -11 LINE",
"176 21 LINE",
"176 563 LINE"
);
}
);
width = 618;
},
{
layerId = "39185045-6A8C-415A-8312-7B8F11386A4C";
name = Regular;
paths = (
{
closed = 1;
nodes = (
"223 742 OFFCURVE",
"101 666 OFFCURVE",
"11 586 CURVE",
"44 551 LINE",
"120 615 OFFCURVE",
"218 671 OFFCURVE",
"319 671 CURVE SMOOTH",
"428 671 OFFCURVE",
"474 608 OFFCURVE",
"474 517 CURVE SMOOTH",
"474 372 OFFCURVE",
"334 281 OFFCURVE",
"203 260 CURVE",
"198 231 LINE",
"214 229 OFFCURVE",
"222 229 OFFCURVE",
"227 229 CURVE SMOOTH",
"431 229 OFFCURVE",
"630 365 OFFCURVE",
"630 536 CURVE SMOOTH",
"630 655 OFFCURVE",
"545 742 OFFCURVE",
"400 742 CURVE SMOOTH"
);
},
{
closed = 1;
nodes = (
"80 561 LINE",
"80 -23 LINE",
"230 25 LINE",
"230 606 LINE"
);
}
);
width = 630;
}
);
leftKerningGroup = H;
rightKerningGroup = P;
unicode = 0050;
},
{
color = 6;
glyphname = Thorn;
lastChange = "2015-05-11 15:45:47 +0000";
layers = (
{
layerId = "E777F328-EA17-4AE7-9EBA-8002E537BA4F";
name = Light;
paths = (
{
closed = 1;
nodes = (
"271 625 OFFCURVE",
"131 558 OFFCURVE",
"34 468 CURVE",
"51 451 LINE",
"126 520 OFFCURVE",
"241 568 OFFCURVE",
"332 568 CURVE SMOOTH",
"458 568 OFFCURVE",
"517 496 OFFCURVE",
"517 401 CURVE SMOOTH",
"517 255 OFFCURVE",
"370 154 OFFCURVE",
"239 140 CURVE",
"234 114 LINE",
"234 113 OFFCURVE",
"238 113 OFFCURVE",
"242 113 CURVE SMOOTH",
"408 113 OFFCURVE",
"602 249 OFFCURVE",
"602 420 CURVE SMOOTH",
"602 568 OFFCURVE",
"501 625 OFFCURVE",
"389 625 CURVE"
);
},
{
closed = 1;
nodes = (
"95 694 LINE",
"95 -42 LINE",
"176 -9 LINE",
"176 728 LINE"
);
}
);
width = 618;
},
{
layerId = "39185045-6A8C-415A-8312-7B8F11386A4C";
name = Regular;
paths = (
{
closed = 1;
nodes = (
"213 626 OFFCURVE",
"91 553 OFFCURVE",
"2 472 CURVE",
"33 437 LINE",
"110 501 OFFCURVE",
"208 556 OFFCURVE",
"309 556 CURVE SMOOTH",
"419 556 OFFCURVE",
"464 494 OFFCURVE",
"464 403 CURVE SMOOTH",
"464 257 OFFCURVE",
"322 167 OFFCURVE",
"193 146 CURVE",
"187 117 LINE",
"203 114 OFFCURVE",
"211 114 OFFCURVE",
"217 114 CURVE SMOOTH",
"421 114 OFFCURVE",
"621 251 OFFCURVE",
"621 421 CURVE SMOOTH",
"621 542 OFFCURVE",
"536 626 OFFCURVE",
"391 626 CURVE SMOOTH"
);
},
{
closed = 1;
nodes = (
"69 692 LINE",
"69 -21 LINE",
"226 25 LINE",
"226 737 LINE"
);
}
);
width = 621;
}
);
leftKerningGroup = H;
rightKerningGroup = Thorn;
unicode = 00DE;
},
{
color = 6;
glyphname = Q;
lastChange = "2015-05-11 15:45:47 +0000";
layers = (
{
components = (
{
name = O;
}
);
layerId = "E777F328-EA17-4AE7-9EBA-8002E537BA4F";
name = Light;
paths = (
{
closed = 1;
nodes = (
"249 203 OFFCURVE",
"217 179 OFFCURVE",
"194 150 CURVE",
"212 131 LINE",
"226 140 OFFCURVE",
"242 146 OFFCURVE",
"267 146 CURVE SMOOTH",
"304 146 OFFCURVE",
"339 110 OFFCURVE",
"402 14 CURVE SMOOTH",
"456 -68 OFFCURVE",
"501 -101 OFFCURVE",
"558 -101 CURVE SMOOTH",
"599 -101 OFFCURVE",
"632 -77 OFFCURVE",
"654 -49 CURVE",
"635 -29 LINE",
"623 -37 OFFCURVE",
"606 -44 OFFCURVE",
"581 -44 CURVE SMOOTH",
"544 -44 OFFCURVE",
"509 -8 OFFCURVE",
"446 86 CURVE SMOOTH",
"392 169 OFFCURVE",
"347 203 OFFCURVE",
"291 203 CURVE SMOOTH"
);
}
);
width = 726;
},
{
components = (
{
name = O;
}
);
layerId = "39185045-6A8C-415A-8312-7B8F11386A4C";
name = Regular;
paths = (
{
closed = 1;
nodes = (
"262 260 OFFCURVE",
"220 214 OFFCURVE",
"200 181 CURVE",
"220 160 LINE",
"229 169 OFFCURVE",
"242 179 OFFCURVE",
"262 179 CURVE SMOOTH",
"308 179 OFFCURVE",
"340 146 OFFCURVE",
"416 42 CURVE SMOOTH",
"502 -76 OFFCURVE",
"538 -99 OFFCURVE",
"619 -99 CURVE SMOOTH",
"686 -99 OFFCURVE",
"727 -55 OFFCURVE",
"747 -21 CURVE",
"727 0 LINE",
"719 -8 OFFCURVE",
"706 -18 OFFCURVE",
"685 -18 CURVE SMOOTH",
"639 -18 OFFCURVE",
"608 15 OFFCURVE",
"532 119 CURVE SMOOTH",
"446 236 OFFCURVE",
"409 260 OFFCURVE",
"329 260 CURVE SMOOTH"
);
}
);
width = 735;
}
);
leftKerningGroup = O;
rightKerningGroup = O;
unicode = 0051;
},
{
color = 6;
glyphname = R;
lastChange = "2015-05-11 15:45:47 +0000";
layers = (
{
anchors = (
{
name = bottom;
position = "{324, 0}";
},
{
name = top;
position = "{339, 742}";
}
);
background = {
paths = (
{
closed = 1;
nodes = (
"370 94 OFFCURVE",
"389 112 OFFCURVE",
"389 134 CURVE SMOOTH",
"389 156 OFFCURVE",
"370 174 OFFCURVE",
"348 174 CURVE SMOOTH",
"326 174 OFFCURVE",
"309 156 OFFCURVE",
"309 134 CURVE SMOOTH",
"309 112 OFFCURVE",
"326 94 OFFCURVE",
"348 94 CURVE SMOOTH"
);
}
);
};
layerId = "E777F328-EA17-4AE7-9EBA-8002E537BA4F";
name = Light;
paths = (
{
closed = 1;
nodes = (
"268 709 OFFCURVE",
"126 641 OFFCURVE",
"32 553 CURVE",
"49 535 LINE",
"124 605 OFFCURVE",
"238 652 OFFCURVE",
"329 652 CURVE SMOOTH",
"456 652 OFFCURVE",
"513 580 OFFCURVE",
"513 485 CURVE SMOOTH",
"513 339 OFFCURVE",
"379 238 OFFCURVE",
"248 225 CURVE",
"242 198 LINE",
"364 53 LINE SMOOTH",
"400 9 OFFCURVE",
"431 -17 OFFCURVE",
"468 -17 CURVE SMOOTH",
"542 -17 OFFCURVE",
"592 69 OFFCURVE",
"621 104 CURVE",
"608 115 LINE",
"585 92 OFFCURVE",
"544 51 OFFCURVE",
"506 51 CURVE SMOOTH",
"480 51 OFFCURVE",
"462 64 OFFCURVE",
"447 77 CURVE",
"336 211 LINE",
"471 248 OFFCURVE",
"599 364 OFFCURVE",
"599 504 CURVE SMOOTH",
"599 652 OFFCURVE",
"498 709 OFFCURVE",
"385 709 CURVE SMOOTH"
);
},
{
closed = 1;
nodes = (
"92 530 LINE",
"92 -13 LINE",
"172 21 LINE",
"172 563 LINE"
);
}
);
width = 649;
},
{
anchors = (
{
name = bottom;
position = "{320, 0}";
},
{
name = top;
position = "{336, 742}";
}
);
layerId = "39185045-6A8C-415A-8312-7B8F11386A4C";
name = Regular;
paths = (
{
closed = 1;
nodes = (
"223 742 OFFCURVE",
"101 666 OFFCURVE",
"11 586 CURVE",
"44 551 LINE",
"120 615 OFFCURVE",
"218 671 OFFCURVE",
"319 671 CURVE SMOOTH",
"428 671 OFFCURVE",
"474 608 OFFCURVE",
"474 517 CURVE SMOOTH",
"474 372 OFFCURVE",
"334 281 OFFCURVE",
"203 260 CURVE",
"198 231 LINE",
"311 75 LINE SMOOTH",
"365 0 OFFCURVE",
"401 -9 OFFCURVE",
"446 -9 CURVE SMOOTH",
"513 -9 OFFCURVE",
"586 40 OFFCURVE",
"635 113 CURVE",
"608 138 LINE",
"585 114 OFFCURVE",
"551 88 OFFCURVE",
"518 88 CURVE SMOOTH",
"498 88 OFFCURVE",
"480 97 OFFCURVE",
"464 119 CURVE SMOOTH",
"364 249 LINE",
"513 292 OFFCURVE",
"630 403 OFFCURVE",
"630 536 CURVE SMOOTH",
"630 655 OFFCURVE",
"545 742 OFFCURVE",
"400 742 CURVE SMOOTH"
);
},
{
closed = 1;
nodes = (
"80 561 LINE",
"80 -23 LINE",
"230 25 LINE",
"230 606 LINE"
);
}
);
width = 640;
}
);
leftKerningGroup = H;
rightKerningGroup = R;
unicode = 0052;
},
{
color = 6;
glyphname = S;
lastChange = "2015-05-11 15:45:47 +0000";
layers = (
{
anchors = (
{
name = bottom;
position = "{297, 0}";
},
{
name = top;
position = "{308, 742}";
}
);
layerId = "E777F328-EA17-4AE7-9EBA-8002E537BA4F";
name = Light;
paths = (
{
closed = 1;
nodes = (
"154 728 OFFCURVE",
"46 630 OFFCURVE",
"46 500 CURVE SMOOTH",
"46 257 OFFCURVE",
"426 288 OFFCURVE",
"426 120 CURVE SMOOTH",
"426 64 OFFCURVE",
"374 34 OFFCURVE",
"317 34 CURVE SMOOTH",
"280 34 OFFCURVE",
"193 48 OFFCURVE",
"138 177 CURVE",
"64 94 LINE",
"115 15 OFFCURVE",
"205 -13 OFFCURVE",
"285 -13 CURVE SMOOTH",
"395 -13 OFFCURVE",
"482 46 OFFCURVE",
"481 167 CURVE SMOOTH",
"481 366 OFFCURVE",
"110 313 OFFCURVE",
"110 544 CURVE SMOOTH",
"110 620 OFFCURVE",
"157 678 OFFCURVE",
"253 678 CURVE SMOOTH",
"351 678 OFFCURVE",
"416 603 OFFCURVE",
"446 520 CURVE",
"520 611 LINE",
"465 686 OFFCURVE",
"381 728 OFFCURVE",
"297 728 CURVE SMOOTH"
);
}
);
width = 548;
},
{
anchors = (
{
name = bottom;
position = "{303, 0}";
},
{
name = top;
position = "{313, 742}";
}
);
layerId = "39185045-6A8C-415A-8312-7B8F11386A4C";
name = Regular;
paths = (
{
closed = 1;
nodes = (
"168 728 OFFCURVE",
"42 634 OFFCURVE",
"42 500 CURVE SMOOTH",
"42 266 OFFCURVE",
"395 273 OFFCURVE",
"395 121 CURVE SMOOTH",
"395 86 OFFCURVE",
"370 39 OFFCURVE",
"315 39 CURVE SMOOTH",
"214 39 OFFCURVE",
"166 140 OFFCURVE",
"143 208 CURVE",
"48 97 LINE",
"94 37 OFFCURVE",
"187 -9 OFFCURVE",
"285 -9 CURVE SMOOTH",
"428 -9 OFFCURVE",
"530 59 OFFCURVE",
"530 181 CURVE SMOOTH",
"530 405 OFFCURVE",
"185 360 OFFCURVE",
"185 547 CURVE SMOOTH",
"185 615 OFFCURVE",
"234 670 OFFCURVE",
"297 670 CURVE SMOOTH",
"389 670 OFFCURVE",
"451 586 OFFCURVE",
"482 491 CURVE",
"581 609 LINE",
"523 685 OFFCURVE",
"439 728 OFFCURVE",
"326 728 CURVE SMOOTH"
);
}
);
width = 575;
}
);
leftKerningGroup = S;
rightKerningGroup = S;
unicode = 0053;
},
{
color = 6;
glyphname = T;
lastChange = "2015-05-11 15:45:47 +0000";
layers = (
{
anchors = (
{
name = bottom;
position = "{234, 0}";
},
{
name = center;
position = "{249, 370}";
},
{
name = top;
position = "{262, 742}";
}
);
background = {
paths = (
{
closed = 1;
nodes = (
"498 716 OFFCURVE",
"441 711 OFFCURVE",
"405 711 CURVE SMOOTH",
"186 711 LINE SMOOTH",
"119 711 OFFCURVE",
"46 632 OFFCURVE",
"-3 572 CURVE",
"5 563 LINE",
"40 597 OFFCURVE",
"57 613 OFFCURVE",
"113 613 CURVE SMOOTH",
"299 613 LINE",
"253 577 OFFCURVE",
"192 520 OFFCURVE",
"192 455 CURVE SMOOTH",
"192 108 LINE SMOOTH",
"192 76 OFFCURVE",
"192 36 OFFCURVE",
"166 8 CURVE",
"179 -4 LINE",
"239 42 OFFCURVE",
"271 110 OFFCURVE",
"271 197 CURVE SMOOTH",
"271 513 LINE SMOOTH",
"271 554 OFFCURVE",
"284 580 OFFCURVE",
"311 613 CURVE",
"408 614 OFFCURVE",
"486 666 OFFCURVE",
"532 728 CURVE",
"523 737 LINE"
);
}
);
};
layerId = "E777F328-EA17-4AE7-9EBA-8002E537BA4F";
name = Light;
paths = (
{
closed = 1;
nodes = (
"478 696 OFFCURVE",
"340 697 OFFCURVE",
"277 697 CURVE SMOOTH",
"221 697 LINE SMOOTH",
"147 697 OFFCURVE",
"68 655 OFFCURVE",
"-2 572 CURVE",
"15 559 LINE",
"48 595 OFFCURVE",
"79 614 OFFCURVE",
"135 614 CURVE",
"275 613 LINE",
"231 577 OFFCURVE",
"192 520 OFFCURVE",
"192 455 CURVE SMOOTH",
"192 95 LINE SMOOTH",
"192 64 OFFCURVE",
"183 23 OFFCURVE",
"161 -2 CURVE",
"181 -21 LINE",
"239 28 OFFCURVE",
"271 71 OFFCURVE",
"271 186 CURVE",
"271 513 LINE SMOOTH",
"271 554 OFFCURVE",
"284 580 OFFCURVE",
"310 613 CURVE",
"398 613 OFFCURVE",
"481 665 OFFCURVE",
"532 728 CURVE",
"523 737 LINE"
);
}
);
width = 500;
},
{
anchors = (
{
name = bottom;
position = "{236, 0}";
},
{
name = center;
position = "{249, 370}";
},
{
name = top;
position = "{269, 742}";
}
);
layerId = "39185045-6A8C-415A-8312-7B8F11386A4C";
name = Regular;
paths = (
{
closed = 1;
nodes = (
"485 720 OFFCURVE",
"432 711 OFFCURVE",
"401 711 CURVE SMOOTH",
"187 711 LINE SMOOTH",
"80 711 OFFCURVE",
"26 630 OFFCURVE",
"-13 570 CURVE",
"13 544 LINE",
"46 586 OFFCURVE",
"86 608 OFFCURVE",
"124 608 CURVE SMOOTH",
"253 608 LINE",
"209 569 OFFCURVE",
"154 513 OFFCURVE",
"154 455 CURVE SMOOTH",
"154 104 LINE SMOOTH",
"154 69 OFFCURVE",
"151 31 OFFCURVE",
"131 7 CURVE",
"154 -21 LINE",
"257 34 OFFCURVE",
"310 106 OFFCURVE",
"310 192 CURVE SMOOTH",
"310 513 LINE SMOOTH",
"310 553 OFFCURVE",
"320 579 OFFCURVE",
"345 608 CURVE SMOOTH",
"421 608 OFFCURVE",
"500 661 OFFCURVE",
"540 725 CURVE",
"518 749 LINE"
);
}
);
width = 500;
}
);
leftKerningGroup = T;
rightKerningGroup = T;
unicode = 0054;
},
{
color = 6;
glyphname = Tbar;
lastChange = "2015-05-11 15:45:47 +0000";
layers = (
{
components = (
{
name = T;
}
);
layerId = "E777F328-EA17-4AE7-9EBA-8002E537BA4F";
name = Light;
paths = (
{
closed = 1;
nodes = (
"120 384 LINE",
"97 334 LINE",
"338 334 LINE",
"364 384 LINE"
);
}
);
width = 500;
},
{
components = (
{
name = T;
}
);
layerId = "39185045-6A8C-415A-8312-7B8F11386A4C";
name = Regular;
paths = (
{
closed = 1;
nodes = (
"89 384 LINE",
"64 328 LINE",
"374 328 LINE",
"401 384 LINE"
);
}
);
width = 500;
}
);
leftKerningGroup = T;
rightKerningGroup = T;
unicode = 0166;
},
{
color = 6;
glyphname = U;
lastChange = "2015-05-11 15:45:47 +0000";
layers = (
{
anchors = (
{
name = ogonek;
position = "{608, 5}";
},
{
name = top;
position = "{317, 742}";
}
);
layerId = "E777F328-EA17-4AE7-9EBA-8002E537BA4F";
name = Light;
paths = (
{
closed = 1;
nodes = (
"416 676 LINE",
"416 380 LINE SMOOTH",
"416 285 OFFCURVE",
"375 44 OFFCURVE",
"243 44 CURVE SMOOTH",
"161 44 OFFCURVE",
"166 126 OFFCURVE",
"166 176 CURVE SMOOTH",
"166 707 LINE",
"86 678 LINE",
"86 134 LINE SMOOTH",
"86 57 OFFCURVE",
"122 -9 OFFCURVE",
"205 -9 CURVE SMOOTH",
"330 -9 OFFCURVE",
"395 104 OFFCURVE",
"416 197 CURVE",
"416 115 LINE",
"416 36 OFFCURVE",
"460 -4 OFFCURVE",
"513 -4 CURVE SMOOTH",
"563 -4 OFFCURVE",
"603 33 OFFCURVE",
"615 68 CURVE",
"605 79 LINE",
"592 59 OFFCURVE",
"566 42 OFFCURVE",
"544 42 CURVE SMOOTH",
"513 42 OFFCURVE",
"496 69 OFFCURVE",
"496 109 CURVE",
"496 707 LINE"
);
}
);
width = 630;
},
{
anchors = (
{
name = ogonek;
position = "{658, 5}";
},
{
name = top;
position = "{325, 742}";
}
);
layerId = "39185045-6A8C-415A-8312-7B8F11386A4C";
name = Regular;
paths = (
{
closed = 1;
nodes = (
"395 694 LINE",
"395 308 LINE SMOOTH",
"395 246 OFFCURVE",
"353 50 OFFCURVE",
"269 50 CURVE SMOOTH",
"226 50 OFFCURVE",
"226 113 OFFCURVE",
"226 161 CURVE SMOOTH",
"226 742 LINE",
"69 692 LINE",
"69 135 LINE SMOOTH",
"69 59 OFFCURVE",
"110 -11 OFFCURVE",
"205 -11 CURVE SMOOTH",
"296 -11 OFFCURVE",
"354 34 OFFCURVE",
"395 138 CURVE",
"395 124 LINE",
"395 36 OFFCURVE",
"441 -9 OFFCURVE",
"515 -9 CURVE SMOOTH",
"595 -9 OFFCURVE",
"632 23 OFFCURVE",
"665 66 CURVE",
"635 92 LINE",
"620 74 OFFCURVE",
"600 60 OFFCURVE",
"580 60 CURVE SMOOTH",
"559 60 OFFCURVE",
"553 80 OFFCURVE",
"553 96 CURVE SMOOTH",
"553 742 LINE"
);
}
);
width = 640;
}
);
leftKerningGroup = U;
rightKerningGroup = U;
unicode = 0055;
},
{
color = 6;
glyphname = V;
lastChange = "2015-05-11 15:45:47 +0000";
layers = (
{
layerId = "E777F328-EA17-4AE7-9EBA-8002E537BA4F";
name = Light;
paths = (
{
closed = 1;
nodes = (
"303 92 LINE",
"446 392 LINE",
"464 434 OFFCURVE",
"489 491 OFFCURVE",
"489 533 CURVE SMOOTH",
"489 597 OFFCURVE",
"452 649 OFFCURVE",
"400 689 CURVE",
"481 774 LINE",
"536 738 OFFCURVE",
"564 675 OFFCURVE",
"564 620 CURVE SMOOTH",
"564 566 OFFCURVE",
"542 502 OFFCURVE",
"518 451 CURVE",
"297 -28 LINE",
"5 665 LINE",
"85 711 LINE",
"334 92 LINE"
);
}
);
width = 582;
},
{
layerId = "39185045-6A8C-415A-8312-7B8F11386A4C";
name = Regular;
paths = (
{
closed = 1;
nodes = (
"314 157 LINE",
"425 394 LINE SMOOTH",
"441 434 OFFCURVE",
"460 472 OFFCURVE",
"460 519 CURVE SMOOTH",
"460 591 OFFCURVE",
"419 647 OFFCURVE",
"363 691 CURVE",
"453 792 LINE",
"517 751 OFFCURVE",
"559 673 OFFCURVE",
"559 614 CURVE SMOOTH",
"559 559 OFFCURVE",
"536 502 OFFCURVE",
"511 449 CURVE SMOOTH",
"281 -51 LINE",
"-19 663 LINE",
"125 717 LINE",
"358 157 LINE"
);
}
);
width = 559;
}
);
leftKerningGroup = V;
rightKerningGroup = V;
unicode = 0056;
},
{
color = 6;
glyphname = W;
lastChange = "2015-05-11 15:45:47 +0000";
layers = (
{
anchors = (
{
name = top;
position = "{395, 742}";
}
);
background = {
paths = (
{
closed = 1;
nodes = (
"185 322 OFFCURVE",
"203 340 OFFCURVE",
"203 363 CURVE SMOOTH",
"203 384 OFFCURVE",
"185 402 OFFCURVE",
"163 402 CURVE SMOOTH",
"140 402 OFFCURVE",
"122 384 OFFCURVE",
"122 363 CURVE SMOOTH",
"122 340 OFFCURVE",
"140 322 OFFCURVE",
"163 322 CURVE SMOOTH"
);
}
);
};
layerId = "E777F328-EA17-4AE7-9EBA-8002E537BA4F";
name = Light;
paths = (
{
closed = 1;
nodes = (
"603 689 LINE",
"652 649 OFFCURVE",
"685 597 OFFCURVE",
"685 533 CURVE SMOOTH",
"685 491 OFFCURVE",
"663 434 OFFCURVE",
"646 392 CURVE",
"525 121 LINE",
"545 121 LINE",
"355 662 LINE",
"268 630 LINE",
"509 -18 LINE",
"716 451 LINE",
"740 502 OFFCURVE",
"758 566 OFFCURVE",
"758 620 CURVE SMOOTH",
"758 675 OFFCURVE",
"731 738 OFFCURVE",
"683 774 CURVE"
);
},
{
closed = 1;
nodes = (
"2 680 LINE",
"260 -18 LINE",
"400 370 LINE",
"370 410 LINE",
"269 140 LINE",
"291 140 LINE",
"86 711 LINE"
);
}
);
width = 788;
},
{
anchors = (
{
name = top;
position = "{398, 742}";
}
);
layerId = "39185045-6A8C-415A-8312-7B8F11386A4C";
name = Regular;
paths = (
{
closed = 1;
nodes = (
"598 691 LINE",
"663 639 OFFCURVE",
"696 582 OFFCURVE",
"696 513 CURVE SMOOTH",
"696 478 OFFCURVE",
"687 437 OFFCURVE",
"670 394 CURVE",
"584 181 LINE",
"625 181 LINE",
"437 689 LINE",
"293 635 LINE",
"545 -51 LINE",
"756 464 LINE",
"777 515 OFFCURVE",
"791 564 OFFCURVE",
"791 613 CURVE SMOOTH",
"791 680 OFFCURVE",
"763 742 OFFCURVE",
"689 792 CURVE"
);
},
{
closed = 1;
nodes = (
"-15 663 LINE",
"248 -51 LINE",
"431 397 LINE",
"392 441 LINE",
"286 181 LINE",
"325 181 LINE",
"131 717 LINE"
);
}
);
width = 796;
}
);
leftKerningGroup = W;
rightKerningGroup = W;
unicode = 0057;
},
{
color = 6;
glyphname = X;
lastChange = "2015-05-11 15:45:47 +0000";
layers = (
{
layerId = "E777F328-EA17-4AE7-9EBA-8002E537BA4F";
name = Light;
paths = (
{
closed = 1;
nodes = (
"17 675 LINE",
"482 -21 LINE",
"559 11 LINE",
"95 709 LINE"
);
},
{
closed = 1;
nodes = (
"284 714 OFFCURVE",
"277 97 OFFCURVE",
"42 97 CURVE SMOOTH",
"46 97 OFFCURVE",
"42 97 OFFCURVE",
"42 97 CURVE",
"13 -21 LINE",
"271 -21 OFFCURVE",
"275 595 OFFCURVE",
"511 595 CURVE SMOOTH",
"511 595 OFFCURVE",
"513 595 OFFCURVE",
"513 597 CURVE",
"542 714 LINE"
);
}
);
width = 569;
},
{
layerId = "39185045-6A8C-415A-8312-7B8F11386A4C";
name = Regular;
paths = (
{
closed = 1;
nodes = (
"2 675 LINE",
"432 -21 LINE",
"586 23 LINE",
"156 714 LINE"
);
},
{
closed = 1;
nodes = (
"262 714 OFFCURVE",
"266 104 OFFCURVE",
"81 104 CURVE SMOOTH",
"64 104 OFFCURVE",
"44 109 OFFCURVE",
"31 117 CURVE",
"0 -21 LINE",
"306 -21 OFFCURVE",
"302 588 OFFCURVE",
"487 588 CURVE SMOOTH",
"504 588 OFFCURVE",
"523 582 OFFCURVE",
"538 575 CURVE",
"568 714 LINE"
);
}
);
width = 590;
}
);
leftKerningGroup = X;
rightKerningGroup = X;
unicode = 0058;
},
{
color = 6;
glyphname = Y;
lastChange = "2015-05-11 15:45:47 +0000";
layers = (
{
anchors = (
{
name = top;
position = "{319, 742}";
}
);
layerId = "E777F328-EA17-4AE7-9EBA-8002E537BA4F";
name = Light;
paths = (
{
closed = 1;
nodes = (
"449 186 LINE",
"449 -62 LINE SMOOTH",
"449 -95 OFFCURVE",
"428 -181 OFFCURVE",
"345 -181 CURVE SMOOTH",
"293 -181 OFFCURVE",
"251 -136 OFFCURVE",
"234 -106 CURVE",
"158 -169 LINE",
"198 -203 OFFCURVE",
"248 -223 OFFCURVE",
"304 -223 CURVE SMOOTH",
"449 -223 OFFCURVE",
"528 -106 OFFCURVE",
"528 25 CURVE SMOOTH",
"528 707 LINE",
"449 676 LINE",
"449 384 LINE SMOOTH",
"449 288 OFFCURVE",
"409 53 OFFCURVE",
"275 53 CURVE SMOOTH",
"203 53 OFFCURVE",
"200 136 OFFCURVE",
"200 187 CURVE SMOOTH",
"200 581 LINE SMOOTH",
"200 632 OFFCURVE",
"163 699 OFFCURVE",
"92 699 CURVE SMOOTH",
"60 699 OFFCURVE",
"14 663 OFFCURVE",
"0 626 CURVE",
"11 617 LINE",
"23 634 OFFCURVE",
"50 651 OFFCURVE",
"71 651 CURVE SMOOTH",
"109 651 OFFCURVE",
"120 619 OFFCURVE",
"120 585 CURVE SMOOTH",
"120 145 LINE SMOOTH",
"120 68 OFFCURVE",
"157 0 OFFCURVE",
"238 0 CURVE SMOOTH",
"358 0 OFFCURVE",
"421 95 OFFCURVE",
"446 186 CURVE"
);
}
);
width = 626;
},
{
anchors = (
{
name = top;
position = "{320, 742}";
}
);
layerId = "39185045-6A8C-415A-8312-7B8F11386A4C";
name = Regular;
paths = (
{
closed = 1;
nodes = (
"414 149 LINE",
"414 -68 LINE SMOOTH",
"414 -138 OFFCURVE",
"385 -164 OFFCURVE",
"341 -164 CURVE SMOOTH",
"297 -164 OFFCURVE",
"258 -112 OFFCURVE",
"239 -68 CURVE",
"131 -164 LINE",
"176 -203 OFFCURVE",
"227 -222 OFFCURVE",
"311 -222 CURVE SMOOTH",
"441 -222 OFFCURVE",
"572 -110 OFFCURVE",
"572 29 CURVE SMOOTH",
"572 742 LINE",
"414 694 LINE",
"414 317 LINE SMOOTH",
"414 257 OFFCURVE",
"374 60 OFFCURVE",
"291 60 CURVE SMOOTH",
"248 60 OFFCURVE",
"246 124 OFFCURVE",
"246 171 CURVE SMOOTH",
"246 586 LINE SMOOTH",
"246 686 OFFCURVE",
"203 730 OFFCURVE",
"124 730 CURVE SMOOTH",
"44 730 OFFCURVE",
"8 696 OFFCURVE",
"-25 653 CURVE",
"5 626 LINE",
"19 646 OFFCURVE",
"39 658 OFFCURVE",
"60 658 CURVE SMOOTH",
"81 658 OFFCURVE",
"88 640 OFFCURVE",
"88 625 CURVE SMOOTH",
"88 146 LINE SMOOTH",
"88 68 OFFCURVE",
"131 0 OFFCURVE",
"225 0 CURVE SMOOTH",
"311 0 OFFCURVE",
"368 42 OFFCURVE",
"409 149 CURVE"
);
}
);
width = 640;
}
);
leftKerningGroup = Y;
rightKerningGroup = Y;
unicode = 0059;
},
{
color = 6;
glyphname = Z;
lastChange = "2015-05-11 15:45:47 +0000";
layers = (
{
anchors = (
{
name = top;
position = "{338, 742}";
}
);
layerId = "E777F328-EA17-4AE7-9EBA-8002E537BA4F";
name = Light;
paths = (
{
closed = 1;
nodes = (
"500 699 OFFCURVE",
"463 697 OFFCURVE",
"405 697 CURVE SMOOTH",
"115 697 LINE",
"25 551 LINE",
"44 537 LINE",
"95 602 OFFCURVE",
"138 608 OFFCURVE",
"277 608 CURVE SMOOTH",
"419 608 LINE",
"23 11 LINE",
"44 -8 LINE",
"85 18 OFFCURVE",
"149 31 OFFCURVE",
"187 31 CURVE SMOOTH",
"297 31 OFFCURVE",
"386 0 OFFCURVE",
"478 -11 CURVE",
"548 136 LINE",
"535 145 LINE",
"508 113 OFFCURVE",
"464 83 OFFCURVE",
"419 83 CURVE SMOOTH",
"343 83 OFFCURVE",
"313 97 OFFCURVE",
"232 97 CURVE SMOOTH",
"183 97 OFFCURVE",
"145 80 OFFCURVE",
"114 57 CURVE",
"112 59 LINE",
"544 707 LINE",
"528 723 LINE"
);
}
);
width = 574;
},
{
anchors = (
{
name = top;
position = "{338, 742}";
}
);
layerId = "39185045-6A8C-415A-8312-7B8F11386A4C";
name = Regular;
paths = (
{
closed = 1;
nodes = (
"515 714 OFFCURVE",
"480 711 OFFCURVE",
"427 711 CURVE SMOOTH",
"120 711 LINE",
"28 525 LINE",
"59 501 LINE",
"115 572 OFFCURVE",
"136 579 OFFCURVE",
"267 579 CURVE SMOOTH",
"400 579 LINE",
"5 26 LINE",
"42 -9 LINE",
"80 15 OFFCURVE",
"113 28 OFFCURVE",
"166 28 CURVE SMOOTH",
"291 28 OFFCURVE",
"353 -2 OFFCURVE",
"501 -9 CURVE",
"590 186 LINE",
"558 209 LINE",
"527 167 OFFCURVE",
"496 138 OFFCURVE",
"437 138 CURVE SMOOTH",
"385 138 OFFCURVE",
"345 153 OFFCURVE",
"278 153 CURVE SMOOTH",
"242 153 OFFCURVE",
"208 145 OFFCURVE",
"185 134 CURVE",
"179 140 LINE",
"585 707 LINE",
"551 743 LINE"
);
}
);
width = 595;
}
);
leftKerningGroup = Z;
rightKerningGroup = Z;
unicode = 005A;
},
{
color = 6;
glyphname = a;
lastChange = "2015-05-11 15:45:47 +0000";
layers = (
{
anchors = (
{
name = ogonek;
position = "{554, 7}";
},
{
name = top;
position = "{338, 537}";
}
);
layerId = "E777F328-EA17-4AE7-9EBA-8002E537BA4F";
name = Light;
paths = (
{
closed = 1;
nodes = (
"167 500 OFFCURVE",
"51 362 OFFCURVE",
"51 205 CURVE SMOOTH",
"51 78 OFFCURVE",
"104 -12 OFFCURVE",
"224 -12 CURVE SMOOTH",
"285 -12 OFFCURVE",
"349 46 OFFCURVE",
"382 113 CURVE",
"383 113 LINE",
"383 47 OFFCURVE",
"406 -4 OFFCURVE",
"463 -4 CURVE SMOOTH",
"498 -4 OFFCURVE",
"545 29 OFFCURVE",
"560 76 CURVE",
"546 90 LINE",
"536 73 OFFCURVE",
"518 49 OFFCURVE",
"492 49 CURVE SMOOTH",
"471 49 OFFCURVE",
"463 73 OFFCURVE",
"463 86 CURVE SMOOTH",
"463 350 LINE",
"387 315 LINE",
"387 270 LINE SMOOTH",
"387 199 OFFCURVE",
"367 59 OFFCURVE",
"234 59 CURVE SMOOTH",
"147 59 OFFCURVE",
"116 140 OFFCURVE",
"116 238 CURVE SMOOTH",
"116 348 OFFCURVE",
"181 437 OFFCURVE",
"292 437 CURVE SMOOTH",
"341 437 OFFCURVE",
"382 401 OFFCURVE",
"401 377 CURVE",
"462 415 LINE",
"434 476 OFFCURVE",
"368 500 OFFCURVE",
"310 500 CURVE SMOOTH"
);
}
);
width = 570;
},
{
anchors = (
{
name = ogonek;
position = "{602, 7}";
},
{
name = top;
position = "{319, 537}";
}
);
layerId = "39185045-6A8C-415A-8312-7B8F11386A4C";
name = Regular;
paths = (
{
closed = 1;
nodes = (
"147 500 OFFCURVE",
"40 356 OFFCURVE",
"40 195 CURVE SMOOTH",
"40 80 OFFCURVE",
"99 -12 OFFCURVE",
"204 -12 CURVE SMOOTH",
"288 -12 OFFCURVE",
"333 40 OFFCURVE",
"360 106 CURVE",
"365 106 LINE",
"365 48 OFFCURVE",
"389 -9 OFFCURVE",
"466 -9 CURVE SMOOTH",
"530 -9 OFFCURVE",
"576 36 OFFCURVE",
"597 77 CURVE",
"575 100 LINE",
"564 86 OFFCURVE",
"546 69 OFFCURVE",
"527 69 CURVE SMOOTH",
"511 69 OFFCURVE",
"502 84 OFFCURVE",
"502 103 CURVE SMOOTH",
"502 360 LINE",
"356 314 LINE",
"356 270 LINE SMOOTH",
"356 200 OFFCURVE",
"343 64 OFFCURVE",
"257 64 CURVE SMOOTH",
"195 64 OFFCURVE",
"176 150 OFFCURVE",
"176 238 CURVE SMOOTH",
"176 344 OFFCURVE",
"221 432 OFFCURVE",
"298 432 CURVE SMOOTH",
"330 432 OFFCURVE",
"361 410 OFFCURVE",
"378 371 CURVE",
"501 413 LINE",
"469 476 OFFCURVE",
"394 500 OFFCURVE",
"325 500 CURVE SMOOTH"
);
}
);
width = 599;
}
);
leftKerningGroup = a;
rightKerningGroup = n;
unicode = 0061;
},
{
color = 6;
glyphname = ae;
lastChange = "2015-05-11 15:45:47 +0000";
layers = (
{
anchors = (
{
name = top;
position = "{419, 537}";
}
);
layerId = "E777F328-EA17-4AE7-9EBA-8002E537BA4F";
name = Light;
paths = (
{
closed = 1;
nodes = (
"509 509 OFFCURVE",
"374 358 OFFCURVE",
"374 207 CURVE SMOOTH",
"374 91 OFFCURVE",
"463 -12 OFFCURVE",
"581 -12 CURVE SMOOTH",
"671 -12 OFFCURVE",
"761 41 OFFCURVE",
"820 118 CURVE",
"807 136 LINE",
"770 108 OFFCURVE",
"701 52 OFFCURVE",
"635 52 CURVE SMOOTH",
"581 52 OFFCURVE",
"540 83 OFFCURVE",
"502 122 CURVE",
"587 155 OFFCURVE",
"779 293 OFFCURVE",
"779 394 CURVE SMOOTH",
"779 474 OFFCURVE",
"723 509 OFFCURVE",
"660 509 CURVE SMOOTH"
);
},
{
closed = 1;
nodes = (
"663 446 OFFCURVE",
"692 426 OFFCURVE",
"692 372 CURVE SMOOTH",
"692 293 OFFCURVE",
"565 182 OFFCURVE",
"482 147 CURVE",
"464 176 OFFCURVE",
"450 214 OFFCURVE",
"450 254 CURVE SMOOTH",
"450 334 OFFCURVE",
"515 446 OFFCURVE",
"611 446 CURVE SMOOTH"
);
},
{
closed = 1;
nodes = (
"323 437 OFFCURVE",
"377 407 OFFCURVE",
"377 340 CURVE SMOOTH",
"377 196 OFFCURVE",
"348 59 OFFCURVE",
"243 59 CURVE SMOOTH",
"144 59 OFFCURVE",
"113 179 OFFCURVE",
"113 238 CURVE SMOOTH",
"113 348 OFFCURVE",
"179 437 OFFCURVE",
"286 437 CURVE SMOOTH"
);
},
{
closed = 1;
nodes = (
"158 500 OFFCURVE",
"45 344 OFFCURVE",
"45 188 CURVE SMOOTH",
"45 83 OFFCURVE",
"101 -12 OFFCURVE",
"220 -12 CURVE SMOOTH",
"292 -12 OFFCURVE",
"370 35 OFFCURVE",
"401 173 CURVE",
"486 406 LINE",
"450 448 OFFCURVE",
"367 500 OFFCURVE",
"302 500 CURVE SMOOTH"
);
}
);
width = 845;
},
{
anchors = (
{
name = top;
position = "{427, 537}";
}
);
layerId = "39185045-6A8C-415A-8312-7B8F11386A4C";
name = Regular;
paths = (
{
closed = 1;
nodes = (
"497 509 OFFCURVE",
"349 372 OFFCURVE",
"349 212 CURVE SMOOTH",
"349 78 OFFCURVE",
"447 -12 OFFCURVE",
"581 -12 CURVE SMOOTH",
"689 -12 OFFCURVE",
"773 56 OFFCURVE",
"833 132 CURVE",
"806 158 LINE",
"763 108 OFFCURVE",
"703 60 OFFCURVE",
"644 60 CURVE SMOOTH",
"604 60 OFFCURVE",
"558 83 OFFCURVE",
"531 122 CURVE",
"617 162 OFFCURVE",
"805 298 OFFCURVE",
"805 394 CURVE SMOOTH",
"805 473 OFFCURVE",
"737 509 OFFCURVE",
"660 509 CURVE SMOOTH"
);
},
{
closed = 1;
nodes = (
"631 443 OFFCURVE",
"651 414 OFFCURVE",
"651 370 CURVE SMOOTH",
"651 298 OFFCURVE",
"567 200 OFFCURVE",
"510 159 CURVE",
"495 187 OFFCURVE",
"487 223 OFFCURVE",
"487 259 CURVE SMOOTH",
"487 358 OFFCURVE",
"533 443 OFFCURVE",
"595 443 CURVE SMOOTH"
);
},
{
closed = 1;
nodes = (
"318 432 OFFCURVE",
"352 416 OFFCURVE",
"352 358 CURVE",
"352 185 OFFCURVE",
"336 64 OFFCURVE",
"260 64 CURVE SMOOTH",
"194 64 OFFCURVE",
"175 164 OFFCURVE",
"175 238 CURVE SMOOTH",
"175 344 OFFCURVE",
"221 432 OFFCURVE",
"295 432 CURVE SMOOTH"
);
},
{
closed = 1;
nodes = (
"143 500 OFFCURVE",
"37 349 OFFCURVE",
"37 189 CURVE SMOOTH",
"37 75 OFFCURVE",
"99 -12 OFFCURVE",
"206 -12 CURVE SMOOTH",
"300 -12 OFFCURVE",
"358 53 OFFCURVE",
"378 168 CURVE",
"509 410 LINE",
"474 466 OFFCURVE",
"393 500 OFFCURVE",
"322 500 CURVE SMOOTH"
);
}
);
width = 857;
}
);
leftKerningGroup = a;
rightKerningGroup = e;
unicode = 00E6;
},
{
color = 6;
glyphname = b;
lastChange = "2015-05-11 15:45:47 +0000";
layers = (
{
layerId = "E777F328-EA17-4AE7-9EBA-8002E537BA4F";
name = Light;
paths = (
{
closed = 1;
nodes = (
"491 342 OFFCURVE",
"419 467 OFFCURVE",
"330 496 CURVE",
"248 425 LINE",
"338 428 OFFCURVE",
"428 300 OFFCURVE",
"428 199 CURVE SMOOTH",
"428 139 OFFCURVE",
"377 42 OFFCURVE",
"278 42 CURVE SMOOTH",
"197 42 OFFCURVE",
"160 104 OFFCURVE",
"160 163 CURVE SMOOTH",
"160 924 LINE",
"80 888 LINE",
"80 185 LINE SMOOTH",
"80 74 OFFCURVE",
"141 -12 OFFCURVE",
"251 -12 CURVE SMOOTH",
"347 -12 OFFCURVE",
"491 138 OFFCURVE",
"491 266 CURVE SMOOTH"
);
}
);
width = 539;
},
{
layerId = "39185045-6A8C-415A-8312-7B8F11386A4C";
name = Regular;
paths = (
{
closed = 1;
nodes = (
"535 372 OFFCURVE",
"438 471 OFFCURVE",
"342 500 CURVE",
"215 415 LINE",
"324 401 OFFCURVE",
"399 300 OFFCURVE",
"399 200 CURVE SMOOTH",
"399 126 OFFCURVE",
"365 48 OFFCURVE",
"298 48 CURVE SMOOTH",
"245 48 OFFCURVE",
"221 109 OFFCURVE",
"221 165 CURVE SMOOTH",
"221 924 LINE",
"73 878 LINE",
"73 187 LINE SMOOTH",
"73 74 OFFCURVE",
"140 -12 OFFCURVE",
"266 -12 CURVE SMOOTH",
"415 -12 OFFCURVE",
"535 131 OFFCURVE",
"535 251 CURVE SMOOTH"
);
}
);
width = 571;
}
);
leftKerningGroup = h;
rightKerningGroup = o;
unicode = 0062;
},
{
color = 6;
glyphname = c;
lastChange = "2015-05-11 15:45:47 +0000";
layers = (
{
anchors = (
{
name = bottom;
position = "{257, 0}";
},
{
name = top;
position = "{272, 537}";
}
);
layerId = "E777F328-EA17-4AE7-9EBA-8002E537BA4F";
name = Light;
paths = (
{
closed = 1;
nodes = (
"130 506 OFFCURVE",
"43 375 OFFCURVE",
"43 223 CURVE SMOOTH",
"43 81 OFFCURVE",
"133 -12 OFFCURVE",
"257 -12 CURVE SMOOTH",
"369 -12 OFFCURVE",
"433 48 OFFCURVE",
"493 140 CURVE",
"478 154 LINE",
"437 108 OFFCURVE",
"377 49 OFFCURVE",
"283 49 CURVE",
"180 49 OFFCURVE",
"101 130 OFFCURVE",
"101 277 CURVE SMOOTH",
"101 351 OFFCURVE",
"167 444 OFFCURVE",
"273 444 CURVE SMOOTH",
"314 444 OFFCURVE",
"365 421 OFFCURVE",
"379 374 CURVE",
"453 411 LINE",
"425 482 OFFCURVE",
"375 506 OFFCURVE",
"328 506 CURVE SMOOTH"
);
}
);
width = 520;
},
{
anchors = (
{
name = bottom;
position = "{259, 0}";
},
{
name = top;
position = "{272, 537}";
}
);
layerId = "39185045-6A8C-415A-8312-7B8F11386A4C";
name = Regular;
paths = (
{
closed = 1;
nodes = (
"148 506 OFFCURVE",
"32 377 OFFCURVE",
"32 225 CURVE SMOOTH",
"32 81 OFFCURVE",
"127 -12 OFFCURVE",
"257 -12 CURVE SMOOTH",
"369 -12 OFFCURVE",
"443 59 OFFCURVE",
"501 140 CURVE",
"473 164 LINE",
"430 108 OFFCURVE",
"374 60 OFFCURVE",
"308 60 CURVE SMOOTH",
"225 60 OFFCURVE",
"162 137 OFFCURVE",
"162 267 CURVE SMOOTH",
"162 357 OFFCURVE",
"203 438 OFFCURVE",
"271 438 CURVE SMOOTH",
"305 438 OFFCURVE",
"339 404 OFFCURVE",
"353 337 CURVE",
"479 405 LINE",
"446 477 OFFCURVE",
"380 506 OFFCURVE",
"316 506 CURVE SMOOTH"
);
}
);
width = 518;
}
);
leftKerningGroup = o;
rightKerningGroup = c;
unicode = 0063;
},
{
color = 6;
glyphname = d;
lastChange = "2015-05-11 15:45:47 +0000";
layers = (
{
anchors = (
{
name = center;
position = "{291, 269}";
},
{
name = topright;
position = "{533, 537}";
}
);
background = {
paths = (
{
closed = 1;
nodes = (
"780 1886 LINE",
"780 1041 LINE",
"733 1066 OFFCURVE",
"678 1080 OFFCURVE",
"626 1080 CURVE SMOOTH",
"283 1080 OFFCURVE",
"86 727 OFFCURVE",
"86 420 CURVE SMOOTH",
"86 181 OFFCURVE",
"214 -28 OFFCURVE",
"460 -28 CURVE SMOOTH",
"621 -28 OFFCURVE",
"719 110 OFFCURVE",
"780 234 CURVE",
"780 209 LINE SMOOTH",
"780 74 OFFCURVE",
"842 -14 OFFCURVE",
"987 -14 CURVE SMOOTH",
"1094 -14 OFFCURVE",
"1190 69 OFFCURVE",
"1236 164 CURVE",
"1196 207 LINE",
"1174 172 OFFCURVE",
"1134 131 OFFCURVE",
"1092 131 CURVE SMOOTH",
"1052 131 OFFCURVE",
"1036 167 OFFCURVE",
"1036 203 CURVE SMOOTH",
"1036 1975 LINE"
);
},
{
closed = 1;
nodes = (
"686 945 OFFCURVE",
"740 914 OFFCURVE",
"780 871 CURVE",
"780 579 LINE",
"780 423 OFFCURVE",
"751 131 OFFCURVE",
"544 131 CURVE SMOOTH",
"375 131 OFFCURVE",
"325 366 OFFCURVE",
"325 506 CURVE SMOOTH",
"325 680 OFFCURVE",
"409 945 OFFCURVE",
"625 945 CURVE SMOOTH"
);
}
);
};
layerId = "E777F328-EA17-4AE7-9EBA-8002E537BA4F";
name = Light;
paths = (
{
closed = 1;
nodes = (
"387 888 LINE",
"387 480 LINE",
"359 500 OFFCURVE",
"330 506 OFFCURVE",
"301 506 CURVE SMOOTH",
"145 506 OFFCURVE",
"50 340 OFFCURVE",
"50 201 CURVE SMOOTH",
"50 86 OFFCURVE",
"107 -12 OFFCURVE",
"232 -12 CURVE SMOOTH",
"306 -12 OFFCURVE",
"353 57 OFFCURVE",
"381 112 CURVE",
"385 112 LINE",
"383 20 OFFCURVE",
"413 -4 OFFCURVE",
"468 -4 CURVE SMOOTH",
"500 -4 OFFCURVE",
"545 29 OFFCURVE",
"565 76 CURVE",
"547 90 LINE",
"540 73 OFFCURVE",
"519 49 OFFCURVE",
"498 49 CURVE SMOOTH",
"476 49 OFFCURVE",
"470 73 OFFCURVE",
"470 86 CURVE SMOOTH",
"470 924 LINE"
);
},
{
closed = 1;
nodes = (
"332 449 OFFCURVE",
"365 430 OFFCURVE",
"387 406 CURVE",
"387 270 LINE",
"387 199 OFFCURVE",
"371 59 OFFCURVE",
"249 59 CURVE SMOOTH",
"151 59 OFFCURVE",
"122 181 OFFCURVE",
"122 235 CURVE SMOOTH",
"122 305 OFFCURVE",
"164 449 OFFCURVE",
"293 449 CURVE SMOOTH"
);
}
);
width = 581;
},
{
anchors = (
{
name = center;
position = "{302, 269}";
},
{
name = topright;
position = "{615, 537}";
}
);
layerId = "39185045-6A8C-415A-8312-7B8F11386A4C";
name = Regular;
paths = (
{
closed = 1;
nodes = (
"356 878 LINE",
"356 492 LINE",
"339 500 OFFCURVE",
"315 506 OFFCURVE",
"295 506 CURVE SMOOTH",
"128 506 OFFCURVE",
"39 340 OFFCURVE",
"39 194 CURVE SMOOTH",
"39 83 OFFCURVE",
"100 -12 OFFCURVE",
"207 -12 CURVE SMOOTH",
"284 -12 OFFCURVE",
"331 46 OFFCURVE",
"355 106 CURVE",
"361 106 LINE",
"361 38 OFFCURVE",
"388 -9 OFFCURVE",
"468 -9 CURVE SMOOTH",
"531 -9 OFFCURVE",
"576 36 OFFCURVE",
"599 77 CURVE",
"575 100 LINE",
"566 86 OFFCURVE",
"546 69 OFFCURVE",
"529 69 CURVE SMOOTH",
"513 69 OFFCURVE",
"505 84 OFFCURVE",
"505 103 CURVE SMOOTH",
"505 924 LINE"
);
},
{
closed = 1;
nodes = (
"320 437 OFFCURVE",
"340 426 OFFCURVE",
"356 411 CURVE",
"356 270 LINE SMOOTH",
"356 200 OFFCURVE",
"344 64 OFFCURVE",
"263 64 CURVE SMOOTH",
"197 64 OFFCURVE",
"178 165 OFFCURVE",
"178 237 CURVE SMOOTH",
"178 329 OFFCURVE",
"215 437 OFFCURVE",
"298 437 CURVE SMOOTH"
);
}
);
width = 607;
}
);
leftKerningGroup = o;
rightKerningGroup = l;
unicode = 0064;
},
{
color = 6;
glyphname = eth;
lastChange = "2015-05-11 15:45:47 +0000";
layers = (
{
layerId = "E777F328-EA17-4AE7-9EBA-8002E537BA4F";
name = Light;
paths = (
{
closed = 1;
nodes = (
"95 851 LINE",
"353 704 OFFCURVE",
"432 486 OFFCURVE",
"432 294 CURVE SMOOTH",
"432 166 OFFCURVE",
"360 42 OFFCURVE",
"241 42 CURVE SMOOTH",
"132 42 OFFCURVE",
"79 113 OFFCURVE",
"79 192 CURVE SMOOTH",
"79 280 OFFCURVE",
"174 443 OFFCURVE",
"377 439 CURVE",
"343 473 OFFCURVE",
"311 491 OFFCURVE",
"272 523 CURVE",
"145 514 OFFCURVE",
"37 398 OFFCURVE",
"37 273 CURVE SMOOTH",
"37 65 OFFCURVE",
"156 -14 OFFCURVE",
"265 -14 CURVE SMOOTH",
"401 -14 OFFCURVE",
"513 126 OFFCURVE",
"513 276 CURVE SMOOTH",
"513 516 OFFCURVE",
"411 761 OFFCURVE",
"113 869 CURVE"
);
},
{
closed = 1;
nodes = (
"139 687 LINE",
"139 625 LINE",
"475 737 LINE",
"475 801 LINE"
);
}
);
width = 586;
},
{
layerId = "39185045-6A8C-415A-8312-7B8F11386A4C";
name = Regular;
paths = (
{
closed = 1;
nodes = (
"85 851 LINE",
"230 765 OFFCURVE",
"408 578 OFFCURVE",
"408 296 CURVE SMOOTH",
"408 159 OFFCURVE",
"353 52 OFFCURVE",
"267 52 CURVE SMOOTH",
"190 52 OFFCURVE",
"154 119 OFFCURVE",
"154 196 CURVE SMOOTH",
"154 294 OFFCURVE",
"236 417 OFFCURVE",
"369 420 CURVE",
"341 455 OFFCURVE",
"299 489 OFFCURVE",
"259 513 CURVE",
"133 496 OFFCURVE",
"39 379 OFFCURVE",
"39 260 CURVE SMOOTH",
"39 110 OFFCURVE",
"131 -13 OFFCURVE",
"287 -13 CURVE SMOOTH",
"435 -13 OFFCURVE",
"556 128 OFFCURVE",
"556 281 CURVE SMOOTH",
"556 622 OFFCURVE",
"306 805 OFFCURVE",
"106 877 CURVE"
);
},
{
closed = 1;
nodes = (
"123 681 LINE",
"123 608 LINE",
"479 748 LINE",
"479 822 LINE"
);
}
);
width = 586;
}
);
leftKerningGroup = eth;
rightKerningGroup = eth;
unicode = 00F0;
},
{
color = 6;
glyphname = dcroat;
lastChange = "2015-05-11 15:45:47 +0000";
layers = (
{
components = (
{
name = d;
}
);
layerId = "E777F328-EA17-4AE7-9EBA-8002E537BA4F";
name = Light;
paths = (
{
closed = 1;
nodes = (
"291 656 LINE",
"265 592 LINE",
"531 592 LINE",
"556 656 LINE"
);
}
);
width = 581;
},
{
components = (
{
name = d;
}
);
layerId = "39185045-6A8C-415A-8312-7B8F11386A4C";
name = Regular;
paths = (
{
closed = 1;
nodes = (
"238 654 LINE",
"210 587 LINE",
"568 587 LINE",
"596 654 LINE"
);
}
);
width = 606;
}
);
leftKerningGroup = o;
leftMetricsKey = "=d";
rightKerningGroup = l;
rightMetricsKey = "=d";
unicode = 0111;
},
{
color = 6;
glyphname = e;
lastChange = "2015-05-11 15:45:47 +0000";
layers = (
{
anchors = (
{
name = bottom;
position = "{261, 0}";
},
{
name = ogonek;
position = "{431, 7}";
},
{
name = top;
position = "{280, 537}";
}
);
background = {
paths = (
{
closed = 1;
nodes = (
"380 1085 OFFCURVE",
"81 780 OFFCURVE",
"81 449 CURVE SMOOTH",
"81 181 OFFCURVE",
"277 -28 OFFCURVE",
"547 -28 CURVE SMOOTH",
"762 -28 OFFCURVE",
"945 104 OFFCURVE",
"1071 268 CURVE",
"1030 313 LINE",
"941 231 OFFCURVE",
"802 119 OFFCURVE",
"673 119 CURVE SMOOTH",
"573 119 OFFCURVE",
"480 177 OFFCURVE",
"411 262 CURVE",
"592 339 OFFCURVE",
"998 635 OFFCURVE",
"998 842 CURVE SMOOTH",
"998 1013 OFFCURVE",
"864 1085 OFFCURVE",
"711 1085 CURVE SMOOTH"
);
},
{
closed = 1;
nodes = (
"683 950 OFFCURVE",
"740 896 OFFCURVE",
"740 792 CURVE SMOOTH",
"740 630 OFFCURVE",
"517 409 OFFCURVE",
"370 328 CURVE",
"328 389 OFFCURVE",
"309 467 OFFCURVE",
"309 545 CURVE SMOOTH",
"309 743 OFFCURVE",
"423 950 OFFCURVE",
"592 950 CURVE SMOOTH"
);
}
);
};
layerId = "E777F328-EA17-4AE7-9EBA-8002E537BA4F";
name = Light;
paths = (
{
closed = 1;
nodes = (
"179 509 OFFCURVE",
"47 356 OFFCURVE",
"47 207 CURVE SMOOTH",
"47 91 OFFCURVE",
"131 -12 OFFCURVE",
"254 -12 CURVE SMOOTH",
"369 -12 OFFCURVE",
"433 40 OFFCURVE",
"491 115 CURVE",
"481 135 LINE",
"441 86 OFFCURVE",
"372 49 OFFCURVE",
"305 49 CURVE SMOOTH",
"250 49 OFFCURVE",
"207 64 OFFCURVE",
"170 122 CURVE",
"253 155 OFFCURVE",
"449 293 OFFCURVE",
"449 394 CURVE SMOOTH",
"449 474 OFFCURVE",
"393 509 OFFCURVE",
"328 509 CURVE SMOOTH"
);
},
{
closed = 1;
nodes = (
"333 446 OFFCURVE",
"369 426 OFFCURVE",
"369 372 CURVE SMOOTH",
"369 293 OFFCURVE",
"233 182 OFFCURVE",
"148 147 CURVE",
"128 176 OFFCURVE",
"118 212 OFFCURVE",
"118 254 CURVE SMOOTH",
"118 347 OFFCURVE",
"181 446 OFFCURVE",
"277 446 CURVE SMOOTH"
);
}
);
width = 518;
},
{
anchors = (
{
name = bottom;
position = "{270, 0}";
},
{
name = ogonek;
position = "{443, 7}";
},
{
name = top;
position = "{286, 537}";
}
);
layerId = "39185045-6A8C-415A-8312-7B8F11386A4C";
name = Regular;
paths = (
{
closed = 1;
nodes = (
"179 509 OFFCURVE",
"32 371 OFFCURVE",
"32 212 CURVE SMOOTH",
"32 78 OFFCURVE",
"130 -12 OFFCURVE",
"264 -12 CURVE SMOOTH",
"380 -12 OFFCURVE",
"456 56 OFFCURVE",
"516 131 CURVE",
"490 158 LINE",
"446 100 OFFCURVE",
"385 59 OFFCURVE",
"328 59 CURVE SMOOTH",
"286 59 OFFCURVE",
"239 77 OFFCURVE",
"213 122 CURVE",
"299 162 OFFCURVE",
"488 298 OFFCURVE",
"488 394 CURVE SMOOTH",
"488 473 OFFCURVE",
"419 509 OFFCURVE",
"341 509 CURVE SMOOTH"
);
},
{
closed = 1;
nodes = (
"314 443 OFFCURVE",
"335 414 OFFCURVE",
"335 370 CURVE SMOOTH",
"335 298 OFFCURVE",
"250 200 OFFCURVE",
"191 159 CURVE",
"176 187 OFFCURVE",
"167 222 OFFCURVE",
"167 259 CURVE SMOOTH",
"167 347 OFFCURVE",
"214 443 OFFCURVE",
"280 443 CURVE SMOOTH"
);
}
);
width = 541;
}
);
leftKerningGroup = o;
rightKerningGroup = e;
unicode = 0065;
},
{
color = 6;
glyphname = f;
lastChange = "2015-05-11 15:45:47 +0000";
layers = (
{
layerId = "E777F328-EA17-4AE7-9EBA-8002E537BA4F";
name = Light;
paths = (
{
closed = 1;
nodes = (
"149 932 OFFCURVE",
"94 777 OFFCURVE",
"94 635 CURVE SMOOTH",
"94 500 LINE",
"55 500 LINE",
"29 437 LINE",
"94 437 LINE",
"94 -177 LINE",
"174 -135 LINE",
"174 437 LINE",
"365 437 LINE",
"396 500 LINE",
"174 500 LINE",
"174 779 LINE SMOOTH",
"174 830 OFFCURVE",
"195 899 OFFCURVE",
"278 899 CURVE SMOOTH",
"340 899 OFFCURVE",
"377 856 OFFCURVE",
"396 824 CURVE",
"452 856 LINE",
"416 900 OFFCURVE",
"357 932 OFFCURVE",
"325 932 CURVE SMOOTH"
);
}
);
width = 368;
},
{
layerId = "39185045-6A8C-415A-8312-7B8F11386A4C";
name = Regular;
paths = (
{
closed = 1;
nodes = (
"152 932 OFFCURVE",
"90 777 OFFCURVE",
"90 635 CURVE SMOOTH",
"90 500 LINE",
"50 500 LINE",
"21 432 LINE",
"90 432 LINE",
"90 -185 LINE",
"239 -129 LINE",
"239 432 LINE",
"363 432 LINE",
"394 500 LINE",
"239 500 LINE",
"239 768 LINE SMOOTH",
"239 814 OFFCURVE",
"251 876 OFFCURVE",
"306 876 CURVE SMOOTH",
"345 876 OFFCURVE",
"372 833 OFFCURVE",
"385 774 CURVE",
"505 838 LINE",
"470 899 OFFCURVE",
"401 932 OFFCURVE",
"339 932 CURVE SMOOTH"
);
}
);
width = 367;
}
);
leftKerningGroup = f;
rightKerningGroup = f;
unicode = 0066;
},
{
color = 6;
glyphname = g;
lastChange = "2015-05-11 15:45:47 +0000";
layers = (
{
anchors = (
{
name = top;
position = "{295, 537}";
}
);
layerId = "E777F328-EA17-4AE7-9EBA-8002E537BA4F";
name = Light;
paths = (
{
closed = 1;
nodes = (
"164 515 OFFCURVE",
"50 360 OFFCURVE",
"50 188 CURVE SMOOTH",
"50 78 OFFCURVE",
"107 -12 OFFCURVE",
"230 -12 CURVE SMOOTH",
"302 -12 OFFCURVE",
"347 58 OFFCURVE",
"385 113 CURVE",
"392 113 LINE",
"386 93 OFFCURVE",
"385 72 OFFCURVE",
"385 58 CURVE",
"388 -28 LINE",
"388 -106 OFFCURVE",
"382 -228 OFFCURVE",
"265 -228 CURVE SMOOTH",
"228 -228 OFFCURVE",
"208 -209 OFFCURVE",
"204 -189 CURVE",
"118 -257 LINE",
"140 -284 OFFCURVE",
"169 -296 OFFCURVE",
"204 -296 CURVE SMOOTH",
"365 -296 OFFCURVE",
"463 -98 OFFCURVE",
"463 45 CURVE SMOOTH",
"463 350 LINE",
"385 315 LINE",
"385 270 LINE SMOOTH",
"385 199 OFFCURVE",
"366 59 OFFCURVE",
"247 59 CURVE SMOOTH",
"147 59 OFFCURVE",
"116 160 OFFCURVE",
"116 238 CURVE SMOOTH",
"116 323 OFFCURVE",
"179 454 OFFCURVE",
"291 454 CURVE SMOOTH",
"338 454 OFFCURVE",
"380 423 OFFCURVE",
"401 377 CURVE",
"463 415 LINE",
"432 476 OFFCURVE",
"368 515 OFFCURVE",
"307 515 CURVE SMOOTH"
);
}
);
width = 540;
},
{
anchors = (
{
name = top;
position = "{302, 537}";
}
);
layerId = "39185045-6A8C-415A-8312-7B8F11386A4C";
name = Regular;
paths = (
{
closed = 1;
nodes = (
"145 505 OFFCURVE",
"39 347 OFFCURVE",
"39 189 CURVE SMOOTH",
"39 80 OFFCURVE",
"100 -12 OFFCURVE",
"206 -12 CURVE SMOOTH",
"283 -12 OFFCURVE",
"329 46 OFFCURVE",
"356 106 CURVE",
"364 106 LINE",
"358 84 OFFCURVE",
"355 51 OFFCURVE",
"355 21 CURVE SMOOTH",
"355 -38 LINE SMOOTH",
"355 -129 OFFCURVE",
"343 -210 OFFCURVE",
"255 -210 CURVE SMOOTH",
"228 -210 OFFCURVE",
"200 -196 OFFCURVE",
"169 -167 CURVE",
"86 -257 LINE",
"113 -283 OFFCURVE",
"147 -292 OFFCURVE",
"182 -292 CURVE SMOOTH",
"349 -292 OFFCURVE",
"502 -109 OFFCURVE",
"502 51 CURVE SMOOTH",
"502 360 LINE",
"355 314 LINE",
"355 270 LINE SMOOTH",
"355 200 OFFCURVE",
"342 64 OFFCURVE",
"262 64 CURVE SMOOTH",
"195 64 OFFCURVE",
"176 158 OFFCURVE",
"176 238 CURVE SMOOTH",
"176 327 OFFCURVE",
"221 438 OFFCURVE",
"297 438 CURVE SMOOTH",
"329 438 OFFCURVE",
"360 418 OFFCURVE",
"378 372 CURVE",
"501 413 LINE",
"468 476 OFFCURVE",
"394 505 OFFCURVE",
"324 505 CURVE SMOOTH"
);
}
);
width = 570;
}
);
leftKerningGroup = g;
rightKerningGroup = g;
unicode = 0067;
},
{
color = 6;
glyphname = h;
lastChange = "2015-05-11 15:45:47 +0000";
layers = (
{
anchors = (
{
name = center;
position = "{280, 269}";
},
{
name = top;
position = "{137, 902}";
}
);
layerId = "E777F328-EA17-4AE7-9EBA-8002E537BA4F";
name = Light;
paths = (
{
closed = 1;
nodes = (
"86 888 LINE",
"86 -14 LINE",
"163 11 LINE",
"163 30 OFFCURVE",
"216 397 OFFCURVE",
"339 397 CURVE SMOOTH",
"360 397 OFFCURVE",
"365 375 OFFCURVE",
"365 361 CURVE SMOOTH",
"365 95 LINE SMOOTH",
"365 23 OFFCURVE",
"392 -4 OFFCURVE",
"437 -4 CURVE SMOOTH",
"474 -4 OFFCURVE",
"520 29 OFFCURVE",
"538 73 CURVE",
"527 87 LINE",
"516 70 OFFCURVE",
"497 46 OFFCURVE",
"473 46 CURVE SMOOTH",
"448 46 OFFCURVE",
"441 70 OFFCURVE",
"441 80 CURVE SMOOTH",
"441 359 LINE SMOOTH",
"441 419 OFFCURVE",
"446 509 OFFCURVE",
"380 509 CURVE SMOOTH",
"248 509 OFFCURVE",
"184 278 OFFCURVE",
"171 199 CURVE",
"167 199 LINE",
"167 924 LINE"
);
}
);
width = 558;
},
{
anchors = (
{
name = center;
position = "{302, 269}";
},
{
name = top;
position = "{161, 902}";
}
);
layerId = "39185045-6A8C-415A-8312-7B8F11386A4C";
name = Regular;
paths = (
{
closed = 1;
nodes = (
"77 878 LINE",
"77 -13 LINE",
"228 15 LINE",
"228 167 OFFCURVE",
"268 392 OFFCURVE",
"336 392 CURVE SMOOTH",
"349 392 OFFCURVE",
"352 371 OFFCURVE",
"352 359 CURVE SMOOTH",
"352 100 LINE SMOOTH",
"352 39 OFFCURVE",
"382 -9 OFFCURVE",
"463 -9 CURVE SMOOTH",
"527 -9 OFFCURVE",
"572 36 OFFCURVE",
"594 77 CURVE",
"574 99 LINE",
"563 85 OFFCURVE",
"545 68 OFFCURVE",
"526 68 CURVE SMOOTH",
"509 68 OFFCURVE",
"500 83 OFFCURVE",
"500 101 CURVE SMOOTH",
"500 376 LINE SMOOTH",
"500 435 OFFCURVE",
"494 509 OFFCURVE",
"415 509 CURVE SMOOTH",
"320 509 OFFCURVE",
"257 394 OFFCURVE",
"230 283 CURVE",
"225 283 LINE",
"225 924 LINE"
);
}
);
width = 601;
}
);
leftKerningGroup = h;
rightKerningGroup = n;
unicode = 0068;
},
{
color = 6;
glyphname = hbar;
lastChange = "2015-05-11 15:45:47 +0000";
layers = (
{
components = (
{
name = h;
}
);
layerId = "E777F328-EA17-4AE7-9EBA-8002E537BA4F";
name = Light;
paths = (
{
closed = 1;
nodes = (
"23 656 LINE",
"-4 592 LINE",
"275 592 LINE",
"300 656 LINE"
);
}
);
width = 558;
},
{
components = (
{
name = h;
}
);
layerId = "39185045-6A8C-415A-8312-7B8F11386A4C";
name = Regular;
paths = (
{
closed = 1;
nodes = (
"13 654 LINE",
"-16 587 LINE",
"305 587 LINE",
"331 654 LINE"
);
}
);
width = 601;
}
);
leftKerningGroup = h;
rightKerningGroup = n;
unicode = 0127;
},
{
color = 6;
glyphname = i;
lastChange = "2015-05-11 15:45:47 +0000";
layers = (
{
layerId = "E777F328-EA17-4AE7-9EBA-8002E537BA4F";
name = Light;
paths = (
{
closed = 1;
nodes = (
"91 461 LINE",
"91 95 LINE SMOOTH",
"91 14 OFFCURVE",
"122 -4 OFFCURVE",
"160 -4 CURVE SMOOTH",
"181 -4 OFFCURVE",
"235 6 OFFCURVE",
"271 73 CURVE",
"256 87 LINE",
"236 58 OFFCURVE",
"217 46 OFFCURVE",
"203 46 CURVE SMOOTH",
"183 46 OFFCURVE",
"173 62 OFFCURVE",
"173 80 CURVE SMOOTH",
"173 495 LINE"
);
},
{
closed = 1;
nodes = (
"77 798 LINE",
"119 591 LINE",
"140 599 LINE",
"174 831 LINE"
);
}
);
width = 290;
},
{
layerId = "39185045-6A8C-415A-8312-7B8F11386A4C";
name = Regular;
paths = (
{
closed = 1;
nodes = (
"77 456 LINE",
"77 100 LINE SMOOTH",
"77 36 OFFCURVE",
"106 -9 OFFCURVE",
"184 -9 CURVE SMOOTH",
"243 -9 OFFCURVE",
"291 28 OFFCURVE",
"319 77 CURVE",
"298 99 LINE",
"284 80 OFFCURVE",
"266 68 OFFCURVE",
"249 68 CURVE SMOOTH",
"235 68 OFFCURVE",
"226 80 OFFCURVE",
"226 101 CURVE SMOOTH",
"226 503 LINE"
);
},
{
closed = 1;
nodes = (
"62 791 LINE",
"102 580 LINE",
"195 610 LINE",
"230 848 LINE"
);
}
);
width = 328;
}
);
leftKerningGroup = i;
rightKerningGroup = i;
unicode = 0069;
},
{
color = 6;
glyphname = dotlessi;
lastChange = "2015-05-11 15:45:47 +0000";
layers = (
{
anchors = (
{
name = ogonek;
position = "{263, 7}";
},
{
name = top;
position = "{120, 537}";
}
);
layerId = "E777F328-EA17-4AE7-9EBA-8002E537BA4F";
name = Light;
paths = (
{
closed = 1;
nodes = (
"92 461 LINE",
"92 95 LINE SMOOTH",
"92 14 OFFCURVE",
"120 -4 OFFCURVE",
"160 -4 CURVE SMOOTH",
"181 -4 OFFCURVE",
"236 6 OFFCURVE",
"272 73 CURVE",
"257 87 LINE",
"236 58 OFFCURVE",
"218 46 OFFCURVE",
"204 46 CURVE SMOOTH",
"184 46 OFFCURVE",
"173 62 OFFCURVE",
"173 80 CURVE SMOOTH",
"173 495 LINE"
);
}
);
width = 291;
},
{
anchors = (
{
name = ogonek;
position = "{322, 7}";
},
{
name = top;
position = "{156, 537}";
}
);
layerId = "39185045-6A8C-415A-8312-7B8F11386A4C";
name = Regular;
paths = (
{
closed = 1;
nodes = (
"77 456 LINE",
"77 100 LINE SMOOTH",
"77 36 OFFCURVE",
"105 -9 OFFCURVE",
"184 -9 CURVE SMOOTH",
"243 -9 OFFCURVE",
"292 28 OFFCURVE",
"320 77 CURVE",
"299 99 LINE",
"284 80 OFFCURVE",
"266 68 OFFCURVE",
"250 68 CURVE SMOOTH",
"236 68 OFFCURVE",
"226 80 OFFCURVE",
"226 101 CURVE SMOOTH",
"226 503 LINE"
);
}
);
width = 329;
}
);
leftKerningGroup = i;
rightKerningGroup = i;
unicode = 0131;
},
{
color = 6;
glyphname = j;
lastChange = "2015-05-11 15:45:47 +0000";
layers = (
{
layerId = "E777F328-EA17-4AE7-9EBA-8002E537BA4F";
name = Light;
paths = (
{
closed = 1;
nodes = (
"186 831 LINE",
"149 599 LINE",
"126 591 LINE",
"87 798 LINE"
);
},
{
closed = 1;
nodes = (
"180 54 LINE SMOOTH",
"180 -134 OFFCURVE",
"41 -294 OFFCURVE",
"-101 -294 CURVE SMOOTH",
"-128 -294 OFFCURVE",
"-154 -288 OFFCURVE",
"-184 -268 CURVE",
"-114 -181 LINE",
"-83 -209 OFFCURVE",
"-46 -215 OFFCURVE",
"-16 -215 CURVE SMOOTH",
"37 -215 OFFCURVE",
"102 -191 OFFCURVE",
"102 -8 CURVE SMOOTH",
"102 459 LINE",
"180 495 LINE"
);
}
);
width = 269;
},
{
layerId = "39185045-6A8C-415A-8312-7B8F11386A4C";
name = Regular;
paths = (
{
closed = 1;
nodes = (
"237 848 LINE",
"201 610 LINE",
"108 580 LINE",
"69 791 LINE"
);
},
{
closed = 1;
nodes = (
"230 55 LINE SMOOTH",
"230 -122 OFFCURVE",
"62 -291 OFFCURVE",
"-99 -291 CURVE SMOOTH",
"-131 -291 OFFCURVE",
"-165 -284 OFFCURVE",
"-194 -261 CURVE",
"-115 -164 LINE",
"-76 -196 OFFCURVE",
"-42 -205 OFFCURVE",
"-17 -205 CURVE SMOOTH",
"49 -205 OFFCURVE",
"82 -159 OFFCURVE",
"82 -31 CURVE SMOOTH",
"82 457 LINE",
"230 503 LINE"
);
}
);
width = 302;
}
);
leftKerningGroup = j;
rightKerningGroup = j;
unicode = 006A;
},
{
color = 6;
glyphname = dotlessj;
lastChange = "2015-05-11 15:45:47 +0000";
layers = (
{
anchors = (
{
name = top;
position = "{145, 537}";
}
);
layerId = "E777F328-EA17-4AE7-9EBA-8002E537BA4F";
name = Light;
paths = (
{
closed = 1;
nodes = (
"180 54 LINE SMOOTH",
"180 -134 OFFCURVE",
"41 -294 OFFCURVE",
"-104 -294 CURVE SMOOTH",
"-128 -294 OFFCURVE",
"-154 -288 OFFCURVE",
"-184 -268 CURVE",
"-114 -181 LINE",
"-83 -209 OFFCURVE",
"-49 -215 OFFCURVE",
"-16 -215 CURVE",
"37 -215 OFFCURVE",
"102 -191 OFFCURVE",
"102 -8 CURVE SMOOTH",
"102 459 LINE",
"180 495 LINE"
);
}
);
width = 268;
},
{
anchors = (
{
name = top;
position = "{158, 537}";
}
);
layerId = "39185045-6A8C-415A-8312-7B8F11386A4C";
name = Regular;
paths = (
{
closed = 1;
nodes = (
"230 55 LINE SMOOTH",
"230 -122 OFFCURVE",
"62 -291 OFFCURVE",
"-101 -291 CURVE SMOOTH",
"-131 -291 OFFCURVE",
"-165 -284 OFFCURVE",
"-194 -261 CURVE",
"-115 -164 LINE",
"-76 -196 OFFCURVE",
"-43 -205 OFFCURVE",
"-17 -205 CURVE SMOOTH",
"49 -205 OFFCURVE",
"82 -159 OFFCURVE",
"82 -31 CURVE SMOOTH",
"82 457 LINE",
"230 503 LINE"
);
}
);
width = 302;
}
);
leftKerningGroup = j;
rightKerningGroup = j;
unicode = 0237;
},
{
color = 6;
glyphname = k;
lastChange = "2015-05-11 15:45:47 +0000";
layers = (
{
anchors = (
{
name = bottom;
position = "{270, 0}";
}
);
layerId = "E777F328-EA17-4AE7-9EBA-8002E537BA4F";
name = Light;
paths = (
{
closed = 1;
nodes = (
"89 888 LINE",
"89 -14 LINE",
"169 11 LINE",
"170 51 OFFCURVE",
"177 130 OFFCURVE",
"188 165 CURVE",
"197 173 LINE",
"240 144 OFFCURVE",
"301 -10 OFFCURVE",
"398 -10 CURVE SMOOTH",
"441 -10 OFFCURVE",
"500 14 OFFCURVE",
"531 62 CURVE",
"516 77 LINE",
"498 57 OFFCURVE",
"476 43 OFFCURVE",
"449 43 CURVE SMOOTH",
"392 43 OFFCURVE",
"306 183 OFFCURVE",
"288 211 CURVE",
"356 251 OFFCURVE",
"460 333 OFFCURVE",
"460 423 CURVE SMOOTH",
"460 469 OFFCURVE",
"436 509 OFFCURVE",
"394 509 CURVE SMOOTH",
"273 509 OFFCURVE",
"197 280 OFFCURVE",
"174 183 CURVE",
"167 183 LINE",
"167 924 LINE"
);
},
{
closed = 1;
nodes = (
"360 399 OFFCURVE",
"372 373 OFFCURVE",
"372 359 CURVE SMOOTH",
"372 284 OFFCURVE",
"268 214 OFFCURVE",
"192 188 CURVE",
"203 188 OFFCURVE",
"272 399 OFFCURVE",
"336 399 CURVE SMOOTH"
);
}
);
width = 546;
},
{
anchors = (
{
name = bottom;
position = "{296, 0}";
}
);
layerId = "39185045-6A8C-415A-8312-7B8F11386A4C";
name = Regular;
paths = (
{
closed = 1;
nodes = (
"73 878 LINE",
"73 -13 LINE",
"221 15 LINE",
"221 46 OFFCURVE",
"227 104 OFFCURVE",
"234 133 CURVE",
"243 136 LINE",
"297 75 OFFCURVE",
"355 -11 OFFCURVE",
"437 -11 CURVE SMOOTH",
"509 -11 OFFCURVE",
"566 35 OFFCURVE",
"593 80 CURVE",
"572 104 LINE",
"559 88 OFFCURVE",
"538 75 OFFCURVE",
"512 75 CURVE SMOOTH",
"466 75 OFFCURVE",
"417 142 OFFCURVE",
"365 205 CURVE",
"433 248 OFFCURVE",
"533 326 OFFCURVE",
"533 422 CURVE SMOOTH",
"533 469 OFFCURVE",
"499 509 OFFCURVE",
"442 509 CURVE SMOOTH",
"328 509 OFFCURVE",
"267 375 OFFCURVE",
"229 251 CURVE",
"222 251 LINE",
"222 924 LINE"
);
},
{
closed = 1;
nodes = (
"378 410 OFFCURVE",
"387 393 OFFCURVE",
"387 370 CURVE SMOOTH",
"387 307 OFFCURVE",
"320 232 OFFCURVE",
"238 172 CURVE",
"255 244 OFFCURVE",
"316 410 OFFCURVE",
"361 410 CURVE SMOOTH"
);
}
);
width = 594;
}
);
leftKerningGroup = h;
rightKerningGroup = k;
unicode = 006B;
},
{
color = 6;
glyphname = kgreenlandic;
lastChange = "2015-05-11 15:45:47 +0000";
layers = (
{
background = {
paths = (
{
closed = 1;
nodes = (
"1166 153 LINE",
"1112 57 OFFCURVE",
"998 -23 OFFCURVE",
"886 -23 CURVE SMOOTH",
"743 -23 OFFCURVE",
"570 223 OFFCURVE",
"468 325 CURVE",
"446 313 LINE",
"428 246 OFFCURVE",
"418 103 OFFCURVE",
"414 32 CURVE",
"161 -57 LINE",
"161 1024 LINE",
"414 1113 LINE",
"414 446 LINE",
"474 649 OFFCURVE",
"619 1085 OFFCURVE",
"883 1085 CURVE SMOOTH",
"991 1085 OFFCURVE",
"1058 1004 OFFCURVE",
"1058 902 CURVE SMOOTH",
"1058 694 OFFCURVE",
"826 513 OFFCURVE",
"668 423 CURVE",
"747 355 OFFCURVE",
"886 135 OFFCURVE",
"993 135 CURVE SMOOTH",
"1047 135 OFFCURVE",
"1092 161 OFFCURVE",
"1122 200 CURVE"
);
},
{
closed = 1;
nodes = (
"797 832 OFFCURVE",
"762 866 OFFCURVE",
"733 866 CURVE SMOOTH",
"621 866 OFFCURVE",
"502 502 OFFCURVE",
"474 418 CURVE",
"549 474 OFFCURVE",
"797 707 OFFCURVE",
"797 802 CURVE SMOOTH"
);
}
);
};
layerId = "E777F328-EA17-4AE7-9EBA-8002E537BA4F";
name = Light;
paths = (
{
closed = 1;
nodes = (
"89 -14 LINE",
"169 11 LINE",
"173 51 OFFCURVE",
"177 139 OFFCURVE",
"191 173 CURVE",
"200 173 LINE",
"230 160 OFFCURVE",
"340 -10 OFFCURVE",
"402 -10 CURVE SMOOTH",
"436 -10 OFFCURVE",
"491 14 OFFCURVE",
"516 62 CURVE",
"496 77 LINE",
"481 57 OFFCURVE",
"460 43 OFFCURVE",
"434 43 CURVE SMOOTH",
"371 43 OFFCURVE",
"282 193 OFFCURVE",
"263 189 CURVE",
"345 231 OFFCURVE",
"465 320 OFFCURVE",
"465 423 CURVE SMOOTH",
"465 469 OFFCURVE",
"438 509 OFFCURVE",
"398 509 CURVE SMOOTH",
"275 509 OFFCURVE",
"197 277 OFFCURVE",
"176 183 CURVE",
"168 183 LINE",
"168 530 LINE",
"89 494 LINE"
);
},
{
closed = 1;
nodes = (
"365 399 OFFCURVE",
"375 378 OFFCURVE",
"375 375 CURVE SMOOTH",
"375 338 OFFCURVE",
"216 210 OFFCURVE",
"210 214 CURVE",
"217 209 OFFCURVE",
"275 399 OFFCURVE",
"338 399 CURVE SMOOTH"
);
}
);
width = 546;
},
{
layerId = "39185045-6A8C-415A-8312-7B8F11386A4C";
name = Regular;
paths = (
{
closed = 1;
nodes = (
"73 -13 LINE",
"221 15 LINE",
"222 46 OFFCURVE",
"227 107 OFFCURVE",
"235 136 CURVE",
"244 136 LINE",
"307 63 OFFCURVE",
"369 -11 OFFCURVE",
"439 -11 CURVE SMOOTH",
"508 -11 OFFCURVE",
"563 35 OFFCURVE",
"588 80 CURVE",
"564 104 LINE",
"553 88 OFFCURVE",
"533 75 OFFCURVE",
"507 75 CURVE SMOOTH",
"461 75 OFFCURVE",
"411 148 OFFCURVE",
"363 206 CURVE",
"434 248 OFFCURVE",
"535 329 OFFCURVE",
"535 422 CURVE SMOOTH",
"535 469 OFFCURVE",
"500 509 OFFCURVE",
"444 509 CURVE SMOOTH",
"329 509 OFFCURVE",
"267 374 OFFCURVE",
"230 251 CURVE",
"222 251 LINE",
"222 516 LINE",
"73 470 LINE"
);
},
{
closed = 1;
nodes = (
"378 410 OFFCURVE",
"387 395 OFFCURVE",
"387 375 CURVE SMOOTH",
"387 326 OFFCURVE",
"301 230 OFFCURVE",
"244 181 CURVE",
"259 251 OFFCURVE",
"317 410 OFFCURVE",
"362 410 CURVE SMOOTH"
);
}
);
width = 594;
}
);
leftKerningGroup = h;
rightKerningGroup = k;
unicode = 0138;
},
{
color = 6;
glyphname = l;
lastChange = "2015-05-11 15:45:47 +0000";
layers = (
{
anchors = (
{
name = bottom;
position = "{145, 0}";
},
{
name = top;
position = "{145, 902}";
},
{
name = topright;
position = "{276, 537}";
}
);
layerId = "E777F328-EA17-4AE7-9EBA-8002E537BA4F";
name = Light;
paths = (
{
closed = 1;
nodes = (
"95 888 LINE",
"95 95 LINE SMOOTH",
"95 23 OFFCURVE",
"124 -4 OFFCURVE",
"173 -4 CURVE SMOOTH",
"208 -4 OFFCURVE",
"254 29 OFFCURVE",
"275 73 CURVE",
"259 87 LINE",
"250 70 OFFCURVE",
"227 46 OFFCURVE",
"205 46 CURVE SMOOTH",
"179 46 OFFCURVE",
"173 70 OFFCURVE",
"173 80 CURVE SMOOTH",
"173 924 LINE"
);
}
);
width = 293;
},
{
anchors = (
{
name = bottom;
position = "{165, 0}";
},
{
name = top;
position = "{165, 902}";
},
{
name = topright;
position = "{315, 537}";
}
);
layerId = "39185045-6A8C-415A-8312-7B8F11386A4C";
name = Regular;
paths = (
{
closed = 1;
nodes = (
"78 878 LINE",
"78 100 LINE SMOOTH",
"78 39 OFFCURVE",
"107 -9 OFFCURVE",
"188 -9 CURVE SMOOTH",
"253 -9 OFFCURVE",
"298 36 OFFCURVE",
"320 77 CURVE",
"300 99 LINE",
"290 85 OFFCURVE",
"269 68 OFFCURVE",
"250 68 CURVE SMOOTH",
"234 68 OFFCURVE",
"226 83 OFFCURVE",
"226 101 CURVE SMOOTH",
"226 925 LINE"
);
}
);
width = 329;
}
);
leftKerningGroup = h;
rightKerningGroup = l;
unicode = 006C;
},
{
color = 6;
glyphname = lslash;
lastChange = "2015-05-11 15:45:47 +0000";
layers = (
{
components = (
{
name = l;
}
);
layerId = "E777F328-EA17-4AE7-9EBA-8002E537BA4F";
name = Light;
paths = (
{
closed = 1;
nodes = (
"1 419 LINE",
"1 351 LINE",
"296 479 LINE",
"296 548 LINE"
);
}
);
width = 293;
},
{
components = (
{
name = l;
}
);
layerId = "39185045-6A8C-415A-8312-7B8F11386A4C";
name = Regular;
paths = (
{
closed = 1;
nodes = (
"-2 418 LINE",
"-2 343 LINE",
"316 477 LINE",
"316 554 LINE"
);
}
);
width = 329;
}
);
leftKerningGroup = lslash;
rightKerningGroup = lslash;
unicode = 0142;
},
{
color = 6;
glyphname = m;
lastChange = "2015-05-11 15:45:47 +0000";
layers = (
{
background = {
paths = (
{
closed = 1;
nodes = (
"1255 1085 OFFCURVE",
"1051 914 OFFCURVE",
"975 608 CURVE",
"967 608 LINE",
"967 880 LINE SMOOTH",
"967 1014 OFFCURVE",
"947 1085 OFFCURVE",
"840 1085 CURVE SMOOTH",
"758 1085 OFFCURVE",
"554 914 OFFCURVE",
"480 608 CURVE",
"471 608 LINE",
"471 864 LINE SMOOTH",
"471 974 OFFCURVE",
"431 1085 OFFCURVE",
"268 1085 CURVE",
"268 1085 OFFCURVE",
"103 1085 OFFCURVE",
"19 908 CURVE",
"57 866 LINE",
"92 919 OFFCURVE",
"131 941 OFFCURVE",
"163 941 CURVE SMOOTH",
"196 941 OFFCURVE",
"221 915 OFFCURVE",
"221 869 CURVE SMOOTH",
"221 -57 LINE",
"471 32 LINE",
"465 372 OFFCURVE",
"608 770 OFFCURVE",
"608 770 CURVE",
"635 824 OFFCURVE",
"658 842 OFFCURVE",
"678 842 CURVE SMOOTH",
"699 842 OFFCURVE",
"714 815 OFFCURVE",
"714 783 CURVE SMOOTH",
"714 -57 LINE",
"967 32 LINE",
"974 401 OFFCURVE",
"1106 770 OFFCURVE",
"1106 770 CURVE",
"1134 824 OFFCURVE",
"1157 842 OFFCURVE",
"1175 842 CURVE SMOOTH",
"1196 842 OFFCURVE",
"1211 815 OFFCURVE",
"1211 783 CURVE SMOOTH",
"1211 207 LINE SMOOTH",
"1211 96 OFFCURVE",
"1252 -17 OFFCURVE",
"1416 -17 CURVE",
"1416 -17 OFFCURVE",
"1580 -17 OFFCURVE",
"1663 161 CURVE",
"1625 203 LINE",
"1590 151 OFFCURVE",
"1551 128 OFFCURVE",
"1520 128 CURVE SMOOTH",
"1487 128 OFFCURVE",
"1463 154 OFFCURVE",
"1463 200 CURVE SMOOTH",
"1463 880 LINE SMOOTH",
"1463 1014 OFFCURVE",
"1441 1085 OFFCURVE",
"1337 1085 CURVE SMOOTH"
);
}
);
};
layerId = "E777F328-EA17-4AE7-9EBA-8002E537BA4F";
name = Light;
paths = (
{
closed = 1;
nodes = (
"523 509 OFFCURVE",
"461 409 OFFCURVE",
"428 259 CURVE",
"423 259 LINE",
"423 428 LINE SMOOTH",
"423 494 OFFCURVE",
"398 509 OFFCURVE",
"364 509 CURVE SMOOTH",
"311 509 OFFCURVE",
"249 409 OFFCURVE",
"214 259 CURVE",
"212 259 LINE",
"212 446 LINE SMOOTH",
"212 476 OFFCURVE",
"203 509 OFFCURVE",
"135 509 CURVE",
"180 509 OFFCURVE",
"86 536 OFFCURVE",
"35 424 CURVE",
"50 409 LINE",
"69 442 OFFCURVE",
"87 454 OFFCURVE",
"102 454 CURVE SMOOTH",
"120 454 OFFCURVE",
"132 438 OFFCURVE",
"132 417 CURVE SMOOTH",
"132 -14 LINE",
"207 11 LINE",
"207 255 OFFCURVE",
"288 397 OFFCURVE",
"324 397 CURVE SMOOTH",
"333 397 OFFCURVE",
"341 388 OFFCURVE",
"341 374 CURVE SMOOTH",
"341 -14 LINE",
"421 11 LINE",
"421 255 OFFCURVE",
"494 397 OFFCURVE",
"536 397 CURVE SMOOTH",
"545 397 OFFCURVE",
"554 388 OFFCURVE",
"554 374 CURVE SMOOTH",
"554 95 LINE SMOOTH",
"554 42 OFFCURVE",
"569 -4 OFFCURVE",
"632 -4 CURVE",
"585 -4 OFFCURVE",
"680 -36 OFFCURVE",
"730 73 CURVE",
"716 87 LINE",
"696 59 OFFCURVE",
"676 46 OFFCURVE",
"662 46 CURVE SMOOTH",
"644 46 OFFCURVE",
"635 62 OFFCURVE",
"635 80 CURVE SMOOTH",
"635 428 LINE SMOOTH",
"635 494 OFFCURVE",
"608 509 OFFCURVE",
"577 509 CURVE SMOOTH"
);
}
);
width = 763;
},
{
layerId = "39185045-6A8C-415A-8312-7B8F11386A4C";
name = Regular;
paths = (
{
closed = 1;
nodes = (
"603 509 OFFCURVE",
"542 441 OFFCURVE",
"509 304 CURVE",
"502 304 LINE",
"502 401 LINE SMOOTH",
"502 462 OFFCURVE",
"490 509 OFFCURVE",
"421 509 CURVE SMOOTH",
"355 509 OFFCURVE",
"293 441 OFFCURVE",
"260 304 CURVE",
"255 304 LINE",
"255 374 LINE",
"255 444 OFFCURVE",
"230 509 OFFCURVE",
"148 509 CURVE SMOOTH",
"113 509 OFFCURVE",
"50 487 OFFCURVE",
"17 424 CURVE",
"39 401 LINE",
"51 420 OFFCURVE",
"71 433 OFFCURVE",
"86 433 CURVE SMOOTH",
"99 433 OFFCURVE",
"111 423 OFFCURVE",
"111 399 CURVE SMOOTH",
"111 -13 LINE",
"257 15 LINE",
"257 248 OFFCURVE",
"306 392 OFFCURVE",
"342 392 CURVE SMOOTH",
"353 392 OFFCURVE",
"356 375 OFFCURVE",
"356 364 CURVE SMOOTH",
"356 -13 LINE",
"506 15 LINE",
"506 248 OFFCURVE",
"554 392 OFFCURVE",
"590 392 CURVE SMOOTH",
"602 392 OFFCURVE",
"605 375 OFFCURVE",
"605 364 CURVE SMOOTH",
"605 100 LINE SMOOTH",
"605 46 OFFCURVE",
"629 -9 OFFCURVE",
"716 -9 CURVE SMOOTH",
"752 -9 OFFCURVE",
"814 13 OFFCURVE",
"847 77 CURVE",
"825 99 LINE",
"813 80 OFFCURVE",
"793 68 OFFCURVE",
"778 68 CURVE SMOOTH",
"764 68 OFFCURVE",
"753 80 OFFCURVE",
"753 101 CURVE SMOOTH",
"753 401 LINE SMOOTH",
"753 462 OFFCURVE",
"736 509 OFFCURVE",
"669 509 CURVE SMOOTH"
);
}
);
width = 859;
}
);
leftKerningGroup = n;
rightKerningGroup = n;
unicode = 006D;
},
{
color = 6;
glyphname = n;
lastChange = "2015-05-11 15:45:47 +0000";
layers = (
{
anchors = (
{
name = bottom;
position = "{303, 0}";
},
{
name = top;
position = "{316, 537}";
},
{
name = topleft;
position = "{131, 537}";
}
);
layerId = "E777F328-EA17-4AE7-9EBA-8002E537BA4F";
name = Light;
paths = (
{
closed = 1;
nodes = (
"294 509 OFFCURVE",
"227 245 OFFCURVE",
"197 154 CURVE",
"194 154 LINE",
"194 446 LINE SMOOTH",
"194 483 OFFCURVE",
"170 509 OFFCURVE",
"116 509 CURVE SMOOTH",
"81 509 OFFCURVE",
"34 475 OFFCURVE",
"18 424 CURVE",
"32 409 LINE",
"43 427 OFFCURVE",
"62 454 OFFCURVE",
"85 454 CURVE SMOOTH",
"107 454 OFFCURVE",
"115 431 OFFCURVE",
"115 417 CURVE SMOOTH",
"115 -14 LINE",
"190 11 LINE",
"190 47 OFFCURVE",
"295 397 OFFCURVE",
"392 397 CURVE SMOOTH",
"412 397 OFFCURVE",
"411 373 OFFCURVE",
"411 361 CURVE SMOOTH",
"411 95 LINE SMOOTH",
"411 23 OFFCURVE",
"442 -4 OFFCURVE",
"490 -4 CURVE SMOOTH",
"520 -4 OFFCURVE",
"566 30 OFFCURVE",
"585 73 CURVE",
"572 87 LINE",
"560 70 OFFCURVE",
"544 46 OFFCURVE",
"518 46 CURVE SMOOTH",
"498 46 OFFCURVE",
"490 70 OFFCURVE",
"490 80 CURVE SMOOTH",
"490 366 LINE SMOOTH",
"490 427 OFFCURVE",
"500 509 OFFCURVE",
"430 509 CURVE SMOOTH"
);
}
);
width = 603;
},
{
anchors = (
{
name = bottom;
position = "{317, 0}";
},
{
name = top;
position = "{329, 537}";
},
{
name = topleft;
position = "{147, 537}";
}
);
layerId = "39185045-6A8C-415A-8312-7B8F11386A4C";
name = Regular;
paths = (
{
closed = 1;
nodes = (
"350 509 OFFCURVE",
"278 379 OFFCURVE",
"254 253 CURVE",
"248 253 LINE",
"248 375 LINE",
"248 456 OFFCURVE",
"219 509 OFFCURVE",
"140 509 CURVE SMOOTH",
"77 509 OFFCURVE",
"32 465 OFFCURVE",
"11 424 CURVE",
"32 401 LINE",
"41 415 OFFCURVE",
"62 433 OFFCURVE",
"79 433 CURVE SMOOTH",
"95 433 OFFCURVE",
"104 420 OFFCURVE",
"104 399 CURVE SMOOTH",
"104 -13 LINE",
"251 15 LINE",
"251 145 OFFCURVE",
"312 392 OFFCURVE",
"368 392 CURVE SMOOTH",
"382 392 OFFCURVE",
"383 369 OFFCURVE",
"383 359 CURVE SMOOTH",
"383 100 LINE SMOOTH",
"383 39 OFFCURVE",
"415 -9 OFFCURVE",
"492 -9 CURVE SMOOTH",
"558 -9 OFFCURVE",
"601 34 OFFCURVE",
"625 77 CURVE",
"604 99 LINE",
"593 85 OFFCURVE",
"575 68 OFFCURVE",
"555 68 CURVE SMOOTH",
"542 68 OFFCURVE",
"531 83 OFFCURVE",
"531 101 CURVE SMOOTH",
"531 372 LINE SMOOTH",
"531 433 OFFCURVE",
"524 509 OFFCURVE",
"446 509 CURVE SMOOTH"
);
}
);
width = 631;
}
);
leftKerningGroup = n;
rightKerningGroup = n;
unicode = 006E;
},
{
color = 6;
glyphname = eng;
lastChange = "2015-05-11 15:45:47 +0000";
layers = (
{
layerId = "E777F328-EA17-4AE7-9EBA-8002E537BA4F";
name = Light;
paths = (
{
closed = 1;
nodes = (
"294 509 OFFCURVE",
"219 242 OFFCURVE",
"194 141 CURVE",
"194 141 LINE",
"194 446 LINE",
"194 483 OFFCURVE",
"170 509 OFFCURVE",
"115 509 CURVE SMOOTH",
"78 509 OFFCURVE",
"34 475 OFFCURVE",
"18 424 CURVE",
"32 409 LINE",
"43 427 OFFCURVE",
"62 454 OFFCURVE",
"85 454 CURVE SMOOTH",
"107 454 OFFCURVE",
"115 431 OFFCURVE",
"115 417 CURVE SMOOTH",
"115 -14 LINE",
"190 11 LINE",
"190 21 OFFCURVE",
"295 397 OFFCURVE",
"391 397 CURVE SMOOTH",
"410 397 OFFCURVE",
"411 372 OFFCURVE",
"411 361 CURVE SMOOTH",
"411 94 LINE SMOOTH",
"411 -101 OFFCURVE",
"418 -215 OFFCURVE",
"294 -215 CURVE SMOOTH",
"266 -215 OFFCURVE",
"230 -209 OFFCURVE",
"199 -181 CURVE",
"131 -268 LINE",
"158 -288 OFFCURVE",
"185 -294 OFFCURVE",
"212 -294 CURVE SMOOTH",
"371 -294 OFFCURVE",
"489 -106 OFFCURVE",
"489 54 CURVE",
"489 359 LINE SMOOTH",
"489 419 OFFCURVE",
"492 509 OFFCURVE",
"424 509 CURVE"
);
}
);
width = 582;
},
{
layerId = "39185045-6A8C-415A-8312-7B8F11386A4C";
name = Regular;
paths = (
{
closed = 1;
nodes = (
"350 509 OFFCURVE",
"284 382 OFFCURVE",
"253 262 CURVE",
"248 262 LINE",
"248 375 LINE",
"248 456 OFFCURVE",
"219 509 OFFCURVE",
"140 509 CURVE SMOOTH",
"77 509 OFFCURVE",
"32 465 OFFCURVE",
"11 424 CURVE",
"32 401 LINE",
"41 415 OFFCURVE",
"62 433 OFFCURVE",
"79 433 CURVE SMOOTH",
"95 433 OFFCURVE",
"104 420 OFFCURVE",
"104 399 CURVE SMOOTH",
"104 -13 LINE",
"251 15 LINE",
"251 164 OFFCURVE",
"311 392 OFFCURVE",
"367 392 CURVE SMOOTH",
"381 392 OFFCURVE",
"383 370 OFFCURVE",
"383 359 CURVE SMOOTH",
"383 5 LINE",
"383 -127 OFFCURVE",
"375 -205 OFFCURVE",
"286 -205 CURVE SMOOTH",
"260 -205 OFFCURVE",
"229 -196 OFFCURVE",
"187 -164 CURVE",
"110 -261 LINE",
"140 -284 OFFCURVE",
"173 -291 OFFCURVE",
"204 -291 CURVE SMOOTH",
"371 -291 OFFCURVE",
"531 -112 OFFCURVE",
"531 55 CURVE",
"531 376 LINE SMOOTH",
"531 435 OFFCURVE",
"525 509 OFFCURVE",
"445 509 CURVE SMOOTH"
);
}
);
width = 615;
}
);
leftKerningGroup = n;
rightKerningGroup = j;
unicode = 014B;
},
{
color = 6;
glyphname = o;
lastChange = "2015-05-11 15:45:47 +0000";
layers = (
{
anchors = (
{
name = top;
position = "{284, 537}";
}
);
layerId = "E777F328-EA17-4AE7-9EBA-8002E537BA4F";
name = Light;
paths = (
{
closed = 1;
nodes = (
"144 469 OFFCURVE",
"47 357 OFFCURVE",
"47 209 CURVE SMOOTH",
"47 83 OFFCURVE",
"142 -14 OFFCURVE",
"262 -14 CURVE SMOOTH",
"419 -14 OFFCURVE",
"500 131 OFFCURVE",
"500 266 CURVE SMOOTH",
"500 368 OFFCURVE",
"446 465 OFFCURVE",
"354 496 CURVE",
"314 466 OFFCURVE",
"280 441 OFFCURVE",
"250 413 CURVE",
"350 403 OFFCURVE",
"455 290 OFFCURVE",
"455 195 CURVE SMOOTH",
"455 113 OFFCURVE",
"393 45 OFFCURVE",
"300 45 CURVE SMOOTH",
"182 45 OFFCURVE",
"126 158 OFFCURVE",
"126 242 CURVE SMOOTH",
"126 358 OFFCURVE",
"204 432 OFFCURVE",
"295 488 CURVE",
"277 508 LINE"
);
}
);
width = 546;
},
{
anchors = (
{
name = top;
position = "{291, 537}";
}
);
layerId = "39185045-6A8C-415A-8312-7B8F11386A4C";
name = Regular;
paths = (
{
closed = 1;
nodes = (
"139 469 OFFCURVE",
"32 356 OFFCURVE",
"32 211 CURVE SMOOTH",
"32 83 OFFCURVE",
"140 -14 OFFCURVE",
"273 -14 CURVE SMOOTH",
"434 -14 OFFCURVE",
"535 131 OFFCURVE",
"535 266 CURVE SMOOTH",
"535 366 OFFCURVE",
"474 465 OFFCURVE",
"370 500 CURVE",
"336 477 OFFCURVE",
"293 446 OFFCURVE",
"261 408 CURVE",
"357 400 OFFCURVE",
"419 288 OFFCURVE",
"419 195 CURVE SMOOTH",
"419 117 OFFCURVE",
"379 51 OFFCURVE",
"309 51 CURVE SMOOTH",
"224 51 OFFCURVE",
"182 160 OFFCURVE",
"182 242 CURVE SMOOTH",
"182 357 OFFCURVE",
"234 432 OFFCURVE",
"303 488 CURVE",
"283 513 LINE"
);
}
);
width = 567;
}
);
leftKerningGroup = o;
rightKerningGroup = o;
unicode = 006F;
},
{
color = 6;
glyphname = p;
lastChange = "2015-05-11 15:45:47 +0000";
layers = (
{
layerId = "E777F328-EA17-4AE7-9EBA-8002E537BA4F";
name = Light;
paths = (
{
closed = 1;
nodes = (
"282 504 OFFCURVE",
"230 457 OFFCURVE",
"199 392 CURVE",
"195 392 LINE",
"195 472 OFFCURVE",
"173 504 OFFCURVE",
"115 504 CURVE SMOOTH",
"77 504 OFFCURVE",
"32 467 OFFCURVE",
"18 424 CURVE",
"32 410 LINE",
"58 442 OFFCURVE",
"72 454 OFFCURVE",
"85 454 CURVE SMOOTH",
"103 454 OFFCURVE",
"115 437 OFFCURVE",
"115 414 CURVE SMOOTH",
"115 -329 LINE",
"190 -293 LINE",
"190 212 LINE SMOOTH",
"190 352 OFFCURVE",
"230 428 OFFCURVE",
"303 428 CURVE SMOOTH",
"396 428 OFFCURVE",
"467 349 OFFCURVE",
"467 249 CURVE SMOOTH",
"467 135 OFFCURVE",
"428 50 OFFCURVE",
"374 50 CURVE SMOOTH",
"347 50 OFFCURVE",
"325 52 OFFCURVE",
"307 57 CURVE",
"284 8 LINE",
"311 -5 OFFCURVE",
"325 -10 OFFCURVE",
"339 -10 CURVE SMOOTH",
"458 -10 OFFCURVE",
"530 98 OFFCURVE",
"530 274 CURVE SMOOTH",
"530 401 OFFCURVE",
"441 504 OFFCURVE",
"332 504 CURVE SMOOTH"
);
}
);
width = 579;
},
{
layerId = "39185045-6A8C-415A-8312-7B8F11386A4C";
name = Regular;
paths = (
{
closed = 1;
nodes = (
"329 510 OFFCURVE",
"277 468 OFFCURVE",
"252 397 CURVE",
"247 397 LINE",
"246 473 OFFCURVE",
"209 510 OFFCURVE",
"141 510 CURVE SMOOTH",
"89 510 OFFCURVE",
"38 476 OFFCURVE",
"11 423 CURVE",
"32 401 LINE",
"47 420 OFFCURVE",
"66 433 OFFCURVE",
"79 433 CURVE SMOOTH",
"95 433 OFFCURVE",
"104 419 OFFCURVE",
"104 396 CURVE SMOOTH",
"104 -311 LINE",
"251 -266 LINE",
"251 224 LINE SMOOTH",
"251 354 OFFCURVE",
"282 433 OFFCURVE",
"335 433 CURVE SMOOTH",
"394 433 OFFCURVE",
"433 362 OFFCURVE",
"433 249 CURVE SMOOTH",
"433 130 OFFCURVE",
"392 53 OFFCURVE",
"324 53 CURVE SMOOTH",
"284 53 OFFCURVE",
"252 72 OFFCURVE",
"227 116 CURVE",
"190 19 LINE",
"221 0 OFFCURVE",
"261 -11 OFFCURVE",
"308 -11 CURVE SMOOTH",
"465 -11 OFFCURVE",
"569 107 OFFCURVE",
"569 289 CURVE SMOOTH",
"569 415 OFFCURVE",
"492 510 OFFCURVE",
"391 510 CURVE SMOOTH"
);
}
);
width = 607;
}
);
leftKerningGroup = p;
rightKerningGroup = o;
unicode = 0070;
},
{
color = 6;
glyphname = thorn;
lastChange = "2015-05-11 15:45:47 +0000";
layers = (
{
layerId = "E777F328-EA17-4AE7-9EBA-8002E537BA4F";
name = Light;
paths = (
{
closed = 1;
nodes = (
"245 504 OFFCURVE",
"188 450 OFFCURVE",
"170 392 CURVE",
"165 392 LINE",
"165 801 LINE",
"165 865 OFFCURVE",
"141 895 OFFCURVE",
"86 895 CURVE SMOOTH",
"56 895 OFFCURVE",
"6 860 OFFCURVE",
"-9 816 CURVE",
"5 797 LINE",
"14 819 OFFCURVE",
"33 842 OFFCURVE",
"57 842 CURVE SMOOTH",
"80 842 OFFCURVE",
"86 822 OFFCURVE",
"86 807 CURVE SMOOTH",
"86 -329 LINE",
"165 -293 LINE",
"165 212 LINE SMOOTH",
"165 273 OFFCURVE",
"167 428 OFFCURVE",
"279 428 CURVE",
"360 428 OFFCURVE",
"442 355 OFFCURVE",
"442 249 CURVE SMOOTH",
"442 131 OFFCURVE",
"402 50 OFFCURVE",
"343 50 CURVE SMOOTH",
"311 50 OFFCURVE",
"285 55 OFFCURVE",
"266 62 CURVE",
"265 -2 LINE",
"293 -6 OFFCURVE",
"302 -10 OFFCURVE",
"313 -10 CURVE SMOOTH",
"429 -10 OFFCURVE",
"505 94 OFFCURVE",
"505 274 CURVE SMOOTH",
"505 403 OFFCURVE",
"415 504 OFFCURVE",
"308 504 CURVE"
);
}
);
width = 554;
},
{
layerId = "39185045-6A8C-415A-8312-7B8F11386A4C";
name = Regular;
paths = (
{
closed = 1;
nodes = (
"294 510 OFFCURVE",
"243 462 OFFCURVE",
"223 397 CURVE",
"219 397 LINE",
"219 806 LINE SMOOTH",
"219 863 OFFCURVE",
"192 914 OFFCURVE",
"111 914 CURVE SMOOTH",
"46 914 OFFCURVE",
"0 868 OFFCURVE",
"-21 826 CURVE",
"0 803 LINE",
"11 819 OFFCURVE",
"29 834 OFFCURVE",
"48 834 CURVE SMOOTH",
"64 834 OFFCURVE",
"72 822 OFFCURVE",
"72 801 CURVE SMOOTH",
"72 -311 LINE",
"220 -266 LINE",
"220 224 LINE SMOOTH",
"220 291 OFFCURVE",
"227 433 OFFCURVE",
"305 433 CURVE SMOOTH",
"365 433 OFFCURVE",
"401 344 OFFCURVE",
"401 249 CURVE SMOOTH",
"401 140 OFFCURVE",
"365 53 OFFCURVE",
"308 53 CURVE SMOOTH",
"281 53 OFFCURVE",
"256 66 OFFCURVE",
"239 99 CURVE",
"137 47 LINE",
"170 5 OFFCURVE",
"224 -11 OFFCURVE",
"276 -11 CURVE SMOOTH",
"446 -11 OFFCURVE",
"538 120 OFFCURVE",
"538 289 CURVE SMOOTH",
"538 410 OFFCURVE",
"465 510 OFFCURVE",
"360 510 CURVE"
);
}
);
width = 576;
}
);
leftKerningGroup = h;
rightKerningGroup = o;
rightMetricsKey = "=p";
unicode = 00FE;
},
{
color = 6;
glyphname = q;
lastChange = "2015-05-11 15:45:47 +0000";
layers = (
{
layerId = "E777F328-EA17-4AE7-9EBA-8002E537BA4F";
name = Light;
paths = (
{
closed = 1;
nodes = (
"163 511 OFFCURVE",
"50 370 OFFCURVE",
"50 188 CURVE SMOOTH",
"50 66 OFFCURVE",
"119 -12 OFFCURVE",
"230 -12 CURVE SMOOTH",
"302 -12 OFFCURVE",
"362 38 OFFCURVE",
"387 118 CURVE",
"388 118 LINE",
"385 108 OFFCURVE",
"385 103 OFFCURVE",
"385 23 CURVE",
"385 -197 LINE SMOOTH",
"385 -266 OFFCURVE",
"409 -296 OFFCURVE",
"460 -296 CURVE SMOOTH",
"497 -296 OFFCURVE",
"544 -260 OFFCURVE",
"558 -216 CURVE",
"545 -202 LINE",
"536 -223 OFFCURVE",
"511 -240 OFFCURVE",
"491 -240 CURVE SMOOTH",
"473 -240 OFFCURVE",
"461 -226 OFFCURVE",
"461 -207 CURVE SMOOTH",
"461 350 LINE",
"385 315 LINE",
"385 269 LINE",
"385 145 OFFCURVE",
"329 59 OFFCURVE",
"247 59 CURVE SMOOTH",
"173 59 OFFCURVE",
"116 138 OFFCURVE",
"116 238 CURVE SMOOTH",
"116 356 OFFCURVE",
"194 454 OFFCURVE",
"288 454 CURVE SMOOTH",
"323 454 OFFCURVE",
"364 425 OFFCURVE",
"400 377 CURVE",
"462 415 LINE",
"434 473 OFFCURVE",
"371 511 OFFCURVE",
"307 511 CURVE SMOOTH"
);
}
);
width = 540;
},
{
layerId = "39185045-6A8C-415A-8312-7B8F11386A4C";
name = Regular;
paths = (
{
closed = 1;
nodes = (
"158 504 OFFCURVE",
"39 373 OFFCURVE",
"39 189 CURVE SMOOTH",
"39 71 OFFCURVE",
"107 -12 OFFCURVE",
"206 -12 CURVE SMOOTH",
"276 -12 OFFCURVE",
"331 32 OFFCURVE",
"357 108 CURVE",
"362 108 LINE",
"357 78 OFFCURVE",
"355 54 OFFCURVE",
"355 8 CURVE SMOOTH",
"355 -183 LINE SMOOTH",
"355 -253 OFFCURVE",
"394 -292 OFFCURVE",
"465 -292 CURVE SMOOTH",
"516 -292 OFFCURVE",
"567 -257 OFFCURVE",
"596 -205 CURVE",
"574 -181 LINE",
"563 -198 OFFCURVE",
"543 -212 OFFCURVE",
"527 -212 CURVE SMOOTH",
"510 -212 OFFCURVE",
"501 -199 OFFCURVE",
"501 -178 CURVE SMOOTH",
"501 360 LINE",
"355 314 LINE",
"355 270 LINE SMOOTH",
"355 147 OFFCURVE",
"318 64 OFFCURVE",
"262 64 CURVE SMOOTH",
"210 64 OFFCURVE",
"176 131 OFFCURVE",
"176 238 CURVE SMOOTH",
"176 352 OFFCURVE",
"229 438 OFFCURVE",
"296 438 CURVE SMOOTH",
"327 438 OFFCURVE",
"355 414 OFFCURVE",
"377 371 CURVE",
"501 413 LINE",
"472 470 OFFCURVE",
"404 504 OFFCURVE",
"324 504 CURVE SMOOTH"
);
}
);
width = 570;
}
);
leftKerningGroup = o;
rightKerningGroup = q;
unicode = 0071;
},
{
color = 6;
glyphname = r;
lastChange = "2015-05-11 15:45:47 +0000";
layers = (
{
anchors = (
{
name = bottom;
position = "{219, 0}";
},
{
name = top;
position = "{240, 537}";
}
);
layerId = "E777F328-EA17-4AE7-9EBA-8002E537BA4F";
name = Light;
paths = (
{
closed = 1;
nodes = (
"275 386 LINE",
"248 371 OFFCURVE",
"216 363 OFFCURVE",
"182 363 CURVE SMOOTH",
"159 363 OFFCURVE",
"149 364 OFFCURVE",
"124 374 CURVE",
"58 230 LINE",
"23 246 LINE",
"91 387 LINE",
"77 399 OFFCURVE",
"59 417 OFFCURVE",
"53 434 CURVE",
"128 518 LINE",
"145 483 OFFCURVE",
"180 421 OFFCURVE",
"230 421 CURVE SMOOTH",
"276 421 OFFCURVE",
"317 441 OFFCURVE",
"358 466 CURVE",
"372 453 LINE",
"311 384 OFFCURVE",
"235 292 OFFCURVE",
"235 177 CURVE SMOOTH",
"235 119 OFFCURVE",
"265 62 OFFCURVE",
"331 62 CURVE SMOOTH",
"355 62 OFFCURVE",
"375 72 OFFCURVE",
"392 83 CURVE",
"401 70 LINE",
"368 27 OFFCURVE",
"316 -8 OFFCURVE",
"258 -8 CURVE SMOOTH",
"184 -8 OFFCURVE",
"166 58 OFFCURVE",
"166 118 CURVE SMOOTH",
"166 203 OFFCURVE",
"217 320 OFFCURVE",
"278 383 CURVE"
);
}
);
width = 435;
},
{
anchors = (
{
name = bottom;
position = "{232, 0}";
},
{
name = top;
position = "{269, 537}";
}
);
background = {
paths = (
{
closed = 1;
nodes = (
"380 55 LINE",
"345 11 OFFCURVE",
"293 -11 OFFCURVE",
"248 -11 CURVE SMOOTH",
"185 -11 OFFCURVE",
"131 26 OFFCURVE",
"131 92 CURVE SMOOTH",
"131 149 OFFCURVE",
"163 218 OFFCURVE",
"197 257 CURVE",
"181 253 OFFCURVE",
"164 251 OFFCURVE",
"147 251 CURVE SMOOTH",
"131 251 OFFCURVE",
"115 253 OFFCURVE",
"104 257 CURVE",
"55 156 LINE",
"15 174 LINE",
"66 275 LINE",
"54 285 OFFCURVE",
"37 297 OFFCURVE",
"33 308 CURVE",
"134 420 LINE",
"143 360 OFFCURVE",
"189 336 OFFCURVE",
"236 336 CURVE SMOOTH",
"271 336 OFFCURVE",
"309 349 OFFCURVE",
"334 368 CURVE",
"355 347 LINE",
"289 303 OFFCURVE",
"243 203 OFFCURVE",
"243 132 CURVE SMOOTH",
"243 89 OFFCURVE",
"263 59 OFFCURVE",
"309 59 CURVE SMOOTH",
"322 59 OFFCURVE",
"340 64 OFFCURVE",
"361 76 CURVE"
);
}
);
};
layerId = "39185045-6A8C-415A-8312-7B8F11386A4C";
name = Regular;
paths = (
{
closed = 1;
nodes = (
"262 356 LINE",
"239 344 OFFCURVE",
"212 339 OFFCURVE",
"187 339 CURVE SMOOTH",
"166 339 OFFCURVE",
"149 341 OFFCURVE",
"131 348 CURVE",
"67 212 LINE",
"21 233 LINE",
"87 368 LINE",
"73 381 OFFCURVE",
"52 397 OFFCURVE",
"47 412 CURVE",
"158 536 LINE",
"171 473 OFFCURVE",
"222 431 OFFCURVE",
"279 431 CURVE SMOOTH",
"325 431 OFFCURVE",
"371 449 OFFCURVE",
"407 474 CURVE",
"429 452 LINE",
"353 391 OFFCURVE",
"287 274 OFFCURVE",
"287 174 CURVE SMOOTH",
"287 117 OFFCURVE",
"314 71 OFFCURVE",
"376 71 CURVE SMOOTH",
"396 71 OFFCURVE",
"419 79 OFFCURVE",
"442 93 CURVE",
"461 71 LINE",
"419 19 OFFCURVE",
"358 -12 OFFCURVE",
"299 -12 CURVE SMOOTH",
"220 -12 OFFCURVE",
"168 42 OFFCURVE",
"168 119 CURVE SMOOTH",
"168 194 OFFCURVE",
"214 293 OFFCURVE",
"265 352 CURVE"
);
}
);
width = 464;
}
);
leftKerningGroup = n;
rightKerningGroup = r;
unicode = 0072;
},
{
color = 6;
glyphname = s;
lastChange = "2015-05-11 15:45:47 +0000";
layers = (
{
anchors = (
{
name = bottom;
position = "{190, 0}";
},
{
name = top;
position = "{195, 537}";
}
);
layerId = "E777F328-EA17-4AE7-9EBA-8002E537BA4F";
name = Light;
paths = (
{
closed = 1;
nodes = (
"152 541 OFFCURVE",
"128 495 OFFCURVE",
"129 441 CURVE SMOOTH",
"129 418 OFFCURVE",
"133 393 OFFCURVE",
"140 369 CURVE",
"59 257 LINE",
"90 237 LINE",
"161 342 LINE",
"195 297 OFFCURVE",
"312 226 OFFCURVE",
"312 154 CURVE SMOOTH",
"312 100 OFFCURVE",
"263 53 OFFCURVE",
"204 53 CURVE SMOOTH",
"155 53 OFFCURVE",
"115 104 OFFCURVE",
"95 125 CURVE",
"31 40 LINE",
"55 4 OFFCURVE",
"118 -12 OFFCURVE",
"149 -12 CURVE SMOOTH",
"253 -12 OFFCURVE",
"328 71 OFFCURVE",
"328 176 CURVE SMOOTH",
"328 317 OFFCURVE",
"236 325 OFFCURVE",
"206 384 CURVE",
"225 410 OFFCURVE",
"257 442 OFFCURVE",
"258 490 CURVE SMOOTH",
"259 526 OFFCURVE",
"240 541 OFFCURVE",
"194 541 CURVE SMOOTH"
);
},
{
closed = 1;
nodes = (
"209 503 OFFCURVE",
"216 493 OFFCURVE",
"216 482 CURVE SMOOTH",
"216 463 OFFCURVE",
"199 431 OFFCURVE",
"185 423 CURVE",
"180 441 OFFCURVE",
"174 450 OFFCURVE",
"174 474 CURVE SMOOTH",
"174 489 OFFCURVE",
"174 503 OFFCURVE",
"194 503 CURVE SMOOTH"
);
}
);
width = 376;
},
{
anchors = (
{
name = bottom;
position = "{213, 0}";
},
{
name = top;
position = "{209, 537}";
}
);
background = {
paths = (
{
closed = 1;
nodes = (
"97 416 OFFCURVE",
"64 370 OFFCURVE",
"64 319 CURVE SMOOTH",
"64 296 OFFCURVE",
"71 268 OFFCURVE",
"91 248 CURVE",
"36 169 LINE",
"69 146 LINE",
"117 213 LINE",
"145 189 OFFCURVE",
"214 140 OFFCURVE",
"214 99 CURVE SMOOTH",
"214 64 OFFCURVE",
"193 49 OFFCURVE",
"167 49 CURVE SMOOTH",
"140 49 OFFCURVE",
"104 83 OFFCURVE",
"86 124 CURVE",
"18 32 LINE",
"49 4 OFFCURVE",
"108 -9 OFFCURVE",
"161 -9 CURVE SMOOTH",
"249 -9 OFFCURVE",
"326 55 OFFCURVE",
"326 138 CURVE SMOOTH",
"326 222 OFFCURVE",
"262 269 OFFCURVE",
"192 315 CURVE",
"205 335 OFFCURVE",
"222 358 OFFCURVE",
"222 379 CURVE SMOOTH",
"222 402 OFFCURVE",
"203 416 OFFCURVE",
"167 416 CURVE SMOOTH"
);
},
{
closed = 1;
nodes = (
"166 381 OFFCURVE",
"169 375 OFFCURVE",
"169 368 CURVE SMOOTH",
"169 360 OFFCURVE",
"166 351 OFFCURVE",
"156 338 CURVE",
"146 346 OFFCURVE",
"141 358 OFFCURVE",
"141 364 CURVE SMOOTH",
"141 372 OFFCURVE",
"147 381 OFFCURVE",
"156 381 CURVE SMOOTH"
);
}
);
};
layerId = "39185045-6A8C-415A-8312-7B8F11386A4C";
name = Regular;
paths = (
{
closed = 1;
nodes = (
"129 541 OFFCURVE",
"99 486 OFFCURVE",
"99 424 CURVE SMOOTH",
"99 397 OFFCURVE",
"107 365 OFFCURVE",
"126 338 CURVE",
"51 233 LINE",
"90 206 LINE",
"156 301 LINE",
"191 264 OFFCURVE",
"291 198 OFFCURVE",
"291 138 CURVE SMOOTH",
"291 89 OFFCURVE",
"255 59 OFFCURVE",
"212 59 CURVE SMOOTH",
"173 59 OFFCURVE",
"128 106 OFFCURVE",
"106 149 CURVE",
"26 41 LINE",
"60 5 OFFCURVE",
"132 -12 OFFCURVE",
"188 -12 CURVE SMOOTH",
"299 -12 OFFCURVE",
"390 71 OFFCURVE",
"390 178 CURVE SMOOTH",
"390 299 OFFCURVE",
"303 341 OFFCURVE",
"234 401 CURVE",
"252 427 OFFCURVE",
"271 449 OFFCURVE",
"271 484 CURVE SMOOTH",
"271 518 OFFCURVE",
"248 541 OFFCURVE",
"201 541 CURVE SMOOTH"
);
},
{
closed = 1;
nodes = (
"213 498 OFFCURVE",
"219 490 OFFCURVE",
"219 480 CURVE SMOOTH",
"219 466 OFFCURVE",
"210 447 OFFCURVE",
"196 433 CURVE",
"186 446 OFFCURVE",
"180 460 OFFCURVE",
"180 473 CURVE SMOOTH",
"180 485 OFFCURVE",
"185 498 OFFCURVE",
"200 498 CURVE SMOOTH"
);
}
);
width = 426;
}
);
leftKerningGroup = s;
rightKerningGroup = s;
unicode = 0073;
},
{
color = 6;
glyphname = germandbls;
lastChange = "2015-05-11 15:45:47 +0000";
layers = (
{
layerId = "E777F328-EA17-4AE7-9EBA-8002E537BA4F";
name = Light;
paths = (
{
closed = 1;
nodes = (
"91 936 OFFCURVE",
"91 627 OFFCURVE",
"91 471 CURVE",
"69 471 LINE",
"49 427 LINE",
"91 427 LINE",
"91 -181 LINE",
"175 -137 LINE",
"175 754 LINE SMOOTH",
"175 815 OFFCURVE",
"189 896 OFFCURVE",
"284 896 CURVE SMOOTH",
"344 896 OFFCURVE",
"393 843 OFFCURVE",
"393 793 CURVE SMOOTH",
"393 711 OFFCURVE",
"314 589 OFFCURVE",
"314 535 CURVE SMOOTH",
"314 268 OFFCURVE",
"561 257 OFFCURVE",
"561 143 CURVE SMOOTH",
"561 88 OFFCURVE",
"515 42 OFFCURVE",
"445 42 CURVE SMOOTH",
"410 42 OFFCURVE",
"364 81 OFFCURVE",
"343 108 CURVE",
"260 30 LINE",
"294 -14 OFFCURVE",
"356 -22 OFFCURVE",
"376 -22 CURVE SMOOTH",
"480 -22 OFFCURVE",
"563 71 OFFCURVE",
"563 174 CURVE SMOOTH",
"563 357 OFFCURVE",
"329 366 OFFCURVE",
"329 531 CURVE SMOOTH",
"329 634 OFFCURVE",
"437 694 OFFCURVE",
"437 794 CURVE SMOOTH",
"437 886 OFFCURVE",
"384 936 OFFCURVE",
"314 936 CURVE SMOOTH"
);
}
);
width = 624;
},
{
layerId = "39185045-6A8C-415A-8312-7B8F11386A4C";
name = Regular;
paths = (
{
closed = 1;
nodes = (
"97 931 OFFCURVE",
"97 661 OFFCURVE",
"97 483 CURVE",
"50 483 LINE",
"15 405 LINE",
"97 405 LINE",
"97 -187 LINE",
"248 -131 LINE",
"248 747 LINE SMOOTH",
"248 804 OFFCURVE",
"257 876 OFFCURVE",
"322 876 CURVE SMOOTH",
"368 876 OFFCURVE",
"399 831 OFFCURVE",
"399 787 CURVE SMOOTH",
"399 695 OFFCURVE",
"312 616 OFFCURVE",
"312 518 CURVE SMOOTH",
"312 290 OFFCURVE",
"557 233 OFFCURVE",
"557 138 CURVE SMOOTH",
"557 88 OFFCURVE",
"521 59 OFFCURVE",
"477 59 CURVE SMOOTH",
"428 59 OFFCURVE",
"384 115 OFFCURVE",
"368 152 CURVE",
"286 41 LINE",
"321 6 OFFCURVE",
"392 -15 OFFCURVE",
"462 -15 CURVE SMOOTH",
"581 -15 OFFCURVE",
"668 64 OFFCURVE",
"668 175 CURVE SMOOTH",
"668 347 OFFCURVE",
"428 390 OFFCURVE",
"428 527 CURVE SMOOTH",
"428 628 OFFCURVE",
"534 689 OFFCURVE",
"534 788 CURVE SMOOTH",
"534 880 OFFCURVE",
"459 931 OFFCURVE",
"356 931 CURVE SMOOTH"
);
}
);
width = 689;
}
);
leftKerningGroup = h;
rightKerningGroup = germandbls;
unicode = 00DF;
},
{
color = 6;
glyphname = t;
lastChange = "2015-05-11 15:45:47 +0000";
layers = (
{
anchors = (
{
name = bottom;
position = "{176, 0}";
},
{
name = center;
position = "{176, 269}";
},
{
name = topright;
position = "{320, 537}";
}
);
layerId = "E777F328-EA17-4AE7-9EBA-8002E537BA4F";
name = Light;
paths = (
{
closed = 1;
nodes = (
"105 731 LINE",
"105 500 LINE",
"59 500 LINE",
"28 437 LINE",
"105 437 LINE",
"105 95 LINE SMOOTH",
"105 42 OFFCURVE",
"121 -4 OFFCURVE",
"188 -4 CURVE",
"134 -4 OFFCURVE",
"240 -36 OFFCURVE",
"293 73 CURVE",
"280 87 LINE",
"254 59 OFFCURVE",
"235 46 OFFCURVE",
"221 46 CURVE SMOOTH",
"200 46 OFFCURVE",
"186 62 OFFCURVE",
"186 80 CURVE SMOOTH",
"186 437 LINE",
"298 437 LINE",
"328 500 LINE",
"186 500 LINE",
"186 765 LINE"
);
}
);
width = 346;
},
{
anchors = (
{
name = bottom;
position = "{174, 0}";
},
{
name = center;
position = "{174, 269}";
},
{
name = topright;
position = "{353, 537}";
}
);
layerId = "39185045-6A8C-415A-8312-7B8F11386A4C";
name = Regular;
paths = (
{
closed = 1;
nodes = (
"77 724 LINE",
"77 500 LINE",
"41 500 LINE",
"10 432 LINE",
"77 432 LINE",
"77 100 LINE SMOOTH",
"77 46 OFFCURVE",
"101 -9 OFFCURVE",
"190 -9 CURVE SMOOTH",
"222 -9 OFFCURVE",
"289 13 OFFCURVE",
"323 77 CURVE",
"302 99 LINE",
"286 80 OFFCURVE",
"267 68 OFFCURVE",
"252 68 CURVE SMOOTH",
"237 68 OFFCURVE",
"227 80 OFFCURVE",
"227 101 CURVE SMOOTH",
"227 432 LINE",
"321 432 LINE",
"351 500 LINE",
"227 500 LINE",
"227 770 LINE"
);
}
);
width = 345;
}
);
leftKerningGroup = t;
rightKerningGroup = t;
unicode = 0074;
},
{
color = 6;
glyphname = tbar;
lastChange = "2015-05-11 15:45:47 +0000";
layers = (
{
components = (
{
name = t;
}
);
layerId = "E777F328-EA17-4AE7-9EBA-8002E537BA4F";
name = Light;
paths = (
{
closed = 1;
nodes = (
"46 307 LINE",
"21 263 LINE",
"294 263 LINE",
"316 307 LINE"
);
}
);
width = 345;
},
{
components = (
{
name = t;
}
);
layerId = "39185045-6A8C-415A-8312-7B8F11386A4C";
name = Regular;
paths = (
{
closed = 1;
nodes = (
"36 311 LINE",
"7 258 LINE",
"320 258 LINE",
"347 311 LINE"
);
}
);
width = 344;
}
);
leftKerningGroup = t;
rightKerningGroup = t;
unicode = 0167;
},
{
color = 6;
glyphname = u;
lastChange = "2015-05-11 15:45:47 +0000";
layers = (
{
anchors = (
{
name = ogonek;
position = "{572, 7}";
},
{
name = top;
position = "{295, 537}";
}
);
background = {
paths = (
{
closed = 1;
nodes = (
"798 1007 LINE",
"770 764 OFFCURVE",
"680 455 OFFCURVE",
"680 455 CURVE",
"579 207 OFFCURVE",
"465 146 OFFCURVE",
"465 291 CURVE SMOOTH",
"465 860 LINE SMOOTH",
"465 971 OFFCURVE",
"426 1083 OFFCURVE",
"262 1083 CURVE",
"262 1083 OFFCURVE",
"96 1083 OFFCURVE",
"14 905 CURVE",
"51 864 LINE",
"124 971 OFFCURVE",
"214 956 OFFCURVE",
"214 866 CURVE SMOOTH",
"214 268 LINE SMOOTH",
"214 94 OFFCURVE",
"223 -28 OFFCURVE",
"375 -28 CURVE SMOOTH",
"643 -28 OFFCURVE",
"752 449 OFFCURVE",
"798 646 CURVE",
"798 207 LINE SMOOTH",
"798 96 OFFCURVE",
"840 -17 OFFCURVE",
"1004 -17 CURVE",
"1004 -17 OFFCURVE",
"1168 -17 OFFCURVE",
"1252 161 CURVE",
"1213 203 LINE",
"1141 96 OFFCURVE",
"1052 110 OFFCURVE",
"1052 200 CURVE SMOOTH",
"1052 1094 LINE"
);
}
);
};
layerId = "E777F328-EA17-4AE7-9EBA-8002E537BA4F";
name = Light;
paths = (
{
closed = 1;
nodes = (
"386 468 LINE",
"386 471 OFFCURVE",
"315 71 OFFCURVE",
"211 71 CURVE SMOOTH",
"203 71 OFFCURVE",
"194 79 OFFCURVE",
"194 113 CURVE SMOOTH",
"194 410 LINE SMOOTH",
"194 459 OFFCURVE",
"179 507 OFFCURVE",
"113 507 CURVE SMOOTH",
"164 507 OFFCURVE",
"67 536 OFFCURVE",
"20 428 CURVE",
"31 413 LINE",
"53 443 OFFCURVE",
"71 455 OFFCURVE",
"86 455 CURVE SMOOTH",
"103 455 OFFCURVE",
"115 441 OFFCURVE",
"115 418 CURVE SMOOTH",
"115 135 LINE SMOOTH",
"115 38 OFFCURVE",
"113 -12 OFFCURVE",
"177 -12 CURVE SMOOTH",
"320 -12 OFFCURVE",
"373 274 OFFCURVE",
"387 342 CURVE",
"389 342 LINE SMOOTH",
"398 342 LINE",
"392 48 OFFCURVE",
"402 -4 OFFCURVE",
"471 -4 CURVE",
"423 -4 OFFCURVE",
"520 -33 OFFCURVE",
"571 77 CURVE",
"557 91 LINE",
"536 63 OFFCURVE",
"519 50 OFFCURVE",
"506 50 CURVE SMOOTH",
"485 50 OFFCURVE",
"476 67 OFFCURVE",
"476 84 CURVE SMOOTH",
"476 515 LINE"
);
}
);
width = 586;
},
{
anchors = (
{
name = ogonek;
position = "{627, 7}";
},
{
name = top;
position = "{314, 537}";
}
);
layerId = "39185045-6A8C-415A-8312-7B8F11386A4C";
name = Regular;
paths = (
{
closed = 1;
nodes = (
"372 473 LINE",
"372 347 OFFCURVE",
"324 119 OFFCURVE",
"264 119 CURVE SMOOTH",
"254 119 OFFCURVE",
"248 135 OFFCURVE",
"248 154 CURVE SMOOTH",
"248 400 LINE SMOOTH",
"248 452 OFFCURVE",
"224 509 OFFCURVE",
"136 509 CURVE SMOOTH",
"104 509 OFFCURVE",
"39 485 OFFCURVE",
"7 420 CURVE",
"27 398 LINE",
"42 417 OFFCURVE",
"61 429 OFFCURVE",
"76 429 CURVE SMOOTH",
"90 429 OFFCURVE",
"99 419 OFFCURVE",
"99 394 CURVE SMOOTH",
"99 119 LINE SMOOTH",
"99 47 OFFCURVE",
"107 -12 OFFCURVE",
"186 -12 CURVE SMOOTH",
"284 -12 OFFCURVE",
"345 122 OFFCURVE",
"371 231 CURVE",
"377 231 LINE",
"377 112 LINE",
"377 43 OFFCURVE",
"402 -9 OFFCURVE",
"485 -9 CURVE SMOOTH",
"518 -9 OFFCURVE",
"583 12 OFFCURVE",
"616 74 CURVE",
"596 95 LINE",
"581 79 OFFCURVE",
"563 65 OFFCURVE",
"548 65 CURVE SMOOTH",
"533 65 OFFCURVE",
"524 77 OFFCURVE",
"524 99 CURVE SMOOTH",
"524 511 LINE"
);
}
);
width = 626;
}
);
leftKerningGroup = u;
rightKerningGroup = u;
unicode = 0075;
},
{
color = 6;
glyphname = v;
lastChange = "2015-05-11 15:45:47 +0000";
layers = (
{
layerId = "E777F328-EA17-4AE7-9EBA-8002E537BA4F";
name = Light;
paths = (
{
closed = 1;
nodes = (
"344 436 LINE",
"392 415 OFFCURVE",
"425 379 OFFCURVE",
"425 325 CURVE SMOOTH",
"425 301 OFFCURVE",
"410 272 OFFCURVE",
"410 269 CURVE SMOOTH",
"315 75 LINE",
"170 394 LINE",
"160 416 OFFCURVE",
"137 500 OFFCURVE",
"107 500 CURVE SMOOTH",
"72 500 OFFCURVE",
"19 469 OFFCURVE",
"4 416 CURVE",
"10 406 LINE",
"17 409 OFFCURVE",
"25 420 OFFCURVE",
"39 420 CURVE SMOOTH",
"66 420 OFFCURVE",
"86 384 OFFCURVE",
"93 371 CURVE SMOOTH",
"268 -10 LINE SMOOTH",
"268 -11 OFFCURVE",
"279 -17 OFFCURVE",
"289 -17 CURVE SMOOTH",
"293 -17 OFFCURVE",
"305 -11 OFFCURVE",
"304 -14 CURVE",
"480 334 LINE SMOOTH",
"492 357 OFFCURVE",
"500 394 OFFCURVE",
"500 423 CURVE SMOOTH",
"500 474 OFFCURVE",
"470 518 OFFCURVE",
"417 533 CURVE"
);
}
);
width = 513;
},
{
layerId = "39185045-6A8C-415A-8312-7B8F11386A4C";
name = Regular;
paths = (
{
closed = 1;
nodes = (
"338 435 LINE",
"383 411 OFFCURVE",
"412 374 OFFCURVE",
"412 323 CURVE SMOOTH",
"412 305 OFFCURVE",
"405 279 OFFCURVE",
"390 248 CURVE SMOOTH",
"333 133 LINE",
"215 407 LINE SMOOTH",
"199 445 OFFCURVE",
"170 499 OFFCURVE",
"120 499 CURVE SMOOTH",
"43 499 OFFCURVE",
"-8 438 OFFCURVE",
"-24 390 CURVE",
"-1 374 LINE",
"6 385 OFFCURVE",
"20 398 OFFCURVE",
"32 398 CURVE SMOOTH",
"52 398 OFFCURVE",
"66 379 OFFCURVE",
"74 362 CURVE SMOOTH",
"236 4 LINE SMOOTH",
"243 -14 OFFCURVE",
"262 -19 OFFCURVE",
"279 -19 CURVE SMOOTH",
"296 -19 OFFCURVE",
"313 -14 OFFCURVE",
"321 4 CURVE SMOOTH",
"485 330 LINE SMOOTH",
"498 356 OFFCURVE",
"506 392 OFFCURVE",
"506 418 CURVE SMOOTH",
"506 469 OFFCURVE",
"475 513 OFFCURVE",
"415 539 CURVE"
);
}
);
width = 522;
}
);
leftKerningGroup = v;
rightKerningGroup = v;
unicode = 0076;
},
{
color = 6;
glyphname = w;
lastChange = "2015-05-11 15:45:47 +0000";
layers = (
{
anchors = (
{
name = top;
position = "{383, 537}";
}
);
guideLines = (
{
position = "{370, 1066}";
}
);
layerId = "E777F328-EA17-4AE7-9EBA-8002E537BA4F";
name = Light;
paths = (
{
closed = 1;
nodes = (
"534 436 LINE",
"578 415 OFFCURVE",
"605 376 OFFCURVE",
"605 325 CURVE SMOOTH",
"605 312 OFFCURVE",
"602 290 OFFCURVE",
"599 282 CURVE SMOOTH",
"537 130 LINE",
"430 509 LINE",
"347 477 LINE",
"476 17 LINE SMOOTH",
"479 8 OFFCURVE",
"488 1 OFFCURVE",
"505 1 CURVE SMOOTH",
"519 1 OFFCURVE",
"527 9 OFFCURVE",
"529 17 CURVE SMOOTH",
"659 332 LINE SMOOTH",
"669 357 OFFCURVE",
"675 394 OFFCURVE",
"675 419 CURVE SMOOTH",
"675 473 OFFCURVE",
"654 514 OFFCURVE",
"607 536 CURVE"
);
},
{
closed = 1;
nodes = (
"86 500 OFFCURVE",
"48 466 OFFCURVE",
"19 416 CURVE",
"28 401 LINE",
"39 411 OFFCURVE",
"53 420 OFFCURVE",
"71 420 CURVE SMOOTH",
"99 420 OFFCURVE",
"112 406 OFFCURVE",
"123 367 CURVE SMOOTH",
"236 14 LINE",
"238 7 OFFCURVE",
"242 -2 OFFCURVE",
"259 -2 CURVE SMOOTH",
"275 -2 OFFCURVE",
"278 5 OFFCURVE",
"284 20 CURVE SMOOTH",
"437 426 LINE",
"410 460 LINE",
"287 132 LINE",
"199 399 LINE SMOOTH",
"182 449 OFFCURVE",
"172 500 OFFCURVE",
"135 500 CURVE SMOOTH"
);
}
);
width = 707;
},
{
anchors = (
{
name = top;
position = "{395, 537}";
}
);
layerId = "39185045-6A8C-415A-8312-7B8F11386A4C";
name = Regular;
paths = (
{
closed = 1;
nodes = (
"568 435 LINE",
"610 411 OFFCURVE",
"637 374 OFFCURVE",
"637 323 CURVE SMOOTH",
"637 310 OFFCURVE",
"635 285 OFFCURVE",
"619 252 CURVE SMOOTH",
"574 153 LINE",
"473 514 LINE",
"330 465 LINE",
"468 21 LINE SMOOTH",
"477 -7 OFFCURVE",
"497 -13 OFFCURVE",
"518 -13 CURVE SMOOTH",
"537 -13 OFFCURVE",
"555 -7 OFFCURVE",
"567 19 CURVE SMOOTH",
"710 330 LINE SMOOTH",
"721 356 OFFCURVE",
"729 392 OFFCURVE",
"729 416 CURVE SMOOTH",
"729 468 OFFCURVE",
"702 511 OFFCURVE",
"645 540 CURVE"
);
},
{
closed = 1;
nodes = (
"48 499 OFFCURVE",
"2 437 OFFCURVE",
"-19 390 CURVE",
"5 373 LINE",
"14 386 OFFCURVE",
"30 398 OFFCURVE",
"44 398 CURVE SMOOTH",
"64 398 OFFCURVE",
"76 387 OFFCURVE",
"85 360 CURVE SMOOTH",
"196 20 LINE SMOOTH",
"205 -8 OFFCURVE",
"225 -14 OFFCURVE",
"244 -14 CURVE SMOOTH",
"264 -14 OFFCURVE",
"282 -9 OFFCURVE",
"293 20 CURVE SMOOTH",
"431 362 LINE",
"401 417 LINE",
"300 154 LINE",
"226 409 LINE SMOOTH",
"212 458 OFFCURVE",
"183 499 OFFCURVE",
"130 499 CURVE SMOOTH"
);
}
);
width = 753;
}
);
leftKerningGroup = w;
rightKerningGroup = w;
unicode = 0077;
},
{
color = 6;
glyphname = x;
lastChange = "2015-05-11 15:45:47 +0000";
layers = (
{
layerId = "E777F328-EA17-4AE7-9EBA-8002E537BA4F";
name = Light;
paths = (
{
closed = 1;
nodes = (
"82 509 OFFCURVE",
"50 476 OFFCURVE",
"28 443 CURVE",
"38 428 LINE",
"51 437 OFFCURVE",
"61 437 OFFCURVE",
"68 437 CURVE SMOOTH",
"168 437 OFFCURVE",
"347 -6 OFFCURVE",
"446 -6 CURVE SMOOTH",
"464 -6 OFFCURVE",
"497 27 OFFCURVE",
"520 62 CURVE",
"509 77 LINE",
"493 70 OFFCURVE",
"488 68 OFFCURVE",
"481 68 CURVE SMOOTH",
"378 68 OFFCURVE",
"201 509 OFFCURVE",
"105 509 CURVE SMOOTH"
);
},
{
closed = 1;
nodes = (
"207 523 OFFCURVE",
"300 110 OFFCURVE",
"124 110 CURVE SMOOTH",
"108 110 OFFCURVE",
"82 125 OFFCURVE",
"78 131 CURVE",
"27 23 LINE",
"50 -1 OFFCURVE",
"75 -6 OFFCURVE",
"93 -6 CURVE SMOOTH",
"321 -6 OFFCURVE",
"220 406 OFFCURVE",
"410 406 CURVE SMOOTH",
"432 406 OFFCURVE",
"455 396 OFFCURVE",
"465 387 CURVE",
"510 490 LINE",
"491 516 OFFCURVE",
"464 523 OFFCURVE",
"441 523 CURVE SMOOTH"
);
}
);
width = 560;
},
{
layerId = "39185045-6A8C-415A-8312-7B8F11386A4C";
name = Regular;
paths = (
{
closed = 1;
nodes = (
"105 509 OFFCURVE",
"47 458 OFFCURVE",
"18 417 CURVE",
"38 394 LINE",
"50 404 OFFCURVE",
"67 414 OFFCURVE",
"84 414 CURVE SMOOTH",
"200 414 OFFCURVE",
"250 -10 OFFCURVE",
"410 -10 CURVE SMOOTH",
"473 -10 OFFCURVE",
"533 40 OFFCURVE",
"560 80 CURVE",
"540 104 LINE",
"528 93 OFFCURVE",
"514 84 OFFCURVE",
"494 84 CURVE SMOOTH",
"379 84 OFFCURVE",
"329 509 OFFCURVE",
"170 509 CURVE SMOOTH"
);
},
{
closed = 1;
nodes = (
"260 513 OFFCURVE",
"305 103 OFFCURVE",
"142 103 CURVE SMOOTH",
"117 103 OFFCURVE",
"87 116 OFFCURVE",
"63 138 CURVE",
"14 23 LINE",
"40 1 OFFCURVE",
"72 -10 OFFCURVE",
"112 -10 CURVE SMOOTH",
"317 -10 OFFCURVE",
"275 401 OFFCURVE",
"427 401 CURVE SMOOTH",
"450 401 OFFCURVE",
"478 384 OFFCURVE",
"500 366 CURVE",
"553 484 LINE",
"527 502 OFFCURVE",
"498 513 OFFCURVE",
"461 513 CURVE SMOOTH"
);
}
);
width = 579;
}
);
leftKerningGroup = x;
rightKerningGroup = x;
unicode = 0078;
},
{
color = 6;
glyphname = y;
lastChange = "2015-05-11 15:45:47 +0000";
layers = (
{
anchors = (
{
name = top;
position = "{296, 537}";
}
);
background = {
paths = (
{
closed = 1;
nodes = (
"802 1013 LINE",
"786 837 OFFCURVE",
"747 614 OFFCURVE",
"683 455 CURVE SMOOTH",
"662 403 OFFCURVE",
"579 214 OFFCURVE",
"508 214 CURVE SMOOTH",
"471 214 OFFCURVE",
"468 268 OFFCURVE",
"468 291 CURVE SMOOTH",
"468 858 LINE SMOOTH",
"468 993 OFFCURVE",
"409 1080 OFFCURVE",
"266 1080 CURVE SMOOTH",
"156 1080 OFFCURVE",
"59 996 OFFCURVE",
"17 902 CURVE",
"54 860 LINE",
"76 894 OFFCURVE",
"115 936 OFFCURVE",
"161 936 CURVE SMOOTH",
"200 936 OFFCURVE",
"218 896 OFFCURVE",
"218 864 CURVE SMOOTH",
"218 268 LINE SMOOTH",
"218 140 OFFCURVE",
"209 -28 OFFCURVE",
"377 -28 CURVE SMOOTH",
"626 -28 OFFCURVE",
"758 455 OFFCURVE",
"802 646 CURVE",
"802 91 LINE SMOOTH",
"802 -54 OFFCURVE",
"797 -468 OFFCURVE",
"586 -468 CURVE SMOOTH",
"508 -468 OFFCURVE",
"428 -414 OFFCURVE",
"372 -370 CURVE",
"218 -564 LINE",
"280 -608 OFFCURVE",
"349 -637 OFFCURVE",
"428 -637 CURVE SMOOTH",
"743 -637 OFFCURVE",
"1055 -285 OFFCURVE",
"1055 113 CURVE SMOOTH",
"1055 1100 LINE"
);
}
);
};
layerId = "E777F328-EA17-4AE7-9EBA-8002E537BA4F";
name = Light;
paths = (
{
closed = 1;
nodes = (
"387 468 LINE",
"387 363 OFFCURVE",
"267 97 OFFCURVE",
"213 97 CURVE SMOOTH",
"199 97 OFFCURVE",
"192 110 OFFCURVE",
"192 135 CURVE SMOOTH",
"192 410 LINE SMOOTH",
"192 474 OFFCURVE",
"167 508 OFFCURVE",
"117 508 CURVE",
"62 508 OFFCURVE",
"45 491 OFFCURVE",
"17 428 CURVE",
"32 413 LINE",
"50 441 OFFCURVE",
"68 456 OFFCURVE",
"86 456 CURVE SMOOTH",
"102 456 OFFCURVE",
"115 440 OFFCURVE",
"115 418 CURVE SMOOTH",
"115 135 LINE SMOOTH",
"115 12 OFFCURVE",
"123 -12 OFFCURVE",
"177 -12 CURVE SMOOTH",
"266 -12 OFFCURVE",
"337 119 OFFCURVE",
"395 383 CURVE",
"401 383 LINE",
"402 343 OFFCURVE",
"401 239 OFFCURVE",
"401 68 CURVE",
"401 -99 OFFCURVE",
"350 -228 OFFCURVE",
"289 -228 CURVE SMOOTH",
"255 -228 OFFCURVE",
"212 -210 OFFCURVE",
"185 -181 CURVE",
"117 -268 LINE",
"154 -295 OFFCURVE",
"185 -304 OFFCURVE",
"218 -304 CURVE SMOOTH",
"357 -304 OFFCURVE",
"476 -140 OFFCURVE",
"476 54 CURVE SMOOTH",
"476 515 LINE"
);
}
);
width = 561;
},
{
anchors = (
{
name = top;
position = "{311, 537}";
}
);
layerId = "39185045-6A8C-415A-8312-7B8F11386A4C";
name = Regular;
paths = (
{
closed = 1;
nodes = (
"373 473 LINE",
"373 304 OFFCURVE",
"309 103 OFFCURVE",
"265 103 CURVE SMOOTH",
"255 103 OFFCURVE",
"248 115 OFFCURVE",
"248 137 CURVE SMOOTH",
"248 400 LINE SMOOTH",
"248 469 OFFCURVE",
"207 509 OFFCURVE",
"138 509 CURVE SMOOTH",
"80 509 OFFCURVE",
"38 480 OFFCURVE",
"6 420 CURVE",
"27 398 LINE",
"42 418 OFFCURVE",
"61 429 OFFCURVE",
"76 429 CURVE SMOOTH",
"90 429 OFFCURVE",
"99 418 OFFCURVE",
"99 394 CURVE SMOOTH",
"99 119 LINE SMOOTH",
"99 22 OFFCURVE",
"123 -12 OFFCURVE",
"186 -12 CURVE SMOOTH",
"271 -12 OFFCURVE",
"335 75 OFFCURVE",
"374 246 CURVE",
"381 246 LINE",
"376 203 OFFCURVE",
"374 125 OFFCURVE",
"374 24 CURVE SMOOTH",
"374 -133 OFFCURVE",
"341 -210 OFFCURVE",
"276 -210 CURVE SMOOTH",
"249 -210 OFFCURVE",
"212 -194 OFFCURVE",
"176 -164 CURVE",
"98 -261 LINE",
"131 -284 OFFCURVE",
"163 -294 OFFCURVE",
"199 -294 CURVE SMOOTH",
"362 -294 OFFCURVE",
"524 -122 OFFCURVE",
"524 55 CURVE SMOOTH",
"524 511 LINE"
);
}
);
width = 593;
}
);
leftKerningGroup = y;
rightKerningGroup = y;
unicode = 0079;
},
{
color = 6;
glyphname = z;
lastChange = "2015-05-11 15:45:47 +0000";
layers = (
{
anchors = (
{
name = top;
position = "{296, 537}";
}
);
layerId = "E777F328-EA17-4AE7-9EBA-8002E537BA4F";
name = Light;
paths = (
{
closed = 1;
nodes = (
"131 76 LINE",
"451 497 LINE",
"446 511 LINE",
"392 494 OFFCURVE",
"326 490 OFFCURVE",
"260 490 CURVE SMOOTH",
"213 490 OFFCURVE",
"174 502 OFFCURVE",
"113 500 CURVE",
"32 401 LINE",
"32 401 OFFCURVE",
"86 411 OFFCURVE",
"96 411 CURVE SMOOTH",
"150 411 OFFCURVE",
"185 406 OFFCURVE",
"230 406 CURVE SMOOTH",
"286 406 OFFCURVE",
"322 414 OFFCURVE",
"343 425 CURVE",
"348 418 LINE",
"34 6 LINE",
"44 -8 LINE",
"90 5 OFFCURVE",
"143 17 OFFCURVE",
"196 17 CURVE SMOOTH",
"245 17 OFFCURVE",
"318 -7 OFFCURVE",
"364 -7 CURVE SMOOTH",
"376 -7 OFFCURVE",
"385 -4 OFFCURVE",
"392 3 CURVE",
"470 105 LINE",
"433 91 OFFCURVE",
"392 87 OFFCURVE",
"359 87 CURVE SMOOTH",
"328 87 OFFCURVE",
"284 93 OFFCURVE",
"254 93 CURVE SMOOTH",
"218 93 OFFCURVE",
"171 87 OFFCURVE",
"136 71 CURVE"
);
}
);
width = 498;
},
{
anchors = (
{
name = top;
position = "{283, 537}";
}
);
layerId = "39185045-6A8C-415A-8312-7B8F11386A4C";
name = Regular;
paths = (
{
closed = 1;
nodes = (
"168 125 LINE",
"463 481 LINE",
"447 515 LINE",
"385 496 OFFCURVE",
"320 491 OFFCURVE",
"260 491 CURVE SMOOTH",
"197 491 OFFCURVE",
"158 497 OFFCURVE",
"106 500 CURVE",
"23 356 LINE",
"23 356 OFFCURVE",
"57 366 OFFCURVE",
"96 366 CURVE SMOOTH",
"140 366 OFFCURVE",
"168 361 OFFCURVE",
"206 361 CURVE SMOOTH",
"240 361 OFFCURVE",
"271 365 OFFCURVE",
"296 374 CURVE",
"300 366 LINE",
"14 20 LINE",
"42 -12 LINE",
"90 4 OFFCURVE",
"138 13 OFFCURVE",
"185 13 CURVE SMOOTH",
"236 13 OFFCURVE",
"284 -7 OFFCURVE",
"338 -7 CURVE SMOOTH",
"356 -7 OFFCURVE",
"374 -5 OFFCURVE",
"396 1 CURVE",
"480 155 LINE",
"443 138 OFFCURVE",
"408 132 OFFCURVE",
"365 132 CURVE SMOOTH",
"331 132 OFFCURVE",
"295 137 OFFCURVE",
"265 137 CURVE SMOOTH",
"239 137 OFFCURVE",
"203 131 OFFCURVE",
"173 119 CURVE"
);
}
);
width = 490;
}
);
leftKerningGroup = z;
rightKerningGroup = z;
unicode = 007A;
},
{
color = 6;
glyphname = f_f;
lastChange = "2015-05-11 15:45:47 +0000";
layers = (
{
hints = (
{
horizontal = 1;
origin = "{0, 11}";
target = "{0, 10}";
type = Stem;
},
{
horizontal = 1;
origin = "{1, 11}";
target = "{0, 5}";
type = Stem;
},
{
origin = "{0, 13}";
target = "{0, 14}";
type = Stem;
},
{
origin = "{0, 17}";
target = "{0, 18}";
type = Stem;
}
);
layerId = "E777F328-EA17-4AE7-9EBA-8002E537BA4F";
name = Light;
paths = (
{
closed = 1;
nodes = (
"472 719 OFFCURVE",
"426 689 OFFCURVE",
"398 643 CURVE",
"355 691 OFFCURVE",
"300 719 OFFCURVE",
"257 719 CURVE SMOOTH",
"117 719 OFFCURVE",
"69 599 OFFCURVE",
"69 491 CURVE SMOOTH",
"69 384 LINE",
"41 384 LINE",
"21 336 LINE",
"69 336 LINE",
"69 -138 LINE",
"146 -103 LINE",
"146 336 LINE",
"366 336 LINE",
"366 -138 LINE",
"441 -103 LINE",
"441 336 LINE",
"568 336 LINE",
"590 384 LINE",
"441 384 LINE",
"441 597 LINE",
"441 637 OFFCURVE",
"452 689 OFFCURVE",
"508 689 CURVE SMOOTH",
"549 689 OFFCURVE",
"574 654 OFFCURVE",
"586 625 CURVE",
"643 657 LINE",
"617 694 OFFCURVE",
"572 719 OFFCURVE",
"538 719 CURVE"
);
},
{
closed = 1;
nodes = (
"310 689 OFFCURVE",
"351 630 OFFCURVE",
"374 564 CURVE",
"368 540 OFFCURVE",
"366 515 OFFCURVE",
"366 491 CURVE SMOOTH",
"366 384 LINE",
"146 384 LINE",
"146 577 LINE SMOOTH",
"146 626 OFFCURVE",
"157 689 OFFCURVE",
"237 689 CURVE SMOOTH"
);
}
);
width = 569;
},
{
hints = (
{
horizontal = 1;
origin = "{0, 11}";
target = "{0, 10}";
type = Stem;
},
{
horizontal = 1;
origin = "{1, 11}";
target = "{0, 5}";
type = Stem;
},
{
origin = "{0, 13}";
target = "{0, 14}";
type = Stem;
},
{
origin = "{0, 17}";
target = "{0, 18}";
type = Stem;
}
);
layerId = "39185045-6A8C-415A-8312-7B8F11386A4C";
name = Regular;
paths = (
{
closed = 1;
nodes = (
"491 715 OFFCURVE",
"447 696 OFFCURVE",
"416 665 CURVE",
"375 698 OFFCURVE",
"322 715 OFFCURVE",
"267 715 CURVE SMOOTH",
"119 715 OFFCURVE",
"68 595 OFFCURVE",
"68 486 CURVE SMOOTH",
"68 384 LINE",
"36 384 LINE",
"13 330 LINE",
"68 330 LINE",
"68 -145 LINE",
"212 -96 LINE",
"212 330 LINE",
"349 330 LINE",
"349 -145 LINE",
"494 -96 LINE",
"494 330 LINE",
"561 330 LINE",
"584 384 LINE",
"494 384 LINE",
"494 582 LINE SMOOTH",
"494 614 OFFCURVE",
"498 661 OFFCURVE",
"530 661 CURVE SMOOTH",
"551 661 OFFCURVE",
"566 630 OFFCURVE",
"575 570 CURVE",
"694 634 LINE",
"666 689 OFFCURVE",
"609 715 OFFCURVE",
"551 715 CURVE SMOOTH"
);
},
{
closed = 1;
nodes = (
"302 661 OFFCURVE",
"338 620 OFFCURVE",
"354 543 CURVE",
"351 523 OFFCURVE",
"349 504 OFFCURVE",
"349 486 CURVE SMOOTH",
"349 384 LINE",
"212 384 LINE",
"212 582 LINE SMOOTH",
"212 614 OFFCURVE",
"222 661 OFFCURVE",
"263 661 CURVE SMOOTH"
);
}
);
width = 564;
}
);
leftKerningGroup = f;
rightKerningGroup = f;
unicode = FB00;
},
{
color = 6;
glyphname = f_f_i;
lastChange = "2015-05-11 15:45:47 +0000";
layers = (
{
hints = (
{
origin = "{0, 34}";
target = "{0, 35}";
type = Stem;
},
{
origin = "{0, 38}";
target = "{0, 39}";
type = Stem;
},
{
origin = "{0, 42}";
target = "{0, 6}";
type = Stem;
},
{
horizontal = 1;
origin = "{0, 36}";
target = "{1, 0}";
type = Stem;
},
{
horizontal = 1;
origin = "{1, 4}";
target = "{0, 13}";
type = Stem;
},
{
horizontal = 1;
origin = "{0, 26}";
target = "{0, 20}";
type = Stem;
},
{
horizontal = 1;
origin = "{1, 4}";
target = "{0, 26}";
type = Stem;
},
{
horizontal = 1;
origin = "{0, 45}";
target = "{0, 3}";
type = Stem;
}
);
layerId = "E777F328-EA17-4AE7-9EBA-8002E537BA4F";
name = Light;
paths = (
{
closed = 1;
nodes = (
"774 69 LINE",
"760 49 OFFCURVE",
"747 41 OFFCURVE",
"737 41 CURVE SMOOTH",
"723 41 OFFCURVE",
"715 51 OFFCURVE",
"715 68 CURVE SMOOTH",
"715 411 LINE",
"639 384 LINE",
"437 384 LINE",
"437 577 LINE SMOOTH",
"437 626 OFFCURVE",
"446 687 OFFCURVE",
"523 687 CURVE SMOOTH",
"577 687 OFFCURVE",
"609 641 OFFCURVE",
"625 595 CURVE",
"697 621 LINE",
"658 680 OFFCURVE",
"591 719 OFFCURVE",
"542 719 CURVE SMOOTH",
"469 719 OFFCURVE",
"423 686 OFFCURVE",
"394 637 CURVE",
"351 694 OFFCURVE",
"303 719 OFFCURVE",
"257 719 CURVE SMOOTH",
"120 719 OFFCURVE",
"75 599 OFFCURVE",
"75 491 CURVE SMOOTH",
"75 384 LINE",
"48 384 LINE",
"26 336 LINE",
"75 336 LINE",
"75 -138 LINE",
"150 -103 LINE",
"150 336 LINE",
"361 336 LINE",
"361 -138 LINE",
"437 -103 LINE",
"437 336 LINE",
"639 336 LINE",
"639 74 LINE SMOOTH",
"639 17 OFFCURVE",
"671 -4 OFFCURVE",
"699 -4 CURVE SMOOTH",
"725 -4 OFFCURVE",
"762 11 OFFCURVE",
"786 57 CURVE"
);
},
{
closed = 1;
nodes = (
"150 384 LINE",
"150 577 LINE SMOOTH",
"150 626 OFFCURVE",
"160 687 OFFCURVE",
"237 687 CURVE SMOOTH",
"309 687 OFFCURVE",
"346 628 OFFCURVE",
"368 563 CURVE",
"363 538 OFFCURVE",
"361 513 OFFCURVE",
"361 491 CURVE SMOOTH",
"361 384 LINE"
);
}
);
width = 798;
},
{
hints = (
{
origin = "{0, 34}";
target = "{0, 35}";
type = Stem;
},
{
origin = "{0, 38}";
target = "{0, 39}";
type = Stem;
},
{
origin = "{0, 42}";
target = "{0, 6}";
type = Stem;
},
{
horizontal = 1;
origin = "{0, 32}";
target = "{0, 31}";
type = Stem;
},
{
horizontal = 1;
origin = "{1, 4}";
target = "{0, 26}";
type = Stem;
},
{
horizontal = 1;
origin = "{0, 45}";
target = "{0, 3}";
type = Stem;
}
);
layerId = "39185045-6A8C-415A-8312-7B8F11386A4C";
name = Regular;
paths = (
{
closed = 1;
nodes = (
"811 81 LINE",
"804 71 OFFCURVE",
"789 62 OFFCURVE",
"777 62 CURVE SMOOTH",
"769 62 OFFCURVE",
"760 69 OFFCURVE",
"760 86 CURVE SMOOTH",
"760 419 LINE",
"617 384 LINE",
"494 384 LINE",
"494 582 LINE SMOOTH",
"494 614 OFFCURVE",
"504 661 OFFCURVE",
"545 661 CURVE SMOOTH",
"575 661 OFFCURVE",
"605 619 OFFCURVE",
"619 540 CURVE",
"758 590 LINE",
"719 673 OFFCURVE",
"635 715 OFFCURVE",
"549 715 CURVE SMOOTH",
"491 715 OFFCURVE",
"446 697 OFFCURVE",
"415 666 CURVE",
"374 698 OFFCURVE",
"322 715 OFFCURVE",
"267 715 CURVE SMOOTH",
"119 715 OFFCURVE",
"68 595 OFFCURVE",
"68 486 CURVE SMOOTH",
"68 384 LINE",
"36 384 LINE",
"13 330 LINE",
"68 330 LINE",
"68 -145 LINE",
"212 -96 LINE",
"212 330 LINE",
"349 330 LINE",
"349 -145 LINE",
"494 -96 LINE",
"494 330 LINE",
"617 330 LINE",
"617 79 LINE SMOOTH",
"617 37 OFFCURVE",
"639 -9 OFFCURVE",
"716 -9 CURVE SMOOTH",
"778 -9 OFFCURVE",
"814 31 OFFCURVE",
"832 60 CURVE"
);
},
{
closed = 1;
nodes = (
"212 384 LINE",
"212 582 LINE SMOOTH",
"212 614 OFFCURVE",
"222 661 OFFCURVE",
"263 661 CURVE SMOOTH",
"302 661 OFFCURVE",
"338 620 OFFCURVE",
"354 543 CURVE",
"352 525 OFFCURVE",
"350 508 OFFCURVE",
"349 487 CURVE",
"349 384 LINE"
);
}
);
width = 833;
}
);
},
{
color = 6;
glyphname = f_f_l;
lastChange = "2015-05-11 15:45:47 +0000";
layers = (
{
hints = (
{
horizontal = 1;
origin = "{0, 27}";
target = "{0, 34}";
type = Stem;
},
{
horizontal = 1;
origin = "{0, 5}";
target = "{0, 4}";
type = Stem;
},
{
horizontal = 1;
origin = "{1, 11}";
target = "{0, 48}";
type = Stem;
},
{
origin = "{0, 7}";
target = "{0, 8}";
type = Stem;
},
{
origin = "{0, 11}";
target = "{0, 12}";
type = Stem;
},
{
origin = "{0, 24}";
target = "{0, 37}";
type = Stem;
}
);
layerId = "E777F328-EA17-4AE7-9EBA-8002E537BA4F";
name = Light;
paths = (
{
closed = 1;
nodes = (
"120 719 OFFCURVE",
"75 599 OFFCURVE",
"75 491 CURVE SMOOTH",
"75 384 LINE",
"48 384 LINE",
"26 336 LINE",
"75 336 LINE",
"75 -138 LINE",
"150 -103 LINE",
"150 336 LINE",
"361 336 LINE",
"361 -138 LINE",
"437 -103 LINE",
"437 336 LINE",
"558 336 LINE",
"580 384 LINE",
"437 384 LINE",
"437 577 LINE SMOOTH",
"437 626 OFFCURVE",
"446 687 OFFCURVE",
"523 687 CURVE SMOOTH",
"585 687 OFFCURVE",
"623 637 OFFCURVE",
"641 581 CURVE",
"641 74 LINE SMOOTH",
"641 21 OFFCURVE",
"661 -4 OFFCURVE",
"707 -4 CURVE SMOOTH",
"740 -4 OFFCURVE",
"774 23 OFFCURVE",
"788 57 CURVE",
"777 69 LINE",
"769 59 OFFCURVE",
"752 41 OFFCURVE",
"738 41 CURVE SMOOTH",
"720 41 OFFCURVE",
"717 57 OFFCURVE",
"717 68 CURVE SMOOTH",
"717 711 LINE",
"640 681 LINE",
"608 706 OFFCURVE",
"572 719 OFFCURVE",
"542 719 CURVE SMOOTH",
"469 719 OFFCURVE",
"423 686 OFFCURVE",
"394 637 CURVE",
"351 694 OFFCURVE",
"303 719 OFFCURVE",
"257 719 CURVE SMOOTH"
);
},
{
closed = 1;
nodes = (
"309 687 OFFCURVE",
"346 628 OFFCURVE",
"368 563 CURVE",
"363 538 OFFCURVE",
"361 513 OFFCURVE",
"361 487 CURVE SMOOTH",
"361 384 LINE",
"150 384 LINE",
"150 577 LINE SMOOTH",
"150 626 OFFCURVE",
"160 687 OFFCURVE",
"237 687 CURVE SMOOTH"
);
}
);
width = 802;
},
{
hints = (
{
horizontal = 1;
origin = "{0, 27}";
target = up;
type = BottomGhost;
},
{
horizontal = 1;
origin = "{0, 5}";
target = "{0, 4}";
type = Stem;
},
{
horizontal = 1;
origin = "{1, 11}";
target = "{0, 48}";
type = Stem;
},
{
horizontal = 1;
origin = "{0, 27}";
target = "{0, 34}";
type = Stem;
},
{
origin = "{0, 7}";
target = "{0, 8}";
type = Stem;
},
{
origin = "{0, 11}";
target = "{0, 12}";
type = Stem;
},
{
origin = "{0, 24}";
target = "{0, 37}";
type = Stem;
}
);
layerId = "39185045-6A8C-415A-8312-7B8F11386A4C";
name = Regular;
paths = (
{
closed = 1;
nodes = (
"119 715 OFFCURVE",
"68 595 OFFCURVE",
"68 486 CURVE SMOOTH",
"68 384 LINE",
"36 384 LINE",
"13 330 LINE",
"68 330 LINE",
"68 -145 LINE",
"212 -96 LINE",
"212 330 LINE",
"349 330 LINE",
"349 -145 LINE",
"494 -96 LINE",
"494 330 LINE",
"561 330 LINE",
"584 384 LINE",
"494 384 LINE",
"494 582 LINE SMOOTH",
"494 614 OFFCURVE",
"504 661 OFFCURVE",
"545 661 CURVE SMOOTH",
"575 661 OFFCURVE",
"605 634 OFFCURVE",
"619 582 CURVE",
"619 79 LINE SMOOTH",
"619 37 OFFCURVE",
"640 -9 OFFCURVE",
"717 -9 CURVE SMOOTH",
"779 -9 OFFCURVE",
"815 31 OFFCURVE",
"833 60 CURVE",
"814 81 LINE",
"806 71 OFFCURVE",
"791 62 OFFCURVE",
"778 62 CURVE SMOOTH",
"770 62 OFFCURVE",
"762 69 OFFCURVE",
"762 86 CURVE SMOOTH",
"762 712 LINE",
"670 686 LINE",
"633 705 OFFCURVE",
"591 715 OFFCURVE",
"549 715 CURVE SMOOTH",
"491 715 OFFCURVE",
"446 697 OFFCURVE",
"415 666 CURVE",
"374 698 OFFCURVE",
"322 715 OFFCURVE",
"267 715 CURVE SMOOTH"
);
},
{
closed = 1;
nodes = (
"302 661 OFFCURVE",
"338 620 OFFCURVE",
"354 543 CURVE",
"351 525 OFFCURVE",
"349 508 OFFCURVE",
"349 491 CURVE",
"349 384 LINE",
"212 384 LINE",
"212 582 LINE SMOOTH",
"212 614 OFFCURVE",
"222 661 OFFCURVE",
"263 661 CURVE SMOOTH"
);
}
);
width = 833;
}
);
},
{
color = 6;
glyphname = fi;
lastChange = "2015-05-11 15:45:47 +0000";
layers = (
{
hints = (
{
horizontal = 1;
origin = "{0, 35}";
target = "{0, 3}";
type = Stem;
},
{
horizontal = 1;
origin = "{0, 26}";
target = "{0, 25}";
type = Stem;
},
{
horizontal = 1;
origin = "{0, 13}";
target = "{0, 20}";
type = Stem;
},
{
horizontal = 1;
origin = "{0, 35}";
target = up;
type = BottomGhost;
},
{
origin = "{0, 28}";
target = "{0, 29}";
type = Stem;
},
{
origin = "{0, 32}";
target = "{0, 6}";
type = Stem;
}
);
layerId = "E777F328-EA17-4AE7-9EBA-8002E537BA4F";
name = Light;
paths = (
{
closed = 1;
nodes = (
"489 69 LINE",
"475 49 OFFCURVE",
"462 40 OFFCURVE",
"452 40 CURVE SMOOTH",
"437 40 OFFCURVE",
"428 51 OFFCURVE",
"428 68 CURVE SMOOTH",
"428 411 LINE",
"353 384 LINE",
"150 384 LINE",
"150 577 LINE SMOOTH",
"150 626 OFFCURVE",
"160 689 OFFCURVE",
"237 689 CURVE SMOOTH",
"292 689 OFFCURVE",
"325 641 OFFCURVE",
"340 595 CURVE",
"411 621 LINE",
"374 680 OFFCURVE",
"306 719 OFFCURVE",
"257 719 CURVE SMOOTH",
"121 719 OFFCURVE",
"75 599 OFFCURVE",
"75 491 CURVE SMOOTH",
"75 384 LINE",
"48 384 LINE",
"26 336 LINE",
"75 336 LINE",
"75 -138 LINE",
"150 -103 LINE",
"150 336 LINE",
"353 336 LINE",
"353 74 LINE SMOOTH",
"353 15 OFFCURVE",
"389 -4 OFFCURVE",
"416 -4 CURVE SMOOTH",
"439 -4 OFFCURVE",
"477 11 OFFCURVE",
"501 57 CURVE"
);
}
);
width = 515;
},
{
hints = (
{
origin = "{0, 28}";
target = "{0, 29}";
type = Stem;
},
{
origin = "{0, 32}";
target = "{0, 6}";
type = Stem;
},
{
horizontal = 1;
origin = "{0, 26}";
target = "{0, 25}";
type = Stem;
},
{
horizontal = 1;
origin = "{0, 13}";
target = "{0, 20}";
type = Stem;
},
{
horizontal = 1;
origin = "{0, 35}";
target = "{0, 3}";
type = Stem;
}
);
layerId = "39185045-6A8C-415A-8312-7B8F11386A4C";
name = Regular;
paths = (
{
closed = 1;
nodes = (
"528 81 LINE",
"522 71 OFFCURVE",
"508 62 OFFCURVE",
"494 62 CURVE SMOOTH",
"486 62 OFFCURVE",
"478 69 OFFCURVE",
"478 86 CURVE SMOOTH",
"478 419 LINE",
"335 384 LINE",
"212 384 LINE",
"212 582 LINE SMOOTH",
"212 614 OFFCURVE",
"222 661 OFFCURVE",
"263 661 CURVE SMOOTH",
"293 661 OFFCURVE",
"322 619 OFFCURVE",
"336 540 CURVE",
"477 590 LINE",
"437 673 OFFCURVE",
"354 715 OFFCURVE",
"267 715 CURVE SMOOTH",
"119 715 OFFCURVE",
"68 595 OFFCURVE",
"68 486 CURVE SMOOTH",
"68 384 LINE",
"36 384 LINE",
"13 330 LINE",
"68 330 LINE",
"68 -145 LINE",
"212 -96 LINE",
"212 330 LINE",
"335 330 LINE",
"335 79 LINE SMOOTH",
"335 37 OFFCURVE",
"356 -9 OFFCURVE",
"434 -9 CURVE SMOOTH",
"496 -9 OFFCURVE",
"532 31 OFFCURVE",
"549 60 CURVE"
);
}
);
width = 551;
}
);
leftKerningGroup = f;
rightKerningGroup = i;
unicode = FB01;
},
{
color = 6;
glyphname = fl;
lastChange = "2015-05-11 15:45:47 +0000";
layers = (
{
hints = (
{
horizontal = 1;
origin = "{0, 35}";
target = "{0, 3}";
type = Stem;
},
{
horizontal = 1;
origin = "{0, 17}";
target = "{0, 16}";
type = Stem;
},
{
horizontal = 1;
origin = "{0, 28}";
target = "{0, 11}";
type = Stem;
},
{
origin = "{0, 19}";
target = "{0, 20}";
type = Stem;
},
{
origin = "{0, 32}";
target = "{0, 6}";
type = Stem;
}
);
layerId = "E777F328-EA17-4AE7-9EBA-8002E537BA4F";
name = Light;
paths = (
{
closed = 1;
nodes = (
"491 69 LINE",
"483 59 OFFCURVE",
"468 40 OFFCURVE",
"453 40 CURVE SMOOTH",
"436 40 OFFCURVE",
"432 57 OFFCURVE",
"432 68 CURVE SMOOTH",
"432 711 LINE",
"355 680 LINE",
"324 706 OFFCURVE",
"286 719 OFFCURVE",
"257 719 CURVE SMOOTH",
"121 719 OFFCURVE",
"75 599 OFFCURVE",
"75 491 CURVE SMOOTH",
"75 384 LINE",
"48 384 LINE",
"26 336 LINE",
"75 336 LINE",
"75 -138 LINE",
"150 -103 LINE",
"150 336 LINE",
"273 336 LINE",
"294 384 LINE",
"150 384 LINE",
"150 577 LINE SMOOTH",
"150 626 OFFCURVE",
"160 689 OFFCURVE",
"237 689 CURVE SMOOTH",
"300 689 OFFCURVE",
"338 637 OFFCURVE",
"356 581 CURVE",
"356 74 LINE SMOOTH",
"356 21 OFFCURVE",
"377 -4 OFFCURVE",
"423 -4 CURVE SMOOTH",
"455 -4 OFFCURVE",
"489 23 OFFCURVE",
"502 57 CURVE"
);
}
);
width = 517;
},
{
layerId = "39185045-6A8C-415A-8312-7B8F11386A4C";
name = Regular;
paths = (
{
closed = 1;
nodes = (
"532 81 LINE",
"523 71 OFFCURVE",
"508 62 OFFCURVE",
"496 62 CURVE SMOOTH",
"487 62 OFFCURVE",
"480 69 OFFCURVE",
"480 86 CURVE SMOOTH",
"480 712 LINE",
"386 686 LINE",
"350 705 OFFCURVE",
"309 715 OFFCURVE",
"267 715 CURVE SMOOTH",
"119 715 OFFCURVE",
"68 595 OFFCURVE",
"68 486 CURVE SMOOTH",
"68 384 LINE",
"36 384 LINE",
"13 330 LINE",
"68 330 LINE",
"68 -145 LINE",
"212 -96 LINE",
"212 330 LINE",
"278 330 LINE",
"302 384 LINE",
"212 384 LINE",
"212 582 LINE SMOOTH",
"212 614 OFFCURVE",
"222 661 OFFCURVE",
"263 661 CURVE SMOOTH",
"293 661 OFFCURVE",
"322 634 OFFCURVE",
"336 582 CURVE",
"336 79 LINE SMOOTH",
"336 37 OFFCURVE",
"358 -9 OFFCURVE",
"436 -9 CURVE SMOOTH",
"498 -9 OFFCURVE",
"533 31 OFFCURVE",
"551 60 CURVE"
);
}
);
width = 553;
}
);
leftKerningGroup = f;
rightKerningGroup = l;
unicode = FB02;
},
{
color = 6;
glyphname = ordfeminine;
lastChange = "2015-05-11 15:45:47 +0000";
layers = (
{
components = (
{
name = a;
transform = "{0.8, 0, 0, 0.8, 34, 401}";
}
);
layerId = "E777F328-EA17-4AE7-9EBA-8002E537BA4F";
name = Light;
paths = (
{
closed = 1;
nodes = (
"354 319 LINE",
"330 253 LINE",
"59 253 LINE",
"83 319 LINE"
);
}
);
width = 420;
},
{
components = (
{
name = a;
transform = "{0.8, 0, 0, 0.8, 17, 402}";
}
);
layerId = "39185045-6A8C-415A-8312-7B8F11386A4C";
name = Regular;
paths = (
{
closed = 1;
nodes = (
"370 319 LINE",
"346 243 LINE",
"34 243 LINE",
"59 319 LINE"
);
}
);
width = 410;
}
);
leftKerningGroup = ordfeminine;
rightKerningGroup = ordfeminine;
unicode = 00AA;
},
{
color = 6;
glyphname = ordmasculine;
lastChange = "2015-05-11 15:45:47 +0000";
layers = (
{
components = (
{
name = o;
transform = "{0.8, 0, 0, 0.8, 39, 401}";
}
);
layerId = "E777F328-EA17-4AE7-9EBA-8002E537BA4F";
name = Light;
paths = (
{
closed = 1;
nodes = (
"354 319 LINE",
"330 253 LINE",
"59 253 LINE",
"83 319 LINE"
);
}
);
width = 408;
},
{
components = (
{
name = o;
transform = "{0.8, 0, 0, 0.8, 24, 402}";
}
);
layerId = "39185045-6A8C-415A-8312-7B8F11386A4C";
name = Regular;
paths = (
{
closed = 1;
nodes = (
"370 319 LINE",
"346 243 LINE",
"34 243 LINE",
"59 319 LINE"
);
}
);
width = 398;
}
);
leftKerningGroup = ordmasculine;
rightKerningGroup = ordmasculine;
unicode = 00BA;
},
{
color = 6;
glyphname = Omega;
lastChange = "2015-05-11 15:45:47 +0000";
layers = (
{
layerId = "E777F328-EA17-4AE7-9EBA-8002E537BA4F";
name = Light;
paths = (
{
closed = 1;
nodes = (
"284 731 OFFCURVE",
"108 621 OFFCURVE",
"108 379 CURVE SMOOTH",
"108 242 OFFCURVE",
"209 110 OFFCURVE",
"308 69 CURVE",
"99 69 LINE",
"69 0 LINE",
"403 0 LINE",
"403 66 LINE",
"315 112 OFFCURVE",
"209 230 OFFCURVE",
"209 380 CURVE SMOOTH",
"209 580 OFFCURVE",
"320 683 OFFCURVE",
"471 683 CURVE",
"621 683 OFFCURVE",
"733 580 OFFCURVE",
"733 380 CURVE SMOOTH",
"733 230 OFFCURVE",
"626 112 OFFCURVE",
"538 66 CURVE",
"538 0 LINE",
"873 0 LINE",
"842 69 LINE",
"635 69 LINE",
"733 110 OFFCURVE",
"834 242 OFFCURVE",
"834 379 CURVE SMOOTH",
"834 621 OFFCURVE",
"658 731 OFFCURVE",
"471 731 CURVE"
);
}
);
width = 941;
},
{
layerId = "39185045-6A8C-415A-8312-7B8F11386A4C";
name = Regular;
paths = (
{
closed = 1;
nodes = (
"277 731 OFFCURVE",
"83 625 OFFCURVE",
"83 383 CURVE SMOOTH",
"83 246 OFFCURVE",
"189 131 OFFCURVE",
"280 103 CURVE",
"88 103 LINE",
"41 0 LINE",
"411 0 LINE",
"411 92 LINE",
"336 131 OFFCURVE",
"234 242 OFFCURVE",
"234 385 CURVE SMOOTH",
"234 575 OFFCURVE",
"330 673 OFFCURVE",
"468 673 CURVE",
"606 673 OFFCURVE",
"702 575 OFFCURVE",
"702 385 CURVE SMOOTH",
"702 242 OFFCURVE",
"600 131 OFFCURVE",
"525 92 CURVE",
"525 0 LINE",
"896 0 LINE",
"849 103 LINE",
"657 103 LINE",
"747 131 OFFCURVE",
"854 246 OFFCURVE",
"854 383 CURVE SMOOTH",
"854 625 OFFCURVE",
"660 731 OFFCURVE",
"468 731 CURVE"
);
}
);
width = 936;
}
);
unicode = 03A9;
},
{
color = 6;
glyphname = mu;
lastChange = "2015-05-11 15:45:47 +0000";
layers = (
{
layerId = "E777F328-EA17-4AE7-9EBA-8002E537BA4F";
name = Light;
paths = (
{
closed = 1;
nodes = (
"447 468 LINE",
"412 349 OFFCURVE",
"339 97 OFFCURVE",
"257 97 CURVE SMOOTH",
"246 97 OFFCURVE",
"236 101 OFFCURVE",
"236 135 CURVE SMOOTH",
"236 410 LINE SMOOTH",
"236 487 OFFCURVE",
"184 508 OFFCURVE",
"166 508 CURVE SMOOTH",
"148 508 OFFCURVE",
"91 494 OFFCURVE",
"55 428 CURVE",
"69 413 LINE",
"92 443 OFFCURVE",
"112 456 OFFCURVE",
"122 456 CURVE SMOOTH",
"144 456 OFFCURVE",
"158 439 OFFCURVE",
"158 418 CURVE SMOOTH",
"158 -239 LINE",
"236 -193 LINE",
"236 -16 LINE",
"374 36 OFFCURVE",
"428 297 OFFCURVE",
"447 383 CURVE",
"449 383 LINE",
"449 59 LINE SMOOTH",
"449 0 OFFCURVE",
"495 -4 OFFCURVE",
"517 -4 CURVE SMOOTH",
"540 -4 OFFCURVE",
"593 10 OFFCURVE",
"628 77 CURVE",
"616 91 LINE",
"593 59 OFFCURVE",
"572 50 OFFCURVE",
"559 50 CURVE SMOOTH",
"543 50 OFFCURVE",
"527 67 OFFCURVE",
"527 84 CURVE SMOOTH",
"527 515 LINE"
);
}
);
width = 673;
},
{
layerId = "39185045-6A8C-415A-8312-7B8F11386A4C";
name = Regular;
paths = (
{
closed = 1;
nodes = (
"397 473 LINE",
"384 287 OFFCURVE",
"337 103 OFFCURVE",
"284 103 CURVE SMOOTH",
"274 103 OFFCURVE",
"268 117 OFFCURVE",
"268 137 CURVE SMOOTH",
"268 400 LINE SMOOTH",
"268 462 OFFCURVE",
"230 509 OFFCURVE",
"159 509 CURVE SMOOTH",
"102 509 OFFCURVE",
"52 470 OFFCURVE",
"24 420 CURVE",
"46 398 LINE",
"59 417 OFFCURVE",
"80 429 OFFCURVE",
"93 429 CURVE SMOOTH",
"108 429 OFFCURVE",
"120 419 OFFCURVE",
"120 394 CURVE SMOOTH",
"120 -245 LINE",
"268 -194 LINE",
"268 5 LINE",
"340 41 OFFCURVE",
"377 166 OFFCURVE",
"397 246 CURVE",
"401 246 LINE",
"401 125 LINE",
"401 45 OFFCURVE",
"439 -9 OFFCURVE",
"506 -9 CURVE SMOOTH",
"565 -9 OFFCURVE",
"613 27 OFFCURVE",
"641 74 CURVE",
"619 95 LINE",
"606 77 OFFCURVE",
"586 65 OFFCURVE",
"570 65 CURVE SMOOTH",
"558 65 OFFCURVE",
"545 77 OFFCURVE",
"545 99 CURVE SMOOTH",
"545 511 LINE"
);
}
);
width = 661;
}
);
leftKerningGroup = p;
rightKerningGroup = u;
unicode = 00B5;
},
{
color = 6;
glyphname = pi;
lastChange = "2015-05-11 15:45:47 +0000";
layers = (
{
hints = (
{
horizontal = 1;
origin = "{0, 19}";
target = "{0, 3}";
type = Stem;
},
{
horizontal = 1;
origin = "{0, 10}";
target = "{0, 9}";
type = Stem;
},
{
horizontal = 1;
origin = "{0, 12}";
target = up;
type = BottomGhost;
},
{
horizontal = 1;
origin = "{0, 13}";
target = up;
type = BottomGhost;
},
{
horizontal = 1;
origin = "{0, 19}";
target = up;
type = BottomGhost;
},
{
origin = "{0, 12}";
target = "{0, 13}";
type = Stem;
},
{
origin = "{0, 16}";
target = "{0, 6}";
type = Stem;
}
);
layerId = "E777F328-EA17-4AE7-9EBA-8002E537BA4F";
name = Light;
paths = (
{
closed = 1;
nodes = (
"583 87 LINE",
"563 58 OFFCURVE",
"548 46 OFFCURVE",
"536 46 CURVE SMOOTH",
"517 46 OFFCURVE",
"501 62 OFFCURVE",
"501 83 CURVE SMOOTH",
"501 516 LINE",
"420 481 LINE",
"81 481 LINE",
"55 420 LINE",
"116 420 LINE",
"116 -27 LINE",
"197 0 LINE",
"197 420 LINE",
"420 420 LINE",
"420 95 LINE SMOOTH",
"420 14 OFFCURVE",
"471 -4 OFFCURVE",
"494 -4 CURVE SMOOTH",
"513 -4 OFFCURVE",
"563 9 OFFCURVE",
"598 73 CURVE"
);
}
);
width = 617;
},
{
hints = (
{
origin = "{0, 12}";
target = "{0, 13}";
type = Stem;
},
{
horizontal = 1;
origin = "{0, 10}";
target = "{0, 9}";
type = Stem;
},
{
origin = "{0, 16}";
target = "{0, 6}";
type = Stem;
},
{
horizontal = 1;
origin = "{0, 19}";
target = "{0, 3}";
type = Stem;
}
);
layerId = "39185045-6A8C-415A-8312-7B8F11386A4C";
name = Regular;
paths = (
{
closed = 1;
nodes = (
"650 99 LINE",
"637 80 OFFCURVE",
"612 68 OFFCURVE",
"598 68 CURVE SMOOTH",
"584 68 OFFCURVE",
"579 80 OFFCURVE",
"579 102 CURVE SMOOTH",
"579 523 LINE",
"429 481 LINE",
"70 481 LINE",
"41 415 LINE",
"109 415 LINE",
"109 -25 LINE",
"259 0 LINE",
"259 415 LINE",
"429 415 LINE",
"429 100 LINE SMOOTH",
"429 36 OFFCURVE",
"466 -9 OFFCURVE",
"539 -9 CURVE SMOOTH",
"598 -9 OFFCURVE",
"645 29 OFFCURVE",
"672 77 CURVE"
);
}
);
width = 680;
}
);
leftKerningGroup = f;
rightKerningGroup = i;
unicode = 03C0;
},
{
color = 3;
glyphname = "aShort-deva";
lastChange = "2023-01-27 10:38:42 +0000";
layers = (
{
background = {
paths = (
{
closed = 1;
nodes = (
"241 1291 OFFCURVE",
"227 1249 OFFCURVE",
"227 1209 CURVE SMOOTH",
"227 1150 OFFCURVE",
"304 1067 OFFCURVE",
"457 1067 CURVE SMOOTH",
"538 1067 OFFCURVE",
"609 1083 OFFCURVE",
"658 1083 CURVE SMOOTH",
"789 1083 OFFCURVE",
"803 986 OFFCURVE",
"803 956 CURVE SMOOTH",
"803 914 OFFCURVE",
"793 880 OFFCURVE",
"783 860 CURVE",
"849 857 LINE",
"854 885 OFFCURVE",
"864 915 OFFCURVE",
"864 972 CURVE SMOOTH",
"864 1013 OFFCURVE",
"844 1049 OFFCURVE",
"815 1083 CURVE SMOOTH",
"780 1122 OFFCURVE",
"716 1151 OFFCURVE",
"644 1151 CURVE SMOOTH",
"600 1151 OFFCURVE",
"441 1135 OFFCURVE",
"392 1135 CURVE SMOOTH",
"335 1135 OFFCURVE",
"288 1171 OFFCURVE",
"288 1230 CURVE SMOOTH",
"288 1251 OFFCURVE",
"294 1276 OFFCURVE",
"303 1306 CURVE",
"249 1315 LINE"
);
}
);
};
components = (
{
alignment = -1;
name = "a-deva";
},
{
alignment = -1;
name = "eShortMatra-deva";
transform = "{1, 0, 0, 1, 826, 0}";
}
);
layerId = "E777F328-EA17-4AE7-9EBA-8002E537BA4F";
name = Light;
width = 743;
},
{
components = (
{
alignment = -1;
name = "a-deva";
},
{
alignment = -1;
name = "eShortMatra-deva";
transform = "{1, 0, 0, 1, 1037, 0}";
}
);
layerId = "39185045-6A8C-415A-8312-7B8F11386A4C";
name = Regular;
width = 933;
}
);
unicode = 0904;
},
{
color = 3;
glyphname = "aCandra-deva";
lastChange = "2023-01-27 10:38:42 +0000";
layers = (
{
anchors = (
{
name = bottom;
position = "{606, 0}";
},
{
name = nukta;
position = "{110, 0}";
},
{
name = top;
position = "{592, 689}";
}
);
background = {
paths = (
{
closed = 1;
nodes = (
"361 446 LINE",
"414 408 OFFCURVE",
"434 343 OFFCURVE",
"434 289 CURVE SMOOTH",
"434 207 OFFCURVE",
"366 135 OFFCURVE",
"269 135 CURVE SMOOTH",
"140 135 OFFCURVE",
"13 275 OFFCURVE",
"-59 392 CURVE",
"-104 361 LINE",
"-37 238 OFFCURVE",
"95 25 OFFCURVE",
"320 25 CURVE SMOOTH",
"455 25 OFFCURVE",
"543 106 OFFCURVE",
"543 238 CURVE SMOOTH",
"543 346 OFFCURVE",
"491 413 OFFCURVE",
"409 483 CURVE"
);
},
{
closed = 1;
nodes = (
"186 919 OFFCURVE",
"68 868 OFFCURVE",
"17 830 CURVE",
"80 711 LINE",
"136 762 OFFCURVE",
"207 807 OFFCURVE",
"284 807 CURVE SMOOTH",
"355 807 OFFCURVE",
"419 749 OFFCURVE",
"419 685 CURVE SMOOTH",
"419 620 OFFCURVE",
"380 585 OFFCURVE",
"336 561 CURVE SMOOTH",
"286 535 OFFCURVE",
"205 526 OFFCURVE",
"156 523 CURVE",
"140 486 LINE",
"189 398 LINE",
"262 408 OFFCURVE",
"319 418 OFFCURVE",
"408 446 CURVE",
"481 502 OFFCURVE",
"506 581 OFFCURVE",
"506 635 CURVE SMOOTH",
"506 768 OFFCURVE",
"347 915 OFFCURVE",
"237 919 CURVE SMOOTH"
);
},
{
closed = 1;
nodes = (
"419 414 LINE",
"498 360 LINE",
"518 372 LINE",
"570 330 OFFCURVE",
"625 303 OFFCURVE",
"690 303 CURVE SMOOTH",
"740 303 OFFCURVE",
"771 317 OFFCURVE",
"795 335 CURVE",
"786 460 LINE",
"745 431 OFFCURVE",
"701 408 OFFCURVE",
"635 408 CURVE SMOOTH",
"556 408 OFFCURVE",
"464 446 OFFCURVE",
"414 477 CURVE"
);
},
{
closed = 1;
nodes = (
"773 833 LINE",
"773 395 LINE",
"687 319 LINE",
"773 319 LINE",
"773 -2 LINE",
"871 -59 LINE",
"894 -59 LINE",
"894 833 LINE"
);
},
{
closed = 1;
nodes = (
"527 896 LINE",
"527 873 LINE",
"572 792 LINE",
"1045 792 LINE",
"1045 813 LINE",
"1002 896 LINE"
);
},
{
closed = 1;
nodes = (
"1013 1264 LINE",
"975 1203 OFFCURVE",
"891 1126 OFFCURVE",
"771 1126 CURVE SMOOTH",
"680 1126 OFFCURVE",
"608 1194 OFFCURVE",
"551 1274 CURVE",
"508 1255 LINE",
"563 1160 OFFCURVE",
"670 1036 OFFCURVE",
"824 1036 CURVE SMOOTH",
"958 1036 OFFCURVE",
"1037 1099 OFFCURVE",
"1102 1180 CURVE"
);
}
);
};
components = (
{
alignment = -1;
name = "a-deva";
},
{
alignment = -1;
name = "eCandraMatra-deva";
transform = "{1, 0, 0, 1, 826, 0}";
}
);
layerId = "E777F328-EA17-4AE7-9EBA-8002E537BA4F";
name = Light;
width = 743;
},
{
anchors = (
{
name = bottom;
position = "{762, 0}";
},
{
name = nukta;
position = "{124, 0}";
},
{
name = top;
position = "{754, 689}";
}
);
components = (
{
alignment = -1;
name = "a-deva";
},
{
alignment = -1;
name = "eCandraMatra-deva";
transform = "{1, 0, 0, 1, 1037, 26}";
}
);
layerId = "39185045-6A8C-415A-8312-7B8F11386A4C";
name = Regular;
width = 933;
}
);
unicode = 0972;
},
{
color = 3;
glyphname = "a-deva";
lastChange = "2015-05-11 15:45:47 +0000";
layers = (
{
anchors = (
{
name = bottom;
position = "{606, 0}";
},
{
name = nukta;
position = "{110, 0}";
},
{
name = top;
position = "{592, 689}";
}
);
layerId = "E777F328-EA17-4AE7-9EBA-8002E537BA4F";
name = Light;
paths = (
{
closed = 1;
nodes = (
"28 345 LINE",
"95 157 OFFCURVE",
"221 28 OFFCURVE",
"338 28 CURVE SMOOTH",
"419 28 OFFCURVE",
"481 99 OFFCURVE",
"481 187 CURVE SMOOTH",
"481 249 OFFCURVE",
"449 322 OFFCURVE",
"395 394 CURVE",
"403 402 LINE",
"441 366 OFFCURVE",
"486 338 OFFCURVE",
"535 338 CURVE SMOOTH",
"547 338 OFFCURVE",
"559 340 OFFCURVE",
"572 345 CURVE",
"572 166 LINE SMOOTH",
"572 86 OFFCURVE",
"770 -55 OFFCURVE",
"888 -55 CURVE SMOOTH",
"908 -55 OFFCURVE",
"925 -46 OFFCURVE",
"943 -28 CURVE",
"881 14 LINE",
"868 -4 OFFCURVE",
"850 -14 OFFCURVE",
"833 -14 CURVE SMOOTH",
"769 -14 OFFCURVE",
"640 69 OFFCURVE",
"640 117 CURVE SMOOTH",
"640 620 LINE",
"572 689 LINE",
"413 689 LINE",
"475 620 LINE",
"572 620 LINE",
"572 427 LINE",
"554 402 OFFCURVE",
"527 392 OFFCURVE",
"501 392 CURVE SMOOTH",
"472 392 OFFCURVE",
"441 403 OFFCURVE",
"421 425 CURVE",
"439 453 OFFCURVE",
"449 485 OFFCURVE",
"449 519 CURVE SMOOTH",
"449 605 OFFCURVE",
"360 698 OFFCURVE",
"260 698 CURVE SMOOTH",
"196 698 OFFCURVE",
"128 665 OFFCURVE",
"88 608 CURVE",
"140 558 LINE",
"181 609 OFFCURVE",
"238 646 OFFCURVE",
"296 646 CURVE SMOOTH",
"349 646 OFFCURVE",
"394 599 OFFCURVE",
"394 545 CURVE SMOOTH",
"394 511 OFFCURVE",
"380 472 OFFCURVE",
"356 449 CURVE",
"326 487 OFFCURVE",
"292 509 OFFCURVE",
"262 509 CURVE SMOOTH",
"214 509 OFFCURVE",
"164 471 OFFCURVE",
"164 431 CURVE SMOOTH",
"164 384 OFFCURVE",
"229 328 OFFCURVE",
"275 328 CURVE SMOOTH",
"304 328 OFFCURVE",
"340 345 OFFCURVE",
"377 374 CURVE",
"409 330 OFFCURVE",
"428 284 OFFCURVE",
"428 238 CURVE SMOOTH",
"428 160 OFFCURVE",
"379 91 OFFCURVE",
"308 91 CURVE SMOOTH",
"214 91 OFFCURVE",
"115 202 OFFCURVE",
"59 358 CURVE"
);
},
{
closed = 1;
nodes = (
"758 620 LINE",
"758 689 LINE",
"613 689 LINE",
"681 620 LINE"
);
},
{
closed = 1;
nodes = (
"223 377 OFFCURVE",
"214 391 OFFCURVE",
"214 402 CURVE SMOOTH",
"214 426 OFFCURVE",
"260 457 OFFCURVE",
"288 457 CURVE SMOOTH",
"309 457 OFFCURVE",
"325 446 OFFCURVE",
"338 430 CURVE",
"299 398 OFFCURVE",
"260 377 OFFCURVE",
"237 377 CURVE SMOOTH"
);
}
);
width = 743;
},
{
anchors = (
{
name = bottom;
position = "{762, 0}";
},
{
name = nukta;
position = "{124, 0}";
},
{
name = top;
position = "{754, 689}";
}
);
layerId = "39185045-6A8C-415A-8312-7B8F11386A4C";
name = Regular;
paths = (
{
closed = 1;
nodes = (
"25 384 LINE",
"104 164 OFFCURVE",
"267 14 OFFCURVE",
"425 14 CURVE SMOOTH",
"522 14 OFFCURVE",
"602 92 OFFCURVE",
"602 185 CURVE SMOOTH",
"602 238 OFFCURVE",
"570 297 OFFCURVE",
"513 349 CURVE",
"525 364 LINE",
"572 325 OFFCURVE",
"609 304 OFFCURVE",
"635 304 CURVE SMOOTH",
"652 304 OFFCURVE",
"668 308 OFFCURVE",
"686 314 CURVE",
"686 166 LINE SMOOTH",
"686 79 OFFCURVE",
"936 -89 OFFCURVE",
"1064 -89 CURVE SMOOTH",
"1104 -89 OFFCURVE",
"1143 -71 OFFCURVE",
"1168 -41 CURVE",
"1037 32 LINE",
"1021 5 OFFCURVE",
"995 -7 OFFCURVE",
"968 -7 CURVE SMOOTH",
"923 -7 OFFCURVE",
"837 48 OFFCURVE",
"837 83 CURVE SMOOTH",
"837 551 LINE",
"720 689 LINE",
"492 689 LINE",
"603 551 LINE",
"686 551 LINE",
"686 436 LINE",
"654 406 OFFCURVE",
"611 392 OFFCURVE",
"573 392 CURVE SMOOTH",
"559 392 OFFCURVE",
"549 395 OFFCURVE",
"542 401 CURVE",
"554 425 OFFCURVE",
"563 453 OFFCURVE",
"563 491 CURVE SMOOTH",
"563 597 OFFCURVE",
"427 722 OFFCURVE",
"289 722 CURVE SMOOTH",
"207 722 OFFCURVE",
"141 707 OFFCURVE",
"95 678 CURVE",
"208 558 LINE",
"267 603 OFFCURVE",
"330 625 OFFCURVE",
"386 625 CURVE SMOOTH",
"427 625 OFFCURVE",
"447 597 OFFCURVE",
"447 561 CURVE SMOOTH",
"447 525 OFFCURVE",
"434 485 OFFCURVE",
"409 460 CURVE",
"375 491 OFFCURVE",
"332 511 OFFCURVE",
"293 511 CURVE SMOOTH",
"230 511 OFFCURVE",
"176 467 OFFCURVE",
"176 413 CURVE SMOOTH",
"176 341 OFFCURVE",
"286 253 OFFCURVE",
"370 253 CURVE SMOOTH",
"406 253 OFFCURVE",
"449 277 OFFCURVE",
"478 317 CURVE",
"491 297 OFFCURVE",
"500 283 OFFCURVE",
"500 267 CURVE SMOOTH",
"500 200 OFFCURVE",
"426 146 OFFCURVE",
"340 146 CURVE SMOOTH",
"237 146 OFFCURVE",
"131 248 OFFCURVE",
"71 405 CURVE"
);
},
{
closed = 1;
nodes = (
"947 551 LINE",
"947 689 LINE",
"789 689 LINE",
"906 551 LINE"
);
},
{
closed = 1;
nodes = (
"289 340 OFFCURVE",
"283 347 OFFCURVE",
"283 356 CURVE SMOOTH",
"283 385 OFFCURVE",
"328 430 OFFCURVE",
"358 430 CURVE SMOOTH",
"368 430 OFFCURVE",
"375 425 OFFCURVE",
"384 413 CURVE",
"340 356 OFFCURVE",
"313 340 OFFCURVE",
"297 340 CURVE SMOOTH"
);
}
);
width = 933;
}
);
unicode = 0905;
},
{
color = 3;
glyphname = "i-deva";
lastChange = "2015-05-11 15:45:47 +0000";
layers = (
{
anchors = (
{
name = top;
position = "{283, 689}";
}
);
layerId = "E777F328-EA17-4AE7-9EBA-8002E537BA4F";
name = Light;
paths = (
{
closed = 1;
nodes = (
"294 620 LINE",
"315 599 OFFCURVE",
"330 573 OFFCURVE",
"330 551 CURVE SMOOTH",
"330 532 OFFCURVE",
"311 517 OFFCURVE",
"288 517 CURVE SMOOTH",
"161 517 LINE SMOOTH",
"106 517 OFFCURVE",
"42 465 OFFCURVE",
"42 413 CURVE SMOOTH",
"42 355 OFFCURVE",
"128 268 OFFCURVE",
"211 268 CURVE SMOOTH",
"267 268 OFFCURVE",
"315 324 OFFCURVE",
"345 324 CURVE SMOOTH",
"370 324 OFFCURVE",
"394 299 OFFCURVE",
"394 268 CURVE SMOOTH",
"394 203 OFFCURVE",
"280 124 OFFCURVE",
"197 124 CURVE",
"160 163 OFFCURVE",
"126 186 OFFCURVE",
"97 186 CURVE SMOOTH",
"74 186 OFFCURVE",
"50 168 OFFCURVE",
"50 145 CURVE SMOOTH",
"50 94 OFFCURVE",
"119 55 OFFCURVE",
"197 55 CURVE",
"289 -51 OFFCURVE",
"394 -110 OFFCURVE",
"485 -110 CURVE SMOOTH",
"508 -110 OFFCURVE",
"535 -103 OFFCURVE",
"554 -83 CURVE",
"498 -34 LINE",
"480 -54 OFFCURVE",
"457 -62 OFFCURVE",
"436 -62 CURVE SMOOTH",
"372 -62 OFFCURVE",
"294 -17 OFFCURVE",
"227 62 CURVE",
"351 85 OFFCURVE",
"441 157 OFFCURVE",
"441 234 CURVE SMOOTH",
"441 300 OFFCURVE",
"379 372 OFFCURVE",
"317 372 CURVE SMOOTH",
"277 372 OFFCURVE",
"229 317 OFFCURVE",
"176 317 CURVE SMOOTH",
"134 317 OFFCURVE",
"97 345 OFFCURVE",
"97 379 CURVE SMOOTH",
"97 414 OFFCURVE",
"147 455 OFFCURVE",
"197 455 CURVE SMOOTH",
"324 455 LINE SMOOTH",
"354 455 OFFCURVE",
"379 480 OFFCURVE",
"379 509 CURVE SMOOTH",
"379 545 OFFCURVE",
"361 584 OFFCURVE",
"330 620 CURVE",
"262 689 LINE",
"-14 689 LINE",
"-14 620 LINE"
);
},
{
closed = 1;
nodes = (
"496 620 LINE",
"496 689 LINE",
"303 689 LINE",
"372 620 LINE"
);
}
);
width = 482;
},
{
anchors = (
{
name = top;
position = "{319, 689}";
}
);
layerId = "39185045-6A8C-415A-8312-7B8F11386A4C";
name = Regular;
paths = (
{
closed = 1;
nodes = (
"345 551 LINE",
"355 544 OFFCURVE",
"365 530 OFFCURVE",
"365 523 CURVE SMOOTH",
"365 509 OFFCURVE",
"348 501 OFFCURVE",
"335 501 CURVE SMOOTH",
"186 498 LINE SMOOTH",
"119 496 OFFCURVE",
"49 446 OFFCURVE",
"49 385 CURVE SMOOTH",
"49 313 OFFCURVE",
"192 193 OFFCURVE",
"275 193 CURVE SMOOTH",
"343 193 OFFCURVE",
"392 262 OFFCURVE",
"411 262 CURVE SMOOTH",
"428 262 OFFCURVE",
"441 248 OFFCURVE",
"441 227 CURVE SMOOTH",
"441 181 OFFCURVE",
"341 124 OFFCURVE",
"268 124 CURVE",
"234 164 OFFCURVE",
"181 186 OFFCURVE",
"138 186 CURVE SMOOTH",
"97 186 OFFCURVE",
"62 160 OFFCURVE",
"62 124 CURVE SMOOTH",
"62 66 OFFCURVE",
"141 -7 OFFCURVE",
"275 -7 CURVE",
"375 -112 OFFCURVE",
"468 -172 OFFCURVE",
"542 -172 CURVE SMOOTH",
"580 -172 OFFCURVE",
"617 -160 OFFCURVE",
"634 -138 CURVE",
"526 -28 LINE",
"509 -50 OFFCURVE",
"477 -62 OFFCURVE",
"443 -62 CURVE SMOOTH",
"409 -62 OFFCURVE",
"370 -40 OFFCURVE",
"335 -2 CURVE",
"446 7 OFFCURVE",
"535 71 OFFCURVE",
"535 145 CURVE SMOOTH",
"535 213 OFFCURVE",
"439 351 OFFCURVE",
"330 351 CURVE SMOOTH",
"264 351 OFFCURVE",
"232 275 OFFCURVE",
"193 275 CURVE SMOOTH",
"179 275 OFFCURVE",
"169 289 OFFCURVE",
"169 303 CURVE SMOOTH",
"169 346 OFFCURVE",
"218 383 OFFCURVE",
"275 385 CURVE SMOOTH",
"410 392 LINE SMOOTH",
"451 394 OFFCURVE",
"480 416 OFFCURVE",
"480 441 CURVE SMOOTH",
"480 467 OFFCURVE",
"457 509 OFFCURVE",
"418 551 CURVE SMOOTH",
"285 689 LINE",
"-14 689 LINE",
"-14 551 LINE"
);
},
{
closed = 1;
nodes = (
"590 551 LINE",
"590 689 LINE",
"354 689 LINE",
"486 551 LINE"
);
}
);
width = 575;
}
);
unicode = 0907;
},
{
color = 3;
glyphname = "ii-deva";
lastChange = "2023-01-27 10:38:42 +0000";
layers = (
{
anchors = (
{
name = top;
position = "{394, 689}";
}
);
background = {
paths = (
{
closed = 1;
nodes = (
"370 1328 OFFCURVE",
"257 1252 OFFCURVE",
"257 1131 CURVE SMOOTH",
"257 1040 OFFCURVE",
"329 941 OFFCURVE",
"419 871 CURVE",
"419 788 LINE",
"508 869 LINE",
"453 920 OFFCURVE",
"386 1013 OFFCURVE",
"386 1094 CURVE SMOOTH",
"386 1183 OFFCURVE",
"441 1226 OFFCURVE",
"509 1226 CURVE SMOOTH",
"570 1226 OFFCURVE",
"643 1190 OFFCURVE",
"673 1166 CURVE",
"709 1224 LINE",
"651 1286 OFFCURVE",
"570 1328 OFFCURVE",
"489 1328 CURVE SMOOTH"
);
},
{
closed = 0;
nodes = (
"253 1138 LINE",
"397 1096 LINE"
);
},
{
closed = 0;
nodes = (
"478 1348 LINE",
"508 1206 LINE"
);
}
);
};
components = (
{
alignment = -1;
name = "i-deva";
},
{
alignment = -1;
name = "reph-deva";
transform = "{1, 0, 0, 1, 451, -76}";
}
);
layerId = "E777F328-EA17-4AE7-9EBA-8002E537BA4F";
name = Light;
width = 434;
},
{
anchors = (
{
name = top;
position = "{394, 689}";
}
);
components = (
{
alignment = -1;
name = "i-deva";
},
{
alignment = -1;
name = "reph-deva";
transform = "{1, 0, 0, 1, 518, -76}";
}
);
layerId = "39185045-6A8C-415A-8312-7B8F11386A4C";
name = Regular;
width = 518;
}
);
unicode = 0908;
},
{
color = 3;
glyphname = "u-deva";
lastChange = "2015-05-11 15:45:47 +0000";
layers = (
{
anchors = (
{
name = bottom;
position = "{365, 55}";
},
{
name = top;
position = "{351, 689}";
}
);
layerId = "E777F328-EA17-4AE7-9EBA-8002E537BA4F";
name = Light;
paths = (
{
closed = 1;
nodes = (
"351 620 LINE",
"392 591 OFFCURVE",
"420 549 OFFCURVE",
"420 509 CURVE SMOOTH",
"420 458 OFFCURVE",
"368 420 OFFCURVE",
"310 420 CURVE SMOOTH",
"281 420 OFFCURVE",
"253 421 OFFCURVE",
"227 427 CURVE",
"239 401 OFFCURVE",
"258 377 OFFCURVE",
"288 353 CURVE",
"293 351 OFFCURVE",
"310 349 OFFCURVE",
"328 349 CURVE SMOOTH",
"354 349 OFFCURVE",
"377 355 OFFCURVE",
"400 366 CURVE",
"439 325 OFFCURVE",
"462 281 OFFCURVE",
"462 241 CURVE SMOOTH",
"462 171 OFFCURVE",
"397 117 OFFCURVE",
"324 117 CURVE SMOOTH",
"208 117 OFFCURVE",
"112 248 OFFCURVE",
"46 416 CURVE",
"21 406 LINE",
"96 198 OFFCURVE",
"236 55 OFFCURVE",
"365 55 CURVE SMOOTH",
"446 55 OFFCURVE",
"509 119 OFFCURVE",
"509 193 CURVE SMOOTH",
"509 257 OFFCURVE",
"477 322 OFFCURVE",
"420 379 CURVE",
"447 394 OFFCURVE",
"468 428 OFFCURVE",
"468 468 CURVE SMOOTH",
"468 511 OFFCURVE",
"449 570 OFFCURVE",
"400 620 CURVE SMOOTH",
"330 689 LINE",
"-14 689 LINE",
"-14 620 LINE"
);
},
{
closed = 1;
nodes = (
"579 620 LINE",
"579 689 LINE",
"372 689 LINE",
"441 620 LINE"
);
}
);
width = 564;
},
{
anchors = (
{
name = bottom;
position = "{420, 7}";
},
{
name = top;
position = "{379, 689}";
}
);
layerId = "39185045-6A8C-415A-8312-7B8F11386A4C";
name = Regular;
paths = (
{
closed = 1;
nodes = (
"392 551 LINE SMOOTH",
"416 551 OFFCURVE",
"434 525 OFFCURVE",
"434 496 CURVE SMOOTH",
"434 458 OFFCURVE",
"380 434 OFFCURVE",
"324 434 CURVE SMOOTH",
"280 434 OFFCURVE",
"246 437 OFFCURVE",
"221 447 CURVE",
"248 375 OFFCURVE",
"275 325 OFFCURVE",
"303 296 CURVE",
"315 292 OFFCURVE",
"336 289 OFFCURVE",
"365 289 CURVE SMOOTH",
"389 289 OFFCURVE",
"408 292 OFFCURVE",
"420 296 CURVE",
"441 275 OFFCURVE",
"455 251 OFFCURVE",
"455 227 CURVE SMOOTH",
"455 176 OFFCURVE",
"402 138 OFFCURVE",
"345 138 CURVE SMOOTH",
"234 138 OFFCURVE",
"121 251 OFFCURVE",
"62 413 CURVE",
"21 400 LINE",
"104 169 OFFCURVE",
"263 7 OFFCURVE",
"420 7 CURVE SMOOTH",
"504 7 OFFCURVE",
"572 68 OFFCURVE",
"572 138 CURVE SMOOTH",
"572 193 OFFCURVE",
"528 258 OFFCURVE",
"462 317 CURVE",
"502 336 OFFCURVE",
"530 372 OFFCURVE",
"530 406 CURVE SMOOTH",
"530 446 OFFCURVE",
"504 500 OFFCURVE",
"462 551 CURVE SMOOTH",
"345 689 LINE",
"-14 689 LINE",
"-14 551 LINE"
);
},
{
closed = 1;
nodes = (
"635 551 LINE",
"635 689 LINE",
"413 689 LINE",
"530 551 LINE"
);
}
);
width = 621;
}
);
unicode = 0909;
},
{
color = 3;
glyphname = "uu-deva";
lastChange = "2015-05-11 15:45:47 +0000";
layers = (
{
anchors = (
{
name = bottom;
position = "{365, 55}";
},
{
name = top;
position = "{351, 689}";
}
);
layerId = "E777F328-EA17-4AE7-9EBA-8002E537BA4F";
name = Light;
paths = (
{
closed = 1;
nodes = (
"351 620 LINE",
"392 591 OFFCURVE",
"420 549 OFFCURVE",
"420 509 CURVE SMOOTH",
"420 458 OFFCURVE",
"368 420 OFFCURVE",
"310 420 CURVE SMOOTH",
"281 420 OFFCURVE",
"253 421 OFFCURVE",
"227 427 CURVE",
"239 401 OFFCURVE",
"258 377 OFFCURVE",
"288 353 CURVE",
"293 351 OFFCURVE",
"310 349 OFFCURVE",
"328 349 CURVE SMOOTH",
"354 349 OFFCURVE",
"377 355 OFFCURVE",
"400 366 CURVE",
"439 325 OFFCURVE",
"462 281 OFFCURVE",
"462 241 CURVE SMOOTH",
"462 171 OFFCURVE",
"397 117 OFFCURVE",
"324 117 CURVE SMOOTH",
"208 117 OFFCURVE",
"112 248 OFFCURVE",
"46 416 CURVE",
"21 406 LINE",
"96 198 OFFCURVE",
"236 55 OFFCURVE",
"365 55 CURVE SMOOTH",
"446 55 OFFCURVE",
"509 119 OFFCURVE",
"509 193 CURVE SMOOTH",
"509 229 OFFCURVE",
"498 266 OFFCURVE",
"480 302 CURVE",
"519 351 OFFCURVE",
"575 385 OFFCURVE",
"640 385 CURVE SMOOTH",
"673 385 OFFCURVE",
"702 355 OFFCURVE",
"702 317 CURVE SMOOTH",
"702 251 OFFCURVE",
"663 192 OFFCURVE",
"606 172 CURVE",
"654 117 LINE",
"711 136 OFFCURVE",
"751 198 OFFCURVE",
"751 268 CURVE SMOOTH",
"751 346 OFFCURVE",
"661 441 OFFCURVE",
"585 441 CURVE SMOOTH",
"533 441 OFFCURVE",
"477 409 OFFCURVE",
"439 358 CURVE",
"420 379 LINE",
"447 394 OFFCURVE",
"468 428 OFFCURVE",
"468 468 CURVE SMOOTH",
"468 511 OFFCURVE",
"449 570 OFFCURVE",
"400 620 CURVE SMOOTH",
"330 689 LINE",
"-14 689 LINE",
"-14 620 LINE"
);
},
{
closed = 1;
nodes = (
"802 620 LINE",
"802 689 LINE",
"372 689 LINE",
"441 620 LINE"
);
}
);
width = 788;
},
{
anchors = (
{
name = bottom;
position = "{420, 7}";
},
{
name = top;
position = "{379, 689}";
}
);
layerId = "39185045-6A8C-415A-8312-7B8F11386A4C";
name = Regular;
paths = (
{
closed = 1;
nodes = (
"392 551 LINE SMOOTH",
"416 551 OFFCURVE",
"434 525 OFFCURVE",
"434 496 CURVE SMOOTH",
"434 458 OFFCURVE",
"380 434 OFFCURVE",
"324 434 CURVE SMOOTH",
"280 434 OFFCURVE",
"246 437 OFFCURVE",
"221 447 CURVE",
"248 375 OFFCURVE",
"275 325 OFFCURVE",
"303 296 CURVE",
"315 292 OFFCURVE",
"336 289 OFFCURVE",
"365 289 CURVE SMOOTH",
"389 289 OFFCURVE",
"408 292 OFFCURVE",
"420 296 CURVE",
"441 275 OFFCURVE",
"455 251 OFFCURVE",
"455 227 CURVE SMOOTH",
"455 176 OFFCURVE",
"402 138 OFFCURVE",
"345 138 CURVE SMOOTH",
"234 138 OFFCURVE",
"121 251 OFFCURVE",
"62 413 CURVE",
"21 400 LINE",
"104 169 OFFCURVE",
"263 7 OFFCURVE",
"420 7 CURVE SMOOTH",
"504 7 OFFCURVE",
"572 68 OFFCURVE",
"572 138 CURVE SMOOTH",
"572 153 OFFCURVE",
"568 171 OFFCURVE",
"561 187 CURVE",
"615 251 OFFCURVE",
"681 289 OFFCURVE",
"745 289 CURVE SMOOTH",
"758 289 OFFCURVE",
"773 275 OFFCURVE",
"773 262 CURVE SMOOTH",
"773 218 OFFCURVE",
"723 172 OFFCURVE",
"649 145 CURVE",
"738 34 LINE",
"808 53 OFFCURVE",
"862 109 OFFCURVE",
"862 172 CURVE SMOOTH",
"862 267 OFFCURVE",
"752 392 OFFCURVE",
"670 392 CURVE SMOOTH",
"603 392 OFFCURVE",
"538 358 OFFCURVE",
"482 297 CURVE",
"462 317 LINE",
"502 336 OFFCURVE",
"530 372 OFFCURVE",
"530 406 CURVE SMOOTH",
"530 446 OFFCURVE",
"504 500 OFFCURVE",
"462 551 CURVE SMOOTH",
"345 689 LINE",
"-14 689 LINE",
"-14 551 LINE"
);
},
{
closed = 1;
nodes = (
"914 551 LINE",
"914 689 LINE",
"413 689 LINE",
"530 551 LINE"
);
}
);
width = 899;
}
);
unicode = 090A;
},
{
color = 3;
glyphname = "rVocalic-deva";
lastChange = "2015-05-11 15:45:47 +0000";
layers = (
{
anchors = (
{
name = bottom;
position = "{385, 0}";
},
{
name = top;
position = "{372, 689}";
}
);
layerId = "E777F328-EA17-4AE7-9EBA-8002E537BA4F";
name = Light;
paths = (
{
closed = 1;
nodes = (
"-14 689 LINE",
"-14 620 LINE",
"351 620 LINE",
"351 420 LINE",
"286 496 OFFCURVE",
"221 537 OFFCURVE",
"166 537 CURVE SMOOTH",
"109 537 OFFCURVE",
"54 515 OFFCURVE",
"14 475 CURVE",
"62 413 LINE",
"106 457 OFFCURVE",
"160 482 OFFCURVE",
"207 482 CURVE SMOOTH",
"241 482 OFFCURVE",
"292 449 OFFCURVE",
"338 392 CURVE",
"283 326 OFFCURVE",
"207 275 OFFCURVE",
"110 241 CURVE",
"179 186 LINE",
"248 218 OFFCURVE",
"306 257 OFFCURVE",
"351 303 CURVE",
"351 166 LINE SMOOTH",
"351 86 OFFCURVE",
"549 -55 OFFCURVE",
"668 -55 CURVE SMOOTH",
"687 -55 OFFCURVE",
"706 -46 OFFCURVE",
"723 -28 CURVE",
"661 14 LINE",
"647 -4 OFFCURVE",
"630 -14 OFFCURVE",
"613 -14 CURVE SMOOTH",
"548 -14 OFFCURVE",
"420 69 OFFCURVE",
"420 117 CURVE SMOOTH",
"420 365 LINE",
"460 338 OFFCURVE",
"502 324 OFFCURVE",
"551 324 CURVE SMOOTH",
"574 324 OFFCURVE",
"594 326 OFFCURVE",
"606 330 CURVE",
"658 286 OFFCURVE",
"689 246 OFFCURVE",
"689 221 CURVE SMOOTH",
"689 176 OFFCURVE",
"651 138 OFFCURVE",
"606 138 CURVE SMOOTH",
"582 138 OFFCURVE",
"554 156 OFFCURVE",
"530 179 CURVE",
"509 158 LINE",
"554 113 OFFCURVE",
"608 83 OFFCURVE",
"654 83 CURVE SMOOTH",
"702 83 OFFCURVE",
"751 132 OFFCURVE",
"751 186 CURVE SMOOTH",
"751 226 OFFCURVE",
"707 281 OFFCURVE",
"634 345 CURVE",
"673 363 OFFCURVE",
"702 395 OFFCURVE",
"702 420 CURVE SMOOTH",
"702 462 OFFCURVE",
"646 517 OFFCURVE",
"599 517 CURVE SMOOTH",
"569 517 OFFCURVE",
"544 491 OFFCURVE",
"544 462 CURVE SMOOTH",
"544 437 OFFCURVE",
"553 414 OFFCURVE",
"572 392 CURVE",
"548 379 OFFCURVE",
"525 372 OFFCURVE",
"502 372 CURVE SMOOTH",
"471 372 OFFCURVE",
"441 380 OFFCURVE",
"420 400 CURVE",
"420 620 LINE",
"351 689 LINE"
);
},
{
closed = 1;
nodes = (
"392 689 LINE",
"462 620 LINE",
"803 620 LINE",
"803 689 LINE"
);
}
);
width = 788;
},
{
anchors = (
{
name = bottom;
position = "{486, 0}";
},
{
name = top;
position = "{458, 689}";
}
);
layerId = "39185045-6A8C-415A-8312-7B8F11386A4C";
name = Regular;
paths = (
{
closed = 1;
nodes = (
"-14 689 LINE",
"-14 551 LINE",
"410 551 LINE",
"410 372 LINE",
"351 455 OFFCURVE",
"284 509 OFFCURVE",
"225 509 CURVE SMOOTH",
"140 509 OFFCURVE",
"64 481 OFFCURVE",
"18 434 CURVE",
"114 296 LINE",
"167 348 OFFCURVE",
"234 379 OFFCURVE",
"300 379 CURVE SMOOTH",
"332 379 OFFCURVE",
"368 356 OFFCURVE",
"397 317 CURVE",
"324 243 OFFCURVE",
"232 198 OFFCURVE",
"121 179 CURVE",
"238 62 LINE",
"303 86 OFFCURVE",
"361 122 OFFCURVE",
"410 172 CURVE",
"410 163 LINE SMOOTH",
"410 81 OFFCURVE",
"658 -89 OFFCURVE",
"789 -89 CURVE SMOOTH",
"829 -89 OFFCURVE",
"868 -71 OFFCURVE",
"892 -41 CURVE",
"762 32 LINE",
"745 5 OFFCURVE",
"719 -7 OFFCURVE",
"692 -7 CURVE SMOOTH",
"647 -7 OFFCURVE",
"563 48 OFFCURVE",
"563 83 CURVE SMOOTH",
"563 351 LINE",
"615 297 OFFCURVE",
"673 266 OFFCURVE",
"720 266 CURVE SMOOTH",
"747 266 OFFCURVE",
"769 269 OFFCURVE",
"789 277 CURVE",
"813 253 OFFCURVE",
"830 227 OFFCURVE",
"830 212 CURVE SMOOTH",
"830 176 OFFCURVE",
"798 143 OFFCURVE",
"762 143 CURVE SMOOTH",
"728 143 OFFCURVE",
"699 150 OFFCURVE",
"686 164 CURVE",
"665 136 LINE",
"714 80 OFFCURVE",
"777 44 OFFCURVE",
"837 44 CURVE SMOOTH",
"899 44 OFFCURVE",
"954 86 OFFCURVE",
"954 143 CURVE SMOOTH",
"954 183 OFFCURVE",
"938 203 OFFCURVE",
"844 303 CURVE",
"883 322 OFFCURVE",
"906 346 OFFCURVE",
"906 372 CURVE SMOOTH",
"906 427 OFFCURVE",
"819 498 OFFCURVE",
"754 498 CURVE SMOOTH",
"722 498 OFFCURVE",
"692 475 OFFCURVE",
"692 443 CURVE SMOOTH",
"692 425 OFFCURVE",
"701 403 OFFCURVE",
"720 383 CURVE",
"709 375 OFFCURVE",
"691 370 OFFCURVE",
"671 370 CURVE SMOOTH",
"626 370 OFFCURVE",
"584 389 OFFCURVE",
"563 420 CURVE",
"563 551 LINE",
"425 689 LINE"
);
},
{
closed = 1;
nodes = (
"492 689 LINE",
"630 551 LINE",
"1007 551 LINE",
"1007 689 LINE"
);
}
);
width = 993;
}
);
unicode = 090B;
},
{
color = 3;
glyphname = "rrVocalic-deva";
lastChange = "2015-05-11 15:45:47 +0000";
layers = (
{
anchors = (
{
name = bottom;
position = "{392, 0}";
},
{
name = top;
position = "{372, 689}";
}
);
background = {
paths = (
{
closed = 1;
nodes = (
"-14 689 LINE",
"351 689 LINE",
"420 620 LINE",
"420 400 LINE",
"441 381 OFFCURVE",
"469 372 OFFCURVE",
"502 372 CURVE SMOOTH",
"525 372 OFFCURVE",
"548 379 OFFCURVE",
"572 392 CURVE",
"554 414 OFFCURVE",
"544 437 OFFCURVE",
"544 462 CURVE SMOOTH",
"544 492 OFFCURVE",
"568 517 OFFCURVE",
"599 517 CURVE SMOOTH",
"644 517 OFFCURVE",
"702 458 OFFCURVE",
"702 413 CURVE SMOOTH",
"702 397 OFFCURVE",
"686 374 OFFCURVE",
"658 351 CURVE",
"698 319 OFFCURVE",
"723 285 OFFCURVE",
"723 262 CURVE SMOOTH",
"723 239 OFFCURVE",
"694 218 OFFCURVE",
"654 207 CURVE SMOOTH",
"632 200 OFFCURVE",
"614 193 OFFCURVE",
"599 185 CURVE",
"585 176 OFFCURVE",
"579 167 OFFCURVE",
"579 158 CURVE SMOOTH",
"579 136 OFFCURVE",
"608 117 OFFCURVE",
"647 117 CURVE SMOOTH",
"680 117 OFFCURVE",
"712 131 OFFCURVE",
"743 158 CURVE",
"798 117 LINE",
"762 86 OFFCURVE",
"717 69 OFFCURVE",
"675 69 CURVE SMOOTH",
"605 69 OFFCURVE",
"517 135 OFFCURVE",
"517 186 CURVE SMOOTH",
"517 220 OFFCURVE",
"559 251 OFFCURVE",
"620 262 CURVE SMOOTH",
"647 267 OFFCURVE",
"668 278 OFFCURVE",
"668 289 CURVE SMOOTH",
"668 294 OFFCURVE",
"663 302 OFFCURVE",
"657 310 CURVE",
"651 319 OFFCURVE",
"639 329 OFFCURVE",
"626 339 CURVE",
"602 329 OFFCURVE",
"577 324 OFFCURVE",
"551 324 CURVE SMOOTH",
"502 324 OFFCURVE",
"460 338 OFFCURVE",
"420 365 CURVE",
"420 117 LINE SMOOTH",
"420 71 OFFCURVE",
"543 -14 OFFCURVE",
"613 -14 CURVE SMOOTH",
"630 -14 OFFCURVE",
"646 -4 OFFCURVE",
"661 14 CURVE",
"723 -28 LINE",
"706 -46 OFFCURVE",
"686 -55 OFFCURVE",
"668 -55 CURVE SMOOTH",
"554 -55 OFFCURVE",
"351 86 OFFCURVE",
"351 166 CURVE SMOOTH",
"351 303 LINE",
"306 257 OFFCURVE",
"248 218 OFFCURVE",
"179 186 CURVE",
"110 241 LINE",
"207 275 OFFCURVE",
"283 326 OFFCURVE",
"338 392 CURVE",
"289 449 OFFCURVE",
"241 482 OFFCURVE",
"207 482 CURVE SMOOTH",
"158 482 OFFCURVE",
"106 457 OFFCURVE",
"62 413 CURVE",
"14 475 LINE",
"54 515 OFFCURVE",
"109 537 OFFCURVE",
"166 537 CURVE SMOOTH",
"221 537 OFFCURVE",
"289 492 OFFCURVE",
"351 420 CURVE",
"351 620 LINE",
"-14 620 LINE"
);
},
{
closed = 1;
nodes = (
"392 689 LINE",
"826 689 LINE",
"826 620 LINE",
"462 620 LINE"
);
}
);
};
layerId = "E777F328-EA17-4AE7-9EBA-8002E537BA4F";
name = Light;
paths = (
{
closed = 1;
nodes = (
"-14 689 LINE",
"-14 620 LINE",
"351 620 LINE",
"351 420 LINE",
"289 492 OFFCURVE",
"221 537 OFFCURVE",
"166 537 CURVE SMOOTH",
"109 537 OFFCURVE",
"54 515 OFFCURVE",
"14 475 CURVE",
"62 413 LINE",
"106 457 OFFCURVE",
"158 482 OFFCURVE",
"207 482 CURVE SMOOTH",
"241 482 OFFCURVE",
"289 449 OFFCURVE",
"338 392 CURVE",
"283 326 OFFCURVE",
"207 275 OFFCURVE",
"110 241 CURVE",
"179 186 LINE",
"248 218 OFFCURVE",
"306 257 OFFCURVE",
"351 303 CURVE",
"351 166 LINE SMOOTH",
"351 86 OFFCURVE",
"554 -55 OFFCURVE",
"668 -55 CURVE SMOOTH",
"686 -55 OFFCURVE",
"706 -46 OFFCURVE",
"723 -28 CURVE",
"661 14 LINE",
"646 -4 OFFCURVE",
"630 -14 OFFCURVE",
"613 -14 CURVE SMOOTH",
"543 -14 OFFCURVE",
"420 71 OFFCURVE",
"420 117 CURVE SMOOTH",
"420 365 LINE",
"460 338 OFFCURVE",
"502 324 OFFCURVE",
"551 324 CURVE SMOOTH",
"577 324 OFFCURVE",
"602 329 OFFCURVE",
"626 339 CURVE",
"643 325 OFFCURVE",
"668 302 OFFCURVE",
"668 289 CURVE SMOOTH",
"668 253 OFFCURVE",
"517 267 OFFCURVE",
"517 186 CURVE SMOOTH",
"517 135 OFFCURVE",
"605 69 OFFCURVE",
"675 69 CURVE SMOOTH",
"717 69 OFFCURVE",
"762 86 OFFCURVE",
"798 117 CURVE",
"743 158 LINE",
"712 131 OFFCURVE",
"680 117 OFFCURVE",
"647 117 CURVE SMOOTH",
"608 117 OFFCURVE",
"579 136 OFFCURVE",
"579 158 CURVE SMOOTH",
"579 207 OFFCURVE",
"723 200 OFFCURVE",
"723 262 CURVE SMOOTH",
"723 285 OFFCURVE",
"698 319 OFFCURVE",
"658 351 CURVE",
"686 374 OFFCURVE",
"702 397 OFFCURVE",
"702 413 CURVE SMOOTH",
"702 458 OFFCURVE",
"644 517 OFFCURVE",
"599 517 CURVE SMOOTH",
"568 517 OFFCURVE",
"544 492 OFFCURVE",
"544 462 CURVE SMOOTH",
"544 437 OFFCURVE",
"554 414 OFFCURVE",
"572 392 CURVE",
"548 379 OFFCURVE",
"525 372 OFFCURVE",
"502 372 CURVE SMOOTH",
"469 372 OFFCURVE",
"441 381 OFFCURVE",
"420 400 CURVE",
"420 620 LINE",
"351 689 LINE"
);
},
{
closed = 1;
nodes = (
"392 689 LINE",
"462 620 LINE",
"826 620 LINE",
"826 689 LINE"
);
}
);
width = 813;
},
{
anchors = (
{
name = bottom;
position = "{486, 0}";
},
{
name = top;
position = "{458, 689}";
}
);
background = {
paths = (
{
closed = 1;
nodes = (
"-14 689 LINE",
"425 689 LINE",
"563 551 LINE",
"563 439 LINE",
"584 410 OFFCURVE",
"625 392 OFFCURVE",
"671 392 CURVE SMOOTH",
"694 392 OFFCURVE",
"709 395 OFFCURVE",
"720 402 CURVE",
"702 425 OFFCURVE",
"692 446 OFFCURVE",
"692 463 CURVE SMOOTH",
"692 491 OFFCURVE",
"720 517 OFFCURVE",
"754 517 CURVE SMOOTH",
"821 517 OFFCURVE",
"906 447 OFFCURVE",
"906 392 CURVE SMOOTH",
"906 366 OFFCURVE",
"886 340 OFFCURVE",
"851 319 CURVE",
"899 292 OFFCURVE",
"926 257 OFFCURVE",
"926 234 CURVE SMOOTH",
"926 207 OFFCURVE",
"905 183 OFFCURVE",
"871 174 CURVE SMOOTH",
"842 166 OFFCURVE",
"819 157 OFFCURVE",
"803 147 CURVE SMOOTH",
"785 138 OFFCURVE",
"775 131 OFFCURVE",
"775 120 CURVE SMOOTH",
"775 109 OFFCURVE",
"788 99 OFFCURVE",
"803 99 CURVE SMOOTH",
"837 99 OFFCURVE",
"880 114 OFFCURVE",
"920 143 CURVE",
"1016 59 LINE",
"977 34 OFFCURVE",
"928 23 OFFCURVE",
"871 23 CURVE SMOOTH",
"778 23 OFFCURVE",
"658 110 OFFCURVE",
"658 181 CURVE SMOOTH",
"658 208 OFFCURVE",
"701 236 OFFCURVE",
"762 248 CURVE",
"779 251 OFFCURVE",
"795 255 OFFCURVE",
"806 258 CURVE",
"819 264 OFFCURVE",
"824 269 OFFCURVE",
"824 275 CURVE SMOOTH",
"824 278 OFFCURVE",
"823 281 OFFCURVE",
"819 285 CURVE SMOOTH",
"814 289 OFFCURVE",
"808 293 OFFCURVE",
"802 299 CURVE",
"774 292 OFFCURVE",
"749 288 OFFCURVE",
"727 288 CURVE SMOOTH",
"676 288 OFFCURVE",
"615 319 OFFCURVE",
"563 372 CURVE",
"563 83 LINE SMOOTH",
"563 49 OFFCURVE",
"643 -7 OFFCURVE",
"692 -7 CURVE SMOOTH",
"719 -7 OFFCURVE",
"745 8 OFFCURVE",
"762 32 CURVE",
"892 -41 LINE",
"866 -74 OFFCURVE",
"829 -89 OFFCURVE",
"789 -89 CURVE SMOOTH",
"663 -89 OFFCURVE",
"410 86 OFFCURVE",
"410 172 CURVE",
"361 122 OFFCURVE",
"303 86 OFFCURVE",
"238 62 CURVE",
"121 179 LINE",
"232 198 OFFCURVE",
"324 243 OFFCURVE",
"397 317 CURVE",
"370 355 OFFCURVE",
"334 379 OFFCURVE",
"300 379 CURVE SMOOTH",
"234 379 OFFCURVE",
"168 349 OFFCURVE",
"114 296 CURVE",
"18 434 LINE",
"66 482 OFFCURVE",
"140 509 OFFCURVE",
"225 509 CURVE SMOOTH",
"281 509 OFFCURVE",
"349 458 OFFCURVE",
"410 372 CURVE",
"410 551 LINE",
"-14 551 LINE"
);
},
{
closed = 1;
nodes = (
"492 689 LINE",
"1041 689 LINE",
"1041 551 LINE",
"630 551 LINE"
);
}
);
};
layerId = "39185045-6A8C-415A-8312-7B8F11386A4C";
name = Regular;
paths = (
{
closed = 1;
nodes = (
"-14 689 LINE",
"-14 551 LINE",
"410 551 LINE",
"410 372 LINE",
"349 458 OFFCURVE",
"281 509 OFFCURVE",
"225 509 CURVE SMOOTH",
"140 509 OFFCURVE",
"66 482 OFFCURVE",
"18 434 CURVE",
"114 296 LINE",
"168 349 OFFCURVE",
"234 379 OFFCURVE",
"300 379 CURVE SMOOTH",
"334 379 OFFCURVE",
"370 355 OFFCURVE",
"397 317 CURVE",
"324 243 OFFCURVE",
"232 198 OFFCURVE",
"121 179 CURVE",
"238 62 LINE",
"303 86 OFFCURVE",
"361 122 OFFCURVE",
"410 172 CURVE",
"410 160 LINE",
"410 95 OFFCURVE",
"654 -89 OFFCURVE",
"789 -89 CURVE SMOOTH",
"829 -89 OFFCURVE",
"866 -74 OFFCURVE",
"892 -41 CURVE",
"762 32 LINE",
"745 8 OFFCURVE",
"719 -7 OFFCURVE",
"692 -7 CURVE SMOOTH",
"643 -7 OFFCURVE",
"563 49 OFFCURVE",
"563 83 CURVE SMOOTH",
"563 372 LINE",
"615 319 OFFCURVE",
"676 288 OFFCURVE",
"727 288 CURVE SMOOTH",
"749 288 OFFCURVE",
"774 292 OFFCURVE",
"802 299 CURVE",
"814 292 OFFCURVE",
"824 283 OFFCURVE",
"824 275 CURVE SMOOTH",
"824 243 OFFCURVE",
"658 249 OFFCURVE",
"658 181 CURVE SMOOTH",
"658 110 OFFCURVE",
"778 23 OFFCURVE",
"871 23 CURVE SMOOTH",
"928 23 OFFCURVE",
"977 34 OFFCURVE",
"1016 59 CURVE",
"920 143 LINE",
"880 114 OFFCURVE",
"837 99 OFFCURVE",
"803 99 CURVE SMOOTH",
"788 99 OFFCURVE",
"775 109 OFFCURVE",
"775 120 CURVE SMOOTH",
"775 166 OFFCURVE",
"926 157 OFFCURVE",
"926 234 CURVE SMOOTH",
"926 257 OFFCURVE",
"899 292 OFFCURVE",
"851 319 CURVE",
"886 340 OFFCURVE",
"906 366 OFFCURVE",
"906 392 CURVE SMOOTH",
"906 447 OFFCURVE",
"821 517 OFFCURVE",
"754 517 CURVE SMOOTH",
"720 517 OFFCURVE",
"692 491 OFFCURVE",
"692 463 CURVE SMOOTH",
"692 446 OFFCURVE",
"702 425 OFFCURVE",
"720 402 CURVE",
"709 395 OFFCURVE",
"694 392 OFFCURVE",
"671 392 CURVE SMOOTH",
"625 392 OFFCURVE",
"584 410 OFFCURVE",
"563 439 CURVE",
"563 551 LINE",
"425 689 LINE"
);
},
{
closed = 1;
nodes = (
"492 689 LINE",
"630 551 LINE",
"1041 551 LINE",
"1041 689 LINE"
);
}
);
width = 1028;
}
);
unicode = 0960;
},
{
color = 3;
glyphname = "lVocalic-deva";
lastChange = "2015-05-11 15:45:47 +0000";
layers = (
{
anchors = (
{
name = bottom;
position = "{439, 0}";
},
{
name = top;
position = "{530, 689}";
}
);
layerId = "E777F328-EA17-4AE7-9EBA-8002E537BA4F";
name = Light;
paths = (
{
closed = 1;
nodes = (
"502 620 LINE",
"502 502 LINE",
"453 500 OFFCURVE",
"402 455 OFFCURVE",
"372 392 CURVE",
"325 456 OFFCURVE",
"266 496 OFFCURVE",
"207 496 CURVE SMOOTH",
"134 496 OFFCURVE",
"55 410 OFFCURVE",
"55 330 CURVE SMOOTH",
"55 200 OFFCURVE",
"203 0 OFFCURVE",
"330 0 CURVE SMOOTH",
"355 0 OFFCURVE",
"380 8 OFFCURVE",
"400 28 CURVE",
"345 76 LINE",
"325 57 OFFCURVE",
"310 49 OFFCURVE",
"296 49 CURVE SMOOTH",
"226 49 OFFCURVE",
"110 187 OFFCURVE",
"110 268 CURVE SMOOTH",
"110 355 OFFCURVE",
"176 441 OFFCURVE",
"249 441 CURVE SMOOTH",
"288 441 OFFCURVE",
"329 409 OFFCURVE",
"358 358 CURVE",
"354 332 OFFCURVE",
"351 310 OFFCURVE",
"351 289 CURVE",
"420 255 LINE",
"420 394 OFFCURVE",
"485 455 OFFCURVE",
"558 455 CURVE SMOOTH",
"628 455 OFFCURVE",
"689 394 OFFCURVE",
"689 324 CURVE SMOOTH",
"689 198 OFFCURVE",
"475 200 OFFCURVE",
"475 76 CURVE SMOOTH",
"475 9 OFFCURVE",
"580 -76 OFFCURVE",
"681 -76 CURVE SMOOTH",
"733 -76 OFFCURVE",
"775 -57 OFFCURVE",
"806 -21 CURVE",
"758 21 LINE",
"722 -15 OFFCURVE",
"681 -34 OFFCURVE",
"640 -34 CURVE SMOOTH",
"581 -34 OFFCURVE",
"530 -3 OFFCURVE",
"530 41 CURVE SMOOTH",
"530 151 OFFCURVE",
"737 156 OFFCURVE",
"737 283 CURVE SMOOTH",
"737 372 OFFCURVE",
"671 460 OFFCURVE",
"572 496 CURVE",
"572 620 LINE",
"509 689 LINE",
"-14 689 LINE",
"-14 620 LINE"
);
},
{
closed = 1;
nodes = (
"798 620 LINE",
"798 689 LINE",
"551 689 LINE",
"613 620 LINE"
);
}
);
width = 785;
},
{
anchors = (
{
name = bottom;
position = "{513, 0}";
},
{
name = top;
position = "{525, 689}";
}
);
background = {
paths = (
{
closed = 1;
nodes = (
"477 551 LINE",
"477 482 LINE",
"437 474 OFFCURVE",
"400 436 OFFCURVE",
"380 379 CURVE",
"326 443 OFFCURVE",
"264 482 OFFCURVE",
"214 482 CURVE SMOOTH",
"125 482 OFFCURVE",
"50 405 OFFCURVE",
"50 310 CURVE SMOOTH",
"50 167 OFFCURVE",
"257 -41 OFFCURVE",
"421 -41 CURVE SMOOTH",
"446 -41 OFFCURVE",
"471 -33 OFFCURVE",
"491 -14 CURVE",
"408 104 LINE",
"384 80 OFFCURVE",
"348 69 OFFCURVE",
"304 69 CURVE SMOOTH",
"248 69 OFFCURVE",
"172 143 OFFCURVE",
"172 200 CURVE SMOOTH",
"172 291 OFFCURVE",
"230 365 OFFCURVE",
"306 365 CURVE SMOOTH",
"325 365 OFFCURVE",
"346 353 OFFCURVE",
"361 335 CURVE",
"355 303 OFFCURVE",
"353 277 OFFCURVE",
"353 255 CURVE",
"504 200 LINE",
"504 351 OFFCURVE",
"572 400 OFFCURVE",
"635 400 CURVE SMOOTH",
"671 400 OFFCURVE",
"697 364 OFFCURVE",
"697 324 CURVE SMOOTH",
"697 179 OFFCURVE",
"518 181 OFFCURVE",
"518 69 CURVE SMOOTH",
"518 -23 OFFCURVE",
"649 -145 OFFCURVE",
"773 -145 CURVE SMOOTH",
"832 -145 OFFCURVE",
"888 -126 OFFCURVE",
"924 -96 CURVE",
"814 14 LINE",
"778 -31 OFFCURVE",
"728 -55 OFFCURVE",
"676 -55 CURVE SMOOTH",
"643 -55 OFFCURVE",
"621 -40 OFFCURVE",
"621 -14 CURVE SMOOTH",
"621 42 OFFCURVE",
"734 68 OFFCURVE",
"779 135 CURVE SMOOTH",
"803 168 OFFCURVE",
"814 203 OFFCURVE",
"814 241 CURVE SMOOTH",
"814 332 OFFCURVE",
"740 420 OFFCURVE",
"628 462 CURVE",
"628 551 LINE",
"491 689 LINE",
"-14 689 LINE",
"-14 551 LINE"
);
}
);
};
layerId = "39185045-6A8C-415A-8312-7B8F11386A4C";
name = Regular;
paths = (
{
closed = 1;
nodes = (
"477 551 LINE",
"477 482 LINE",
"437 474 OFFCURVE",
"400 436 OFFCURVE",
"380 379 CURVE",
"326 443 OFFCURVE",
"264 482 OFFCURVE",
"214 482 CURVE SMOOTH",
"125 482 OFFCURVE",
"50 405 OFFCURVE",
"50 310 CURVE SMOOTH",
"50 167 OFFCURVE",
"257 -41 OFFCURVE",
"421 -41 CURVE SMOOTH",
"446 -41 OFFCURVE",
"471 -33 OFFCURVE",
"491 -14 CURVE",
"408 104 LINE",
"384 80 OFFCURVE",
"348 69 OFFCURVE",
"304 69 CURVE SMOOTH",
"248 69 OFFCURVE",
"172 143 OFFCURVE",
"172 200 CURVE SMOOTH",
"172 291 OFFCURVE",
"230 365 OFFCURVE",
"306 365 CURVE SMOOTH",
"325 365 OFFCURVE",
"346 353 OFFCURVE",
"361 335 CURVE",
"355 303 OFFCURVE",
"353 277 OFFCURVE",
"353 255 CURVE",
"504 200 LINE",
"504 351 OFFCURVE",
"572 400 OFFCURVE",
"635 400 CURVE SMOOTH",
"671 400 OFFCURVE",
"697 364 OFFCURVE",
"697 324 CURVE SMOOTH",
"697 179 OFFCURVE",
"518 181 OFFCURVE",
"518 69 CURVE SMOOTH",
"518 -23 OFFCURVE",
"649 -145 OFFCURVE",
"773 -145 CURVE SMOOTH",
"832 -145 OFFCURVE",
"888 -126 OFFCURVE",
"924 -96 CURVE",
"814 14 LINE",
"778 -31 OFFCURVE",
"728 -55 OFFCURVE",
"676 -55 CURVE SMOOTH",
"643 -55 OFFCURVE",
"621 -40 OFFCURVE",
"621 -14 CURVE SMOOTH",
"621 59 OFFCURVE",
"814 74 OFFCURVE",
"814 241 CURVE SMOOTH",
"814 332 OFFCURVE",
"740 420 OFFCURVE",
"628 462 CURVE",
"628 551 LINE",
"491 689 LINE",
"-14 689 LINE",
"-14 551 LINE"
);
},
{
closed = 1;
nodes = (
"876 551 LINE",
"876 689 LINE",
"559 689 LINE",
"697 551 LINE"
);
}
);
width = 862;
}
);
unicode = 090C;
},
